<?xml version="1.0" encoding="UTF-8" standalone="no"?>
<!-- Created with Inkscape (http://www.inkscape.org/) -->

<svg
   xmlns:dc="http://purl.org/dc/elements/1.1/"
   xmlns:cc="http://creativecommons.org/ns#"
   xmlns:rdf="http://www.w3.org/1999/02/22-rdf-syntax-ns#"
   xmlns:svg="http://www.w3.org/2000/svg"
   xmlns="http://www.w3.org/2000/svg"
   xmlns:xlink="http://www.w3.org/1999/xlink"
   xmlns:sodipodi="http://sodipodi.sourceforge.net/DTD/sodipodi-0.dtd"
   xmlns:inkscape="http://www.inkscape.org/namespaces/inkscape"
   width="616.42853"
   height="354.28574"
   id="svg2"
   version="1.1"
   inkscape:version="0.48.4 r9939"
   sodipodi:docname="trumai.svg"
   inkscape:export-filename="/home/nordhofs/versioning/git/langsci/books/Stenzel/3829919rbmqbt/figures/trumai.png"
   inkscape:export-xdpi="137"
   inkscape:export-ydpi="137">
  <defs
     id="defs4">
    <filter
       color-interpolation-filters="sRGB"
       id="filter4719"
       inkscape:label="Drop Shadow">
      <feFlood
         id="feFlood4721"
         flood-opacity="0.987"
         flood-color="rgb(0,0,0)"
         result="flood" />
      <feComposite
         id="feComposite4723"
         in2="SourceGraphic"
         in="flood"
         operator="in"
         result="composite1" />
      <feGaussianBlur
         id="feGaussianBlur4725"
         stdDeviation="0.9"
         result="blur" />
      <feOffset
         id="feOffset4727"
         dx="-2"
         dy="2"
         result="offset" />
      <feComposite
         id="feComposite4729"
         in2="offset"
         in="SourceGraphic"
         operator="over"
         result="fbSourceGraphic" />
      <feColorMatrix
         result="fbSourceGraphicAlpha"
         in="fbSourceGraphic"
         values="0 0 0 -1 0 0 0 0 -1 0 0 0 0 -1 0 0 0 0 1 0"
         id="feColorMatrix4731" />
      <feFlood
         id="feFlood4733"
         flood-opacity="0.987"
         flood-color="rgb(0,0,0)"
         result="flood"
         in="fbSourceGraphic" />
      <feComposite
         id="feComposite4735"
         in2="fbSourceGraphic"
         in="flood"
         operator="in"
         result="composite1" />
      <feGaussianBlur
         id="feGaussianBlur4737"
         stdDeviation="0.9"
         result="blur" />
      <feOffset
         id="feOffset4739"
         dx="-2"
         dy="2"
         result="offset" />
      <feComposite
         id="feComposite4741"
         in2="offset"
         in="fbSourceGraphic"
         operator="over"
         result="composite2" />
    </filter>
  </defs>
  <sodipodi:namedview
     id="base"
     pagecolor="#ffffff"
     bordercolor="#666666"
     borderopacity="1.0"
     inkscape:pageopacity="0.0"
     inkscape:pageshadow="2"
     inkscape:zoom="1.4"
     inkscape:cx="155.97565"
     inkscape:cy="155.13999"
     inkscape:document-units="px"
     inkscape:current-layer="layer5"
     showgrid="false"
     inkscape:window-width="1920"
     inkscape:window-height="1178"
     inkscape:window-x="2560"
     inkscape:window-y="0"
     inkscape:window-maximized="1"
     fit-margin-top="0"
     fit-margin-left="0"
     fit-margin-right="0"
     fit-margin-bottom="0" />
  <metadata
     id="metadata7">
    <rdf:RDF>
      <cc:Work
         rdf:about="">
        <dc:format>image/svg+xml</dc:format>
        <dc:type
           rdf:resource="http://purl.org/dc/dcmitype/StillImage" />
        <dc:title />
      </cc:Work>
    </rdf:RDF>
  </metadata>
  <g
     inkscape:groupmode="layer"
     id="layer7"
     inkscape:label="bg"
     style="display:none">
    <rect
       style="fill:#ffffff;fill-opacity:1;stroke:none"
       id="rect4352"
       width="852.14288"
       height="482.85715"
       x="-77.14286"
       y="-45.714264" />
  </g>
  <g
     inkscape:groupmode="layer"
     id="layer2"
     inkscape:label="base"
     style="display:none"
     transform="translate(-47.109874,-373.9288)">
    <image
       y="360.14789"
       x="48.142845"
       id="image3093"
       xlink:href="file:///home/nordhofs/versioning/git/langsci/books/Stenzel/3829919rbmqbt/figures/trumai1.jpg"
       height="373"
       width="618" />
  </g>
  <g
     inkscape:label="Layer 1"
     inkscape:groupmode="layer"
     id="layer1"
     style="display:none"
     transform="translate(-47.109874,-373.9288)">
    <image
       y="359.96933"
       x="49.714294"
       id="image3190"
       xlink:href="file:///home/nordhofs/versioning/git/langsci/books/Stenzel/3829919rbmqbt/figures/trumai2.jpg"
       height="373"
       width="417" />
  </g>
  <g
     inkscape:groupmode="layer"
     id="layer5"
     inkscape:label="parque"
     style="display:inline"
     transform="translate(-47.109874,-373.9288)">
    <path
       style="fill:#ebfbf1;fill-opacity:1;stroke:#425b42;stroke-width:1;stroke-linecap:butt;stroke-linejoin:miter;stroke-opacity:1;stroke-miterlimit:4;stroke-dasharray:none;color:#000000;fill-rule:nonzero;stroke-dashoffset:0;marker:none;visibility:visible;display:inline;overflow:visible;enable-background:accumulate"
       d="m 199.46429,357.36218 -1.25,11.78572 -3.21429,6.96428 -9.10714,3.92857 c 0,0 -1.07143,3.21429 -1.07143,3.92857 0,0.71429 0.17857,6.07143 0.17857,6.78572 0,0.71428 0.17857,3.21428 0.17857,3.21428 l -3.75,3.75 1.96429,5.53572 0.71428,8.75 -6.42857,5.89286 1.25,10.35714 -6.96428,4.64286 c 0,0 -5.53572,2.14285 -6.60715,2.32142 -1.07143,0.17858 -9.82143,-1.60714 -9.82143,-1.60714 0,0 -4.10714,5.89286 -5.17857,6.60714 -1.07143,0.71429 -3.57143,4.10715 -3.57143,4.10715 l -8.57142,-2.85715 -3.39286,3.39286 c 0,0 -0.71429,5 -1.42857,5.89286 -0.71429,0.89286 -3.57143,0.35714 -3.57143,0.35714 0,0 -0.89286,4.10714 -1.42857,4.82143 -0.53572,0.71429 -3.66387,3.4003 -3.66387,3.4003 l -0.9853,272.80992 -0.50508,14.14213 436.3859,-7.57614 -0.50508,-6.56599 -0.50507,-4.04061 0.31421,-1.81247 -7.32143,1.42857 -0.89285,-2.5 -8.03572,0.53572 c 0,0 2.14286,-15.71429 1.42857,-16.96429 -0.71428,-1.25 -1.25,-3.75 -2.14285,-3.39285 -0.89286,0.35714 -12.14286,8.21428 -12.14286,8.21428 l 1.07143,-5.17857 -4.46429,-3.75 -2.5,-1.78571 -2.14285,-5.35715 -9.82143,-7.5 -1.78572,4.46429 c 0,0 -10.35714,-0.71429 -10,-1.42857 0.35715,-0.71429 4.46429,-8.39286 4.46429,-8.39286 l -7.14286,-4.64286 0,-3.92857 9.28572,-6.78571 -14.46429,-5.35715 -1.96429,-21.42857 -7.85714,-4.46428 3.03572,-8.92857 -12.32143,-1.96429 c 0,0 -6.42857,-8.21429 -5.9375,-8.92858 l -1.91965,-5.53571 -6.07142,-3.21428 -8.57143,-7.67857 -9.10715,3.57143 -2.67857,-14.10715 -8.75,0.17857 -8.57143,-5.17857 c 0,0 -5,2.5 -5.71428,2.5 -0.71429,0 0.89286,-6.60714 0.89286,-6.60714 l -7.67858,-8.03571 -0.71428,-8.75 -5.53572,-5.89286 0.17858,-18.21429 -5.89286,-13.75 1.42857,-12.67857 10,-25.53571 1.96429,-8.75 2.22171,-8.72766 2.92034,-8.59497 2.02031,-2.77792 1.01015,-4.16687 0,-0.88389 20.58186,-21.71828 5.93465,-1.26269 c 4.57131,-5.29807 5.61629,-7.88355 8.78851,-15.52474 l -0.26325,-4.3787 0.89286,-3.39285 c 0,0 2.32143,-2.67858 5,-6.07143 2.67857,-3.39286 5.53571,2.5 5.53571,2.5 l 4.64286,2.67856 6.25,-7.32142 2.32143,-6.96429 c 0,0 5.35714,-6.96428 5.89286,-7.67857 0.53571,-0.71428 9.10714,-9.64285 9.10714,-9.64285 0,0 5,-5.53572 6.07143,-6.60715 1.07143,-1.07143 5,-4.82143 5,-4.82143 l 3.39285,-3.92857"
       id="path3204"
       inkscape:connector-curvature="0"
       sodipodi:nodetypes="ccccsscccccccscscccscsccccccccccsccccccccscccccccccccccccccscccccccccccccccccccsccccscscc" />
  </g>
  <g
     inkscape:groupmode="layer"
     id="layer6"
     inkscape:label="wawi"
     style="display:inline"
     transform="translate(-47.109874,-373.9288)">
    <path
       style="fill:#ebfbf1;fill-opacity:1;stroke:#425b42;stroke-width:1;stroke-linecap:butt;stroke-linejoin:miter;stroke-miterlimit:4;stroke-opacity:1;stroke-dasharray:none;display:inline;color:#000000;fill-rule:nonzero;stroke-dashoffset:0;marker:none;visibility:visible;overflow:visible;enable-background:accumulate"
       d="m 523.3404,570.62134 c 0,0 -1.01015,-2.2097 -1.01015,-2.71478 0,-0.50508 -1.13642,-1.32583 -1.07329,-1.70463 0.0631,-0.37881 -0.0631,-1.51523 0,-1.83091 0.0631,-0.31567 -0.25254,-12.75317 -0.25254,-12.75317 l -6.56599,-0.44194 -0.78562,-14.95097 -3.92857,-1.78571 0,-3.21429 2.85714,-3.57143 -0.17857,-4.46428 c 0,0 -1.96429,-2.85715 -1.42857,-3.75 0.53571,-0.89286 2.32143,-4.28572 2.32143,-4.28572 l -6.07143,-2.14286 c 0,0 1.25,-3.03571 1.42857,-3.92857 0.17857,-0.89285 2.14286,-3.03571 2.14286,-3.03571 0,0 1.60714,-1.25 1.25,-1.96429 -0.35715,-0.71428 -4.46429,-1.60714 -4.46429,-1.60714 0,0 -2.5,-1.42857 -2.14286,-2.32143 0.35715,-0.89286 2.5,-3.39286 2.5,-3.39286 l -3.03571,-3.21428 -1.07143,-1.42857 0.17857,-3.57143 c 0,0 2.32143,-1.96429 2.14286,-2.85714 -0.17857,-0.89286 -3.39286,-5.35715 -3.39286,-5.35715 l -0.71428,-7.32143 -2.14286,-1.96428 c 0,0 -5.35714,-3.92857 -5.17857,-4.82143 0.17857,-0.89286 1.07143,-10.35714 1.07143,-10.35714 l -4.64286,-6.07143 c 0,0 -3.21429,-1.60714 -2.14286,-3.03572 1.07143,-1.42857 3.39286,-6.07142 3.57143,-6.78571 0.17857,-0.71429 0.35714,-3.92857 -0.71428,-3.92857 -1.07143,0 -5,0.17857 -5,0.17857 l -6.60715,6.42857 c 0,0 -4.10714,0.71429 -4.28571,0 -0.17857,-0.71428 -4.64286,-6.07143 -4.64286,-6.07143 0,0 -4.82143,-2.85714 -5.17857,-3.57143 -0.35714,-0.71428 1.78571,-7.14285 0.35714,-8.21428 -1.42857,-1.07143 -3.03572,-2.67857 -5.08928,-4.91072 l 7.76785,-10.80357 -3.92857,-3.21428 c 0,0 -2.85714,-5.89286 -5.53571,-2.5 -2.67857,3.39285 -5,6.07143 -5,6.07143 l -0.89286,3.39285 0.26325,4.3787 c -3.17222,7.64119 -4.2172,10.22667 -8.78851,15.52474 l -5.93465,1.26269 -20.58186,21.71828 0,0.88389 -1.01015,4.16687 -2.02031,2.77792 -2.92034,8.59497 -2.22171,8.72766 -1.96429,8.75 -10,25.53571 -1.42857,12.67857 5.89286,13.75 -0.17858,18.21429 5.53572,5.89286 0.71428,8.75 7.67858,8.03571 c 0,0 -1.60715,6.60714 -0.89286,6.60714 0.71428,0 5.71428,-2.5 5.71428,-2.5 l 8.57143,5.17857 8.75,-0.17857 2.67857,14.10715 9.10715,-3.57143 8.57143,7.67857 6.07142,3.21428 2.73689,4.99297 9.62674,-0.25957 8.33376,-11.11168 3.283,-43.18402 31.56727,17.17259 2.78704,-6.00995 z"
       id="path3224-9"
       inkscape:connector-curvature="0"
       sodipodi:nodetypes="cscsccccccccccscccsccccscccsccsssccscsscccscccccccccccccccccccscccccccccccccc" />
  </g>
  <g
     inkscape:groupmode="layer"
     id="layer3"
     inkscape:label="rivers"
     style="display:inline"
     transform="translate(-47.109874,-373.9288)">
    <path
       style="fill:none;stroke:#787ad5;stroke-width:3;stroke-linecap:round;stroke-linejoin:miter;stroke-miterlimit:4;stroke-opacity:1;stroke-dasharray:none"
       d="m 126.16071,457.98718 c 0,0 2.14285,-1.60714 2.67857,-2.32143 0.53571,-0.71429 0.13709,-3.75291 1.42857,-4.82143 0.92181,-0.76267 2.85714,0.53572 3.57143,-0.35714 0.71428,-0.89286 0.29762,-4.76191 1.42857,-5.89286 1.13095,-1.13095 1.79505,-3.32132 3.39286,-3.39286 3.00868,-0.13472 5.71428,1.90477 8.57142,2.85715 2.85714,0.95238 2.5,-3.39286 3.57143,-4.10715 1.07143,-0.71428 2.57162,-5.59026 5.17857,-6.60714 3.09056,-1.20552 8.75,1.78572 9.82143,1.60714 1.07143,-0.17857 4.28572,-0.7738 6.60715,-2.32142 2.32143,-1.54762 5.97105,-2.03563 6.96428,-4.64286 1.23795,-3.24962 -2.30587,-7.04388 -1.25,-10.35714 0.88265,-2.76969 5.37178,-3.18483 6.42857,-5.89286 1.06386,-2.72614 -0.17498,-5.87375 -0.71428,-8.75 -0.36083,-1.92443 -2.33405,-3.61299 -1.96429,-5.53572 0.33384,-1.73596 2.5,-2.5 3.75,-3.75 1.25,-1.25 -0.17857,-2.5 -0.17857,-3.21428 0,-0.71429 -0.17857,-6.07143 -0.17857,-6.78572 0,-0.71428 -1.96428,-2.61905 1.07143,-3.92857 3.03571,-1.30952 6.63018,-1.7388 9.10714,-3.92857 1.91553,-1.69344 2.62209,-4.47706 3.21429,-6.96428 0.91504,-3.84318 0.83333,-7.85715 1.25,-11.78572"
       id="path3204-3"
       inkscape:connector-curvature="0"
       sodipodi:nodetypes="csssssssssssssssssssssc" />
    <path
       style="fill:none;stroke:#787ad5;stroke-width:3;stroke-linecap:round;stroke-linejoin:miter;stroke-miterlimit:4;stroke-opacity:1;stroke-dasharray:none"
       d="m 460.37702,639.71487 c 0.25254,-1.13642 0.50508,-4.54569 0.50508,-5.3033 0,-0.75762 -2.52539,-4.41942 -3.03046,-5.3033 -0.50508,-0.88389 -1.04562,-3.13262 -1.6415,-4.67196 -0.97362,-2.51516 -3.03045,-6.81853 -3.15672,-7.44988 -0.12627,-0.63134 -1.76777,-3.91434 -1.76777,-4.41941 0,-0.50508 -0.37881,-4.16688 -0.37881,-4.9245 0,-0.75761 -0.25253,-4.54568 -0.12627,-5.05076 0.12627,-0.50508 0.12386,-0.8397 0.12627,-1.26269 0.0545,-9.54929 -2.65165,-28.03173 -2.52538,-28.53681 0.12627,-0.50508 -2.90418,-2.56746 -3.15672,-10.10152 -0.25254,-7.53406 -0.5273,-15.0674 -0.75762,-22.60217 -0.0643,-2.10392 -0.0842,-4.20897 -0.12627,-6.31345 -0.0421,-2.10448 -11.11168,-8.96511 -11.11168,-9.84899 0,-0.88388 -1.51523,-5.55584 -1.64149,-6.81853 -0.12627,-1.26269 -1.38896,-4.41942 -1.38896,-4.92449 0,-0.50508 -1.80808,-5.72532 -3.03046,-8.46003 -2.09045,-4.67674 -7.19734,-12.87944 -7.32361,-13.51079 -0.12627,-0.63135 -5.93464,-18.43528 -5.93464,-18.43528 m 0.35486,-1.85033 c 0.47097,-2.45577 1.06895,-4.84249 1.87049,-7.21107 0.36702,-1.08455 1.19409,-1.82897 1.65201,-2.87837 0.5716,-1.30991 0.64057,-2.82124 0.92086,-4.22267 0.0578,-0.28891 0.10297,-0.46516 0.30134,-0.683 6.71528,-7.37445 13.99015,-14.29003 20.81623,-21.56203 1.55019,-1.65146 3.02737,-3.3671 4.00998,-5.4079 0.75063,-1.55899 0.10807,-3.46805 0.3788,-5.17703 0.4043,-2.55215 1.06348,-5.05765 1.6415,-7.57615 0.0133,-0.058 0.0842,-0.0842 0.12627,-0.12627"
       id="path3228"
       inkscape:connector-curvature="0"
       sodipodi:nodetypes="csssssssssssssssssccssssssssc" />
    <path
       style="fill:none;stroke:#787ad5;stroke-width:3;stroke-linecap:round;stroke-linejoin:miter;stroke-miterlimit:4;stroke-opacity:1;stroke-dasharray:none"
       d="m 663.16515,404.34932 c -1.26269,-0.75761 -0.50508,-4.29314 -5.3033,-2.27284 -4.79823,2.02031 -7.82869,4.29315 -10.35407,4.79823 -2.52538,0.50507 -8.00146,-0.58434 -11.86929,0.25253 -2.50637,0.5423 -5.3033,3.03046 -7.07107,3.03046 -1.76776,0 -3.70389,-3.7039 -10.6066,-3.03046 -6.90271,0.67344 -13.80542,1.34687 -20.70813,2.02031 -6.90271,0.67344 -16.66751,0 -17.67767,-0.25254 -1.01015,-0.25254 -6.06091,-2.27284 -7.3236,-4.29315 -1.26269,-2.0203 -4.79823,-5.05076 -7.07107,-7.57614 -2.27284,-2.52538 -6.50924,-7.31426 -9.59645,-11.11168 -1.13642,-1.39786 -1.26269,-4.04061 -3.283,-4.29315 -2.0203,-0.25254 -8.08122,0.25254 -10.35406,-0.50507 -2.27284,-0.75762 -15.40483,-4.54569 -16.92005,-5.80838 -1.51523,-1.26269 -10.35407,-5.55584 -10.85914,-6.56599 -0.50508,-1.01016 -6.06092,-6.06092 -6.06092,-6.06092"
       id="path3232"
       inkscape:connector-curvature="0"
       sodipodi:nodetypes="cssssssssssssssc" />
    <path
       style="fill:none;stroke:#787ad5;stroke-width:2.24797821;stroke-linecap:round;stroke-linejoin:miter;stroke-miterlimit:4;stroke-opacity:1;stroke-dasharray:none"
       d="m 604.64103,728.91877 c -0.56769,-0.94617 -3.40619,-7.19087 -5.29853,-8.89397 -1.89234,-1.7031 -3.78467,-4.73083 -3.78467,-5.677 0,-0.94617 0,-4.73084 0.37847,-5.67701 0.37846,-0.94616 1.89233,-5.677 1.51386,-7.56933 -0.37846,-1.89233 -0.75693,-4.35237 -1.51386,-4.73084 -0.75693,-0.37846 -4.35237,-3.9739 -4.92007,-4.73083 -0.5677,-0.75693 -3.02773,-4.73083 -2.2708,-5.48777 0.75693,-0.75693 0.37847,-4.73084 0.37847,-6.2447 0,-1.51387 0.5677,-5.86624 0.18923,-6.81241 -0.37847,-0.94616 -2.8385,-3.40619 -3.78467,-4.54159 -0.94617,-1.13541 -3.02773,-1.89234 -2.64926,-3.21697 0.37846,-1.32464 0.75692,-9.27244 0.37846,-10.02937 -0.37847,-0.75694 -1.32463,-8.13704 -2.08157,-9.65091 -0.75693,-1.51386 -2.20772,-5.74008 -2.64926,-5.86623 -0.44155,-0.12616 -1.03929,-0.0187 -1.32464,-0.37847 -1.23016,-1.55108 -2.01849,-3.40621 -3.02773,-5.1093 -1.00925,-1.7031 -2.46003,-3.21697 -2.8385,-4.35237 -0.37847,-1.1354 -2.08157,-2.2708 -2.8385,-3.78467 -0.75694,-1.51386 -2.46004,-4.73083 -3.21697,-5.48777 -0.75693,-0.75693 -2.08157,-3.21696 -3.02774,-3.78466 -0.94616,-0.56771 -2.64926,-1.32464 -2.64926,-1.32464"
       id="path3234"
       inkscape:connector-curvature="0"
       sodipodi:nodetypes="cssssssssssssssssssssc" />
    <path
       style="fill:none;stroke:#787ad5;stroke-width:3;stroke-linecap:round;stroke-linejoin:miter;stroke-miterlimit:4;stroke-opacity:1;stroke-dasharray:none"
       d="m 662.14286,497.36218 c -1.66667,0.47619 -3.56664,0.45388 -5,1.42857 -1.67643,1.13998 -2.61905,3.09524 -3.92857,4.64286 -1.30952,1.54762 -2.14286,1.42857 -2.85715,0 -0.71428,-1.42857 -4.28571,-10.35714 -5.71428,-10.71429 -1.42857,-0.35714 -11.19048,-0.47619 -11.78572,0.71429 -0.59524,1.19048 -1.35033,2.31366 -1.78571,3.57143 -0.64224,1.85537 0.53347,5.64161 -1.42857,5.71428 -3.2667,0.12099 -5.14216,-4.24001 -8.21429,-5.35714 -1.16806,-0.42475 -2.32939,1.02543 -3.57143,1.07143 -2.03637,0.0754 -4.08992,-0.23873 -6.07142,-0.71429 -1.03539,-0.24849 -2.38096,-0.47619 -2.85715,-1.42857 -1.20114,-2.40228 -0.33969,-5.5938 -1.78571,-7.85714 -1.46157,-2.28767 -4.28571,-3.33333 -6.42857,-5 -2.14286,-1.66667 -3.57143,-1.07143 -3.92857,0.71429 -0.35715,1.78571 -10e-6,8.45237 -2.85715,7.14285 -2.85714,-1.30952 -5.71429,-2.61905 -8.57143,-3.92857 -2.85714,-1.30952 -2.14285,-2.5 -2.14285,-3.92857 0,-1.42857 -3.21428,-8.33333 -5,-6.42857 -1.78572,1.90476 -3.57143,3.80952 -5.35715,5.71428 -1.78572,1.90476 -7.14285,0 -8.21428,-1.78571 -1.07143,-1.78571 -1.90477,-3.80953 -4.28572,-3.21429 -2.38095,0.59524 -4.70363,2.05674 -7.14285,1.78572 -1.25775,-0.13975 -1.66667,-1.90476 -2.5,-2.85714 -0.83333,-0.95238 1.42857,-1.07143 0.35714,-2.85715 -1.07143,-1.78571 -3.92857,-7.14286 -1.78571,-6.07143 2.14286,1.07143 5.40297,1.04913 6.42857,3.21429 0.68563,1.44745 -1.7933,2.83252 -3.21429,3.57143 -1.71938,0.89408 -4.2255,2.31208 -5.71428,1.07143 -1.65632,-1.38027 0.46349,-4.62265 -0.71429,-6.42857 -0.90579,-1.38888 -3.07297,-2.31948 -4.64286,-1.78572 -2.03583,0.69218 -2.15204,5.08814 -4.28572,4.82143 -3.54385,-0.44298 -5.88939,-4.07023 -8.57142,-6.42857 -0.80585,-0.70859 -1.33957,-1.70263 -1.78571,-2.67857 -0.51674,-1.13038 0.071,-3.08183 -1.07143,-3.57143 -1.28075,-0.54889 -2.59089,1.03841 -3.92857,1.42857 -1.52476,0.44472 -3.08696,1.39059 -4.64286,1.07143 -3.29231,-0.67534 -6.19048,-2.61905 -9.28572,-3.92857 -3.09524,-1.30952 -3.57142,-1.42857 -3.57142,0 0,1.42857 -3.63096,6.84523 -3.92858,8.21428 -0.29762,1.36905 -0.59523,2.7381 -0.89285,4.10715"
       id="path3236"
       inkscape:connector-curvature="0"
       sodipodi:nodetypes="csssssssssssssssssssssssssssssssssssssssc" />
    <path
       style="fill:none;stroke:#787ad5;stroke-width:3;stroke-linecap:round;stroke-linejoin:miter;stroke-miterlimit:4;stroke-opacity:1;stroke-dasharray:none;display:inline"
       d="m 525.08701,575.54068 c -0.23149,-1.34687 -0.99963,-2.50434 -1.23112,-3.85121 -0.23149,-1.34687 -0.75762,-2.17813 -0.75762,-2.68321 0,-0.50508 -0.85229,-1.02129 -0.78918,-1.9256 0.0267,-0.3831 -0.82072,-0.78918 -0.75761,-1.10486 0.0631,-0.31567 -2.31773,-9.14812 0.22096,-13.47922 1.12576,-1.92058 -6.25357,-0.13955 -7.19733,-1.23112 -1.14659,-1.32617 -0.53385,-9.00534 -0.43838,-14.09866 0.027,-1.4382 -2.75576,-1.03342 -3.64447,-2.16451 -0.66195,-0.84249 -1.17339,-2.10055 -0.75761,-3.08802 0.59161,-1.40508 1.90152,-2.06198 2.38363,-3.5083 0.47095,-1.41286 0.7964,-2.43955 0.73688,-3.92764 -0.0595,-1.48809 -1.05224,-3.31693 -1.77581,-4.06567 -1.27969,-1.32421 3.32058,-4.40268 2.70024,-4.72766 -3.76491,-1.97233 -3.47941,-1.08133 -5.50322,-1.79561 -2.02381,-0.71428 0.33455,-3.06728 0.51312,-3.96014 0.17857,-0.89285 0.75855,-1.97541 1.44838,-3.00414 0.43224,-0.64459 1.88839,-1.79871 1.66037,-2.56407 -0.30714,-1.03093 -1.76103,-1.30834 -3.26473,-1.00736 -1.0326,0.20668 -1.18226,-2.27675 -2.14286,-2.32143 -2.85224,-0.13267 1.33032,-2.52331 1.25,-3.75 -0.0963,-1.47059 -0.80925,-1.75332 -1.78571,-2.85714 -0.39439,-0.44583 -1.23121,-0.82551 -1.4818,-1.36544 -0.58859,-1.26816 0.25095,-3.90172 -0.0108,-3.9818 -1.21443,-0.37149 1.1095,-0.96064 2.01659,-2.66774 0.42726,-0.80407 -1.30722,-3.15869 -2.66681,-5.19931 -1.83938,-2.76074 -0.69472,-5.11814 -0.71428,-7.32143 -0.009,-0.96894 -1.42857,-1.30952 -2.14286,-1.96428 -0.71429,-0.65476 -4.45983,-4.26241 -5.17857,-4.82143 -1.60714,-1.25 1.72619,-8.69047 0.17857,-10.71428 -1.54762,-2.02381 -2.20238,-3.69048 -3.75,-5.71429 -1.54762,-2.02381 -4.28572,-2.67857 -3.21429,-4.10715 1.07143,-1.42857 3.21429,-4.99999 3.39286,-5.71428 0.17857,-0.71429 1.60714,-3.92857 0.53572,-3.92857 -1.07143,0 -4.47317,-2.6856 -6.25,-0.17857 -1.46786,2.07109 -1.80853,1.02967 -5.53572,5.17857 -2.05355,2.28588 -3.92857,2.32143 -4.10714,1.60714 -0.17857,-0.71428 -2.79766,-4.31468 -4.64286,-6.07143 -1.51868,-1.44589 -5.53572,-3.75 -5.89286,-4.46429 -0.35714,-0.71428 2.5,-6.24999 1.07143,-7.32142 -1.42857,-1.07143 -4.28572,-2.85714 -4.82143,-4.28571 -0.53571,-1.42858 -3.75,-5.53571 -4.10714,-6.78571 -0.35714,-1.25 -5.89286,1.96428 -5.89286,1.96428"
       id="path3224-7"
       inkscape:connector-curvature="0"
       sodipodi:nodetypes="csssssssssssssssssssssssssssssssssssssssssc" />
    <path
       style="fill:none;stroke:#787ad5;stroke-width:3;stroke-linecap:round;stroke-linejoin:miter;stroke-miterlimit:4;stroke-opacity:1;stroke-dasharray:none"
       d="m 47.5,537.00504 c 2.619048,-2.02381 6.173317,-3.22188 7.857143,-6.07143 1.653049,-2.79747 0.450084,-6.54432 1.428571,-9.64286 0.487599,-1.54406 1.904762,-2.61905 2.857143,-3.92857 0.952381,-1.30952 2.142857,-1.78571 3.928572,-2.85714 1.785714,-1.07143 8.214285,-5.35714 8.214285,-7.5 0,-2.14286 -0.833333,-0.71429 0.714286,-4.28572 1.547619,-3.57143 2.866723,-7.25082 4.642857,-10.71428 0.619383,-1.2078 1.616646,-2.18371 2.5,-3.21429 1.261204,-1.4714 2.404723,-3.0884 3.928572,-4.28571 1.846265,-1.45064 4.047619,-2.38095 6.071428,-3.57143 2.023809,-1.19048 3.571429,-2.85714 6.785715,-3.92857 3.214285,-1.07143 10.357148,-3.45238 12.142858,-5.35714 1.78571,-1.90476 3.33077,-4.06786 5.35714,-5.71429 1.8223,-1.48062 3.99968,-2.46649 6.07143,-3.57143 1.50397,-0.80212 3.15726,-1.30721 4.64286,-2.14286 0.44021,-0.24762 0.71429,-0.71428 1.07143,-1.07142"
       id="path3278"
       inkscape:connector-curvature="0"
       sodipodi:nodetypes="csssssssssssssssc" />
    <path
       style="fill:none;stroke:#787ad5;stroke-width:3;stroke-linecap:round;stroke-linejoin:miter;stroke-miterlimit:4;stroke-opacity:1;stroke-dasharray:none"
       d="m 46.25,700.21933 c 1.785714,-0.35715 7.740251,-0.6414 11.25,-2.14286 0.941549,-0.40279 0.357143,-1.42857 2.5,-1.78572 2.142857,-0.35714 3.214286,-2.14285 3.214286,-4.28571 0,-2.14286 -0.357143,-5.71429 1.071428,-6.78572 1.428572,-1.07142 2.857143,-5 5.714286,-7.14285 2.857143,-2.14286 5.714286,-5.71429 7.5,-5.71429 1.785714,0 3.214286,-2.14286 6.071429,-2.5 2.857143,-0.35714 5.833333,-4.88095 6.428571,-3.21428 0.595238,1.66667 1.190476,3.33333 1.785714,5 0.595238,1.66667 10.714286,1.07142 12.499996,0 1.78572,-1.07143 2.5,-1.42858 2.85715,-2.85715 0.35714,-1.42857 -0.71429,-4.28571 0.71428,-6.42857 1.42857,-2.14286 2.14286,-3.92857 3.57143,-5 1.42857,-1.07143 4.64286,-3.21428 6.07143,-3.57143 1.42857,-0.35714 2.5,-2.5 6.42857,-1.42857 3.92857,1.07143 2.5,2.14286 4.64286,3.21429 2.14286,1.07143 6.78571,2.5 8.92857,1.78571 2.14286,-0.71428 3.92857,-2.5 6.07143,-5 2.14286,-2.5 2.85714,-4.64286 4.64286,-5.71428 1.78571,-1.07143 2.14285,-4.28572 5.71428,-3.21429 3.57143,1.07143 2.73809,2.14286 5,1.07143 2.26191,-1.07143 4.53066,-2.12852 6.78572,-3.21429 0.95938,-0.46192 1.90476,-0.95238 2.85714,-1.42857 0.95238,-0.47619 2.5,0 4.28571,1.07143 1.78572,1.07143 3.45238,4.76191 5,2.14286 1.54762,-2.61905 3.09524,-5.2381 4.64286,-7.85715 1.54762,-2.61905 3.21429,4.28572 5.35714,5.35715 2.14286,1.07143 1.07143,1.42857 5,2.85714 3.92857,1.42857 7.85715,2.85714 10.35715,2.5 2.5,-0.35714 5,-0.71429 7.5,-1.07143 2.5,-0.35714 3.21428,-3.57143 6.42857,-5 3.21428,-1.42857 9.40476,-6.19047 8.57143,-7.85714 -0.83333,-1.66667 -1.66667,-3.33333 -2.5,-5 -0.83333,-1.66667 6.42857,-3.92857 8.21428,-2.85714 1.78572,1.07142 0.71429,2.5 4.28572,3.21428 3.57142,0.71429 14.52381,2.5 15.35714,-0.35714 0.83333,-2.85714 1.74258,-5.69323 2.5,-8.57143 0.43378,-1.64838 -0.40499,-4.14822 1.07143,-5 2.37394,-1.36958 7.3476,2.2429 8.21428,-0.35714 0.96421,-2.89264 -3.80952,-4.76191 -5.71428,-7.14286 -1.90476,-2.38095 -1.07143,-2.85714 2.14285,-3.21429 3.21429,-0.35714 4.40477,0.95239 4.28572,-0.71428 -0.11905,-1.66667 -0.23809,-3.33333 -0.35714,-5 -0.11905,-1.66667 11.42857,-1.07143 12.85714,-1.07143 1.42857,0 6.42857,-0.71429 7.85714,-1.42857 1.42857,-0.71429 2.92311,-1.9965 3.21429,-3.57143 0.60291,-3.26102 -2.85715,-7.85714 -3.57143,-9.28571 -0.71429,-1.42858 -7.85714,-9.28572 -7.85714,-12.14286 0,-2.85714 0,-5 -0.71429,-7.14286 -0.71429,-2.14286 -3.21429,-3.92857 -4.28571,-7.5 -1.07143,-3.57143 -1.42858,-5.71428 -1.78572,-8.92857 -0.35714,-3.21429 -1.42857,-7.85714 -2.14286,-12.14286 C 266.07143,529.50504 265,525.93361 265,523.43361 c 0,-2.5 -2.5,-5.35714 0.35714,-7.85714 2.85715,-2.5 2.85715,-5.71429 5,-9.28572 2.14286,-3.57143 4.63292,-12.27147 6.42857,-18.57143 1.03706,-3.63848 2.5,-9.28571 2.5,-11.07142 0,-1.78572 -1.78571,-8.92858 0,-9.28572 1.78572,-0.35714 4.64286,-1.42857 6.78572,-2.5 2.14286,-1.07143 5,-1.42857 4.28571,-3.21428 -0.71428,-1.78572 -4.40476,-10e-6 -2.85714,-3.92858 1.54762,-3.92857 3.09524,-7.85714 4.64286,-11.78571 1.54762,-3.92857 4.28571,-5 5.71428,-6.07143 1.42857,-1.07143 5.71429,-4.64286 7.14286,-5.35714 1.42857,-0.71429 2.5,-4.64286 3.57143,-3.21429 1.07143,1.42857 1.51263,4.82716 3.21428,4.28572 2.61167,-0.83099 3.09524,-4.52381 4.64286,-6.78572 1.54762,-2.26191 8.92857,-6.07143 8.92857,-7.5 0,-1.42857 -1.42857,-5.71428 -0.35714,-7.14285 1.07143,-1.42858 -0.35714,-8.21429 1.42857,-9.28572 1.78571,-1.07143 3.57143,-2.14285 5.35714,-3.21428 1.78571,-1.07143 1.07143,5.35714 3.92858,4.64285 2.85714,-0.71428 7.14285,-5.35714 8.21428,-6.78571 C 345,398.07647 360,378.79075 360.71429,377.36218 c 0.71428,-1.42857 17.14285,-17.85714 17.14285,-17.85714"
       id="path3280"
       inkscape:connector-curvature="0"
       sodipodi:nodetypes="cssssssssssssssssssssssssssssssssssssssssssssssssssssssssssssssssssssssssssc" />
    <path
       style="fill:none;stroke:#787ad5;stroke-width:3;stroke-linecap:round;stroke-linejoin:miter;stroke-miterlimit:4;stroke-opacity:1;stroke-dasharray:none"
       d="m 99.285714,728.07647 c 0.714285,-1.66667 1.428566,-3.33333 2.142856,-5 0.71429,-1.66667 9.64286,-6.42857 11.07143,-7.5 1.42857,-1.07143 2.2619,-10.83333 5.35714,-11.07143 3.09524,-0.2381 6.63978,0.90935 9.28572,-0.71429 3.12578,-1.91809 4.28571,-5.95238 6.42857,-8.92857 2.14286,-2.97619 5,-6.42857 6.42857,-6.78571 1.42857,-0.35715 8.22054,-1.36353 12.14286,-0.35715 2.27432,0.58354 4.64285,2.14286 6.07143,3.57143 1.42857,1.42857 3.57143,5.95238 5,5 1.42857,-0.95238 2.85714,-1.90476 4.28571,-2.85714 1.42857,-0.95238 0.35714,0.35714 2.5,1.42857 2.14286,1.07143 1.42857,1.07143 3.57143,-0.35714 2.14286,-1.42857 4.28571,-2.85714 5,-5 0.71428,-2.14286 0.71428,-3.57143 2.5,-5.71429 1.78571,-2.14285 10.71428,-7.85714 12.5,-10 1.78571,-2.14285 -4.4234,-3.00433 -4.64286,-5.35714 -0.1536,-1.64671 1.07143,-3.21429 2.5,-4.28571 1.42857,-1.07143 3.80953,-3.33334 4.64286,-4.28572 0.83333,-0.95238 1.66667,-1.90476 2.5,-2.85714 0.83333,-0.95238 2.14286,-2.5 2.85714,-3.92857 0.71429,-1.42857 2.5,-6.78572 2.5,-6.78572"
       id="path3282"
       inkscape:connector-curvature="0"
       sodipodi:nodetypes="cssssssssssssssssssssc" />
    <path
       style="fill:none;stroke:#787ad5;stroke-width:3;stroke-linecap:round;stroke-linejoin:miter;stroke-miterlimit:4;stroke-opacity:1;stroke-dasharray:none"
       d="m 237.14286,728.79075 c 0,0 2.14285,-5.35714 2.85714,-7.14285 0.71429,-1.78572 3.92857,-3.92858 4.64286,-5.71429 0.71428,-1.78571 1.42857,-2.85714 1.78571,-4.64286 0.35714,-1.78571 -0.71428,-2.85714 1.78572,-4.28571 2.5,-1.42857 2.14285,-1.42857 3.21428,-3.57143 1.07143,-2.14286 2.14286,-5.71429 4.28572,-7.14286 2.14285,-1.42857 5.71428,-4.64285 7.85714,-5.71428 2.14286,-1.07143 6.78572,-4.52382 6.07143,-6.78572 -0.71429,-2.2619 -2.35761,-4.42345 -2.14286,-6.78571 0.0921,-1.01297 1.90476,-0.71429 2.85714,-1.07143 0.95238,-0.35714 1.42857,-7.14286 1.07143,-8.92857 -0.35714,-1.78572 -1.07143,-5 -0.71428,-6.78572 0.35714,-1.78571 0,-5.35714 2.5,-6.42857 2.5,-1.07143 7.14285,-3.57143 8.21428,-5 1.07143,-1.42857 1.78572,-3.92857 2.85714,-6.78571 1.07143,-2.85714 4.28572,-8.21429 5,-10.71429 0.71429,-2.5 0.71429,-6.07143 0.35715,-8.92857 -0.35715,-2.85714 -1.78572,-6.07143 0.35714,-6.78571 2.14286,-0.71429 4.28571,0.35714 5,-1.42857 0.71429,-1.78572 1.07143,-7.14286 0,-9.64286 -1.07143,-2.5 -1.78571,-7.85714 -2.5,-9.28572 -0.71429,-1.42857 -5.48713,-4.32903 -5.48713,-4.32903"
       id="path3284"
       inkscape:connector-curvature="0"
       sodipodi:nodetypes="csssssssssssssssssssssc" />
    <path
       style="fill:none;stroke:#787ad5;stroke-width:3;stroke-linecap:round;stroke-linejoin:miter;stroke-miterlimit:4;stroke-opacity:1;stroke-dasharray:none"
       d="m 430,730.57647 c 0,0 -5.71429,-3.92857 -7.14286,-4.28572 -1.42857,-0.35714 -4.28571,-0.71428 -5,-2.14285 -0.71428,-1.42858 -1.07143,-1.78572 -1.42857,-3.92858 -0.35714,-2.14285 -0.75641,-6.8169 -2.5,-9.64285 -0.6645,-1.07699 2.14286,-3.92857 -2.85714,-2.5 -5,1.42857 -6.78571,2.2619 -7.5,3.21428 -0.71429,0.95238 -1.42857,1.90477 -2.14286,2.85715 -0.71429,0.95238 -3.92857,-3.92858 -3.92857,-5.71429 0,-1.78571 -0.71429,-2.85714 -2.5,-4.64286 -1.78571,-1.78571 -10.47376,-9.99998 -13.39286,-9.99999 -3.75,-10e-6 -8.75,-0.35715 -8.75,-0.35715"
       id="path3286"
       inkscape:connector-curvature="0"
       sodipodi:nodetypes="cssssssssssc" />
    <path
       style="fill:none;stroke:#787ad5;stroke-width:3;stroke-linecap:round;stroke-linejoin:miter;stroke-miterlimit:4;stroke-opacity:1;stroke-dasharray:none"
       d="m 370.71429,728.79075 c 0,0 1.78571,-1.78571 2.5,-6.07143 0.71428,-4.28571 0.35714,-8.21428 0.71428,-10.35714 0.35714,-2.14286 0,-5.71428 -0.35714,-9.28571 -0.35714,-3.57143 -1.54762,-5.17858 -1.42857,-6.78572 0.11905,-1.60714 0.51553,-3.21768 0.35714,-4.82142 -0.7968,-8.06758 -5.4237,-7.34641 -5.35714,-11.60715 0.0125,-0.7985 -1.42857,0 1.07143,-2.14286 2.5,-2.14285 6.3107,-2.51472 6.78571,-5.35714 0.32658,-1.95425 0,-4.28571 -3.21429,-5 -3.21428,-0.71428 -6.76002,-0.52622 -9.28571,-2.5 -0.96575,-0.75471 -1.78571,-0.71428 -1.78571,-3.21428 0,-2.5 0.71428,-8.21429 0.71428,-10.35715 0,-2.14285 -0.95238,-9.28572 -2.85714,-10 -1.90476,-0.71428 -4.6177,-0.42943 -5.71429,-2.14285 -1.21929,-1.90514 0.60151,-4.60526 0,-6.78572 -0.40542,-1.46966 -1.90476,-2.38095 -2.85714,-3.57143 -0.95238,-1.19048 -1.90476,-2.38095 -2.85714,-3.57143 -0.95238,-1.19048 -1.07143,-6.07142 -2.14286,-7.85714 -1.07143,-1.78571 0,-2.14286 -2.5,-2.85714 -2.5,-0.71429 -7.49295,-1.81355 -11.07143,-3.21429 -2.23096,-0.87328 -5,-0.71428 -6.42857,-3.21428 -1.42857,-2.5 -4.14855,-5.17766 -7.14286,-6.07143 -0.9197,-0.27452 0.71429,-1.78572 -2.85714,0.35714 -3.57143,2.14286 -7.85714,3.92857 -7.85714,2.14286 0,-1.78572 5.71428,-0.35714 0.35714,-8.21429 -5.35714,-7.85714 -3.09524,-7.61904 -5.71429,-7.85714 -2.61905,-0.2381 -5.24754,-0.3886 -7.85714,-0.71429 -2.83701,-0.35407 -4.38682,-0.88264 -7.21157,-1.32396"
       id="path3292"
       inkscape:connector-curvature="0"
       sodipodi:nodetypes="csssssssssssssssssssssssssssc" />
    <path
       style="fill:none;stroke:#787ad5;stroke-width:3;stroke-linecap:round;stroke-linejoin:miter;stroke-miterlimit:4;stroke-opacity:1;stroke-dasharray:none"
       d="m 46.467017,400.81379 c 2.69374,-4.71404 4.564874,-10.00525 8.08122,-14.14213 2.358838,-2.7751 6.060915,-4.04061 9.091373,-6.06092 3.030458,-2.02031 4.040611,-2.02031 8.081221,-7.07107 4.04061,-5.05076 6.060915,-7.40778 8.08122,-10.10152 2.020305,-2.69374 4.04061,-5.38748 6.060915,-8.08122"
       id="path3294"
       inkscape:connector-curvature="0"
       sodipodi:nodetypes="cssssc" />
    <path
       style="fill:none;stroke:#787ad5;stroke-width:3;stroke-linecap:round;stroke-linejoin:miter;stroke-miterlimit:4;stroke-opacity:1;stroke-dasharray:none"
       d="m 452.2958,416.47115 c -1.26269,-0.25253 -5.47452,-0.3806 -7.07107,-2.27284 -1.15155,-1.36481 -0.75761,-2.27284 -0.75761,-5.3033 0,-3.03046 -0.25254,-8.24958 1.01015,-8.33376 1.26269,-0.0842 2.57127,0.0951 3.78808,-0.25254 1.19507,-0.34145 3.28299,-0.52487 3.28299,-1.76776 0,-2.00799 -1.33926,-4.54684 -3.28299,-5.05077 -1.55678,-0.40361 -2.07934,2.6004 -3.53554,3.283 -1.38042,0.64707 -3.03046,0.33672 -4.54569,0.50508 -1.51523,0.16836 -2.52538,-4.04061 -1.51522,-4.79823 1.01015,-0.75761 2.27284,-1.26269 2.52538,-3.78807 0.25254,-2.52538 1.1785,-6.65017 -0.75762,-6.56599 -1.93612,0.0842 -3.87225,0.16836 -5.80837,0.25254 -1.93612,0.0842 -5.80838,-2.02031 -7.07107,-3.03046 -1.26269,-1.01015 -3.78807,0 -2.77792,-4.29315 1.01015,-4.29315 3.28299,-8.58629 1.01015,-7.82868 -2.27284,0.75761 -4.54569,1.51523 -6.81853,2.27284 -2.27284,0.75761 -0.25254,-1.51523 -1.26269,-2.52538 -1.01015,-1.01015 -2.77792,-3.78807 -4.04061,-5.05076 -1.26269,-1.26269 -0.42089,-0.92598 -2.0203,-2.27285 -1.59941,-1.34687 -3.19882,-2.69374 -4.79823,-4.04061"
       id="path3332"
       inkscape:connector-curvature="0"
       sodipodi:nodetypes="csssssssssssssssssssc" />
    <text
       xml:space="preserve"
       style="font-size:12px;font-style:oblique;font-variant:normal;font-weight:normal;font-stretch:normal;text-align:start;line-height:125%;letter-spacing:0px;word-spacing:0px;writing-mode:lr-tb;text-anchor:start;fill:#343663;fill-opacity:1;stroke:none;display:inline;font-family:DejaVu Sans;-inkscape-font-specification:DejaVu Sans Oblique"
       x="-145.57585"
       y="521.14771"
       id="text4195"
       sodipodi:linespacing="125%"
       transform="matrix(0.5581957,-0.82970932,0.82970932,0.5581957,0,0)"><tspan
         sodipodi:role="line"
         id="tspan4197"
         x="-145.57585"
         y="521.14771">Xingu</tspan></text>
  </g>
  <g
     inkscape:groupmode="layer"
     id="layer4"
     inkscape:label="towns"
     style="display:inline"
     transform="translate(-47.109874,-373.9288)">
    <text
       xml:space="preserve"
       style="font-size:12px;font-style:oblique;font-variant:normal;font-weight:normal;font-stretch:normal;text-align:start;line-height:125%;letter-spacing:0px;word-spacing:0px;writing-mode:lr-tb;text-anchor:start;fill:#343663;fill-opacity:1;stroke:none;font-family:DejaVu Sans;-inkscape-font-specification:DejaVu Sans Oblique"
       id="text4203"
       sodipodi:linespacing="125%"
       transform="translate(-3.6580859,-4.1631622)"><textPath
         xlink:href="#path3282"
         id="textPath4211"><tspan
   id="tspan4205"
   style="font-size:12px;font-style:oblique;font-variant:normal;font-weight:normal;font-stretch:normal;text-align:start;line-height:125%;writing-mode:lr-tb;text-anchor:start;fill:#343663;fill-opacity:1;font-family:DejaVu Sans;-inkscape-font-specification:DejaVu Sans Oblique"
   dx="0 0 0 0 0 0 0 0 0 0 0 0 0 1.1327045 -2.0203052 4.2837058e-08 -1.0460472 -1.9336478 -0.50507623">             Ronuro</tspan></textPath></text>
    <text
       xml:space="preserve"
       style="font-size:12px;font-style:oblique;font-variant:normal;font-weight:normal;font-stretch:normal;text-align:start;line-height:125%;letter-spacing:0px;word-spacing:0px;writing-mode:lr-tb;text-anchor:start;fill:#343663;fill-opacity:1;stroke:none;font-family:DejaVu Sans;-inkscape-font-specification:DejaVu Sans Oblique"
       id="text4207"
       sodipodi:linespacing="125%"
       transform="translate(-3.0050763,-5.2092095)"><textPath
         xlink:href="#path3280"
         id="textPath4214"><tspan
   id="tspan4209"
   style="font-size:12px;font-style:oblique;font-variant:normal;font-weight:normal;font-stretch:normal;text-align:start;line-height:125%;writing-mode:lr-tb;text-anchor:start;fill:#343663;fill-opacity:1;font-family:DejaVu Sans;-inkscape-font-specification:DejaVu Sans Oblique"
   dx="14.647213 -1.5152289 0 0 3.5355337 -6.0609155 -1.0101525 -1.0101523 3.5355337 10.101526 0 -0.50507623 -1.0101526 -0.50507635 -2.5253811 -0.50507623"> Von Den Steinen</tspan></textPath></text>
    <text
       xml:space="preserve"
       style="font-size:12px;font-style:normal;font-variant:normal;font-weight:normal;font-stretch:normal;text-align:start;line-height:125%;letter-spacing:0px;word-spacing:0px;writing-mode:lr-tb;text-anchor:start;fill:#000000;fill-opacity:1;stroke:none;display:inline;font-family:DejaVu Sans;-inkscape-font-specification:DejaVu Sans"
       x="117.23594"
       y="562.90881"
       id="text4179"
       sodipodi:linespacing="125%"><tspan
         sodipodi:role="line"
         id="tspan4181"
         x="117.23594"
         y="562.90881">Boa Esperança (Trumai)</tspan></text>
    <text
       xml:space="preserve"
       style="font-size:12px;font-style:normal;font-variant:normal;font-weight:normal;font-stretch:normal;text-align:start;line-height:125%;letter-spacing:0px;word-spacing:0px;writing-mode:lr-tb;text-anchor:start;fill:#000000;fill-opacity:1;stroke:none;display:inline;font-family:DejaVu Sans;-inkscape-font-specification:DejaVu Sans"
       x="148.6395"
       y="655.41931"
       id="text4183"
       sodipodi:linespacing="125%"><tspan
         sodipodi:role="line"
         id="tspan4185"
         x="148.6395"
         y="655.41931">Steinen (Trumai)</tspan></text>
    <text
       xml:space="preserve"
       style="font-size:12px;font-style:normal;font-variant:normal;font-weight:normal;font-stretch:normal;text-align:start;line-height:125%;letter-spacing:0px;word-spacing:0px;writing-mode:lr-tb;text-anchor:start;fill:#000000;fill-opacity:1;stroke:none;display:inline;font-family:DejaVu Sans;-inkscape-font-specification:DejaVu Sans"
       x="290.77402"
       y="576.93457"
       id="text4187"
       sodipodi:linespacing="125%"><tspan
         sodipodi:role="line"
         id="tspan4189"
         x="290.77402"
         y="576.93457">Três Lagoas (Trumai)</tspan></text>
    <text
       xml:space="preserve"
       style="font-size:12px;font-style:normal;font-variant:normal;font-weight:normal;font-stretch:normal;text-align:start;line-height:125%;letter-spacing:0px;word-spacing:0px;writing-mode:lr-tb;text-anchor:start;fill:#000000;fill-opacity:1;stroke:none;display:inline;font-family:DejaVu Sans;-inkscape-font-specification:DejaVu Sans"
       x="276.5137"
       y="682.22296"
       id="text4191"
       sodipodi:linespacing="125%"><tspan
         sodipodi:role="line"
         id="tspan4193"
         x="276.5137"
         y="682.22296">CTL Leonardo</tspan></text>
    <text
       xml:space="preserve"
       style="font-size:13px;font-style:normal;font-variant:normal;font-weight:bold;font-stretch:normal;text-align:start;line-height:125%;letter-spacing:0px;word-spacing:0px;writing-mode:lr-tb;text-anchor:start;fill:#000000;fill-opacity:1;stroke:none;font-family:DejaVu Sans;-inkscape-font-specification:DejaVu Sans Bold"
       x="145.71451"
       y="462.43311"
       id="text4256"
       sodipodi:linespacing="125%"><tspan
         sodipodi:role="line"
         x="145.71451"
         y="462.43311"
         id="tspan4260">Xingu </tspan><tspan
         sodipodi:role="line"
         x="145.71451"
         y="479.93311"
         id="tspan5741">Indigenous </tspan><tspan
         sodipodi:role="line"
         x="145.71451"
         y="497.43311"
         id="tspan5743">Land</tspan></text>
    <path
       sodipodi:type="arc"
       style="fill:#000000;fill-opacity:1;stroke:none"
       id="path4262"
       sodipodi:cx="256.8313"
       sodipodi:cy="516.22369"
       sodipodi:rx="5.8083773"
       sodipodi:ry="5.8083773"
       d="m 262.05507,513.68412 c 1.40257,2.88501 0.20081,6.36078 -2.6842,7.76335 -2.88501,1.40257 -6.36078,0.20081 -7.76335,-2.68421 -1.40256,-2.88501 -0.2008,-6.36078 2.68421,-7.76334 2.88383,-1.40199 6.35821,-0.20184 7.76187,2.68118"
       sodipodi:start="5.830674"
       sodipodi:end="12.113281"
       sodipodi:open="true" />
    <path
       transform="translate(85.610412,172.48357)"
       sodipodi:type="arc"
       style="fill:#000000;fill-opacity:1;stroke:none;display:inline"
       id="path4262-1"
       sodipodi:cx="256.8313"
       sodipodi:cy="516.22369"
       sodipodi:rx="5.8083773"
       sodipodi:ry="5.8083773"
       d="m 262.05507,513.68412 c 1.40257,2.88501 0.20081,6.36078 -2.6842,7.76335 -2.88501,1.40257 -6.36078,0.20081 -7.76335,-2.68421 -1.40256,-2.88501 -0.2008,-6.36078 2.68421,-7.76334 2.88383,-1.40199 6.35821,-0.20184 7.76187,2.68118"
       sodipodi:start="5.830674"
       sodipodi:end="12.113281"
       sodipodi:open="true" />
    <path
       transform="matrix(0.55431653,0,0,0.55431653,144.69869,292.56398)"
       sodipodi:type="arc"
       style="fill:#000000;fill-opacity:1;stroke:none;display:inline"
       id="path4262-0"
       sodipodi:cx="256.8313"
       sodipodi:cy="516.22369"
       sodipodi:rx="5.8083773"
       sodipodi:ry="5.8083773"
       d="m 262.05507,513.68412 c 1.40257,2.88501 0.20081,6.36078 -2.6842,7.76335 -2.88501,1.40257 -6.36078,0.20081 -7.76335,-2.68421 -1.40256,-2.88501 -0.2008,-6.36078 2.68421,-7.76334 2.88383,-1.40199 6.35821,-0.20184 7.76187,2.68118"
       sodipodi:start="5.830674"
       sodipodi:end="12.113281"
       sodipodi:open="true" />
    <path
       transform="matrix(0.55431653,0,0,0.55431653,124.16734,273.6242)"
       sodipodi:type="arc"
       style="fill:#000000;fill-opacity:1;stroke:none;display:inline"
       id="path4262-0-9"
       sodipodi:cx="256.8313"
       sodipodi:cy="516.22369"
       sodipodi:rx="5.8083773"
       sodipodi:ry="5.8083773"
       d="m 262.05507,513.68412 c 1.40257,2.88501 0.20081,6.36078 -2.6842,7.76335 -2.88501,1.40257 -6.36078,0.20081 -7.76335,-2.68421 -1.40256,-2.88501 -0.2008,-6.36078 2.68421,-7.76334 2.88383,-1.40199 6.35821,-0.20184 7.76187,2.68118"
       sodipodi:start="5.830674"
       sodipodi:end="12.113281"
       sodipodi:open="true" />
    <path
       transform="matrix(0.55431653,0,0,0.55431653,3.527023,356.38942)"
       sodipodi:type="arc"
       style="fill:#000000;fill-opacity:1;stroke:none;display:inline"
       id="path4262-0-3"
       sodipodi:cx="256.8313"
       sodipodi:cy="516.22369"
       sodipodi:rx="5.8083773"
       sodipodi:ry="5.8083773"
       d="m 262.05507,513.68412 c 1.40257,2.88501 0.20081,6.36078 -2.6842,7.76335 -2.88501,1.40257 -6.36078,0.20081 -7.76335,-2.68421 -1.40256,-2.88501 -0.2008,-6.36078 2.68421,-7.76334 2.88383,-1.40199 6.35821,-0.20184 7.76187,2.68118"
       sodipodi:start="5.830674"
       sodipodi:end="12.113281"
       sodipodi:open="true" />
    <text
       xml:space="preserve"
       style="font-size:12px;font-style:normal;font-variant:normal;font-weight:normal;font-stretch:normal;text-align:start;line-height:125%;letter-spacing:0px;word-spacing:0px;writing-mode:lr-tb;text-anchor:start;fill:#000000;fill-opacity:1;stroke:none;display:inline;font-family:DejaVu Sans;-inkscape-font-specification:DejaVu Sans"
       x="182.3996"
       y="519.62183"
       id="text4175"
       sodipodi:linespacing="125%"><tspan
         sodipodi:role="line"
         id="tspan4177"
         x="182.3996"
         y="519.62183">CTL Pavuru</tspan></text>
  </g>
  <g
     inkscape:groupmode="layer"
     id="layer9"
     inkscape:label="inset">
    <rect
       style="fill:#ffffff;fill-opacity:1;stroke:#656464;stroke-width:1.77088404;stroke-linecap:round;stroke-miterlimit:4;stroke-opacity:1;stroke-dasharray:none;stroke-dashoffset:0;display:inline;filter:url(#filter4719)"
       id="rect4405"
       width="154.94948"
       height="150.00761"
       x="461.44165"
       y="201.50018"
       ry="0"
       transform="matrix(0.74932604,0,0,0.74932604,154.37803,90.354788)" />
    <rect
       style="fill:#5a144f;fill-opacity:0.56078384;stroke:#656464;stroke-width:0.01128274;stroke-linecap:round;stroke-miterlimit:4;stroke-opacity:1;stroke-dasharray:none;stroke-dashoffset:0;display:inline"
       id="rect4257-9"
       width="4.1259079"
       height="3.0555036"
       x="592.04449"
       y="312.03476" />
    <path
       style="fill:none;stroke:#656464;stroke-width:0.74932605;stroke-linecap:butt;stroke-linejoin:miter;stroke-miterlimit:4;stroke-opacity:1;stroke-dasharray:none;display:inline"
       d="m 540.51308,291.9209 -0.76911,-0.83315 -0.6744,-0.0937 -0.59481,0.0983 c 0,0 -0.37466,-0.0937 -0.26226,-0.22481 0.11239,-0.13114 0.29973,-0.73063 0.41212,-0.84304 0.1124,-0.1124 1.44253,-2.56657 1.44253,-2.56657 0,0 -0.74932,-0.26227 -0.82433,-0.29974 -0.0749,-0.0375 -1.23639,-0.6557 -1.23639,-0.6557 0,0 -0.5246,-0.1124 -0.61827,-0.0562 -0.0937,0.0562 -0.43086,0.39342 -0.50579,0.46835 -0.075,0.0749 -0.7494,0.0749 -0.82434,-0.0375 -0.0749,-0.11241 -0.50579,-0.39342 -0.63692,-0.35595 -0.13114,0.0375 -0.5058,0.58076 -0.5058,0.58076 0,0 -0.62606,-0.031 -0.89927,0.28101 -0.29223,0.33362 -1.47999,0.13113 -1.62985,0.14987 -0.14994,0.0187 -0.76814,-0.0749 -0.82434,-0.14987 -0.0562,-0.0749 -0.13113,-0.14987 -0.1686,-0.26228 -0.0375,-0.1124 -0.0562,-0.86177 -0.14986,-0.95544 -0.0937,-0.0937 -0.1686,-0.13114 -0.44967,-0.16861 -0.281,-0.0375 -0.46833,-0.28101 -0.46833,-0.28101 l -0.1124,-0.281 -0.1686,-0.58076 -0.73059,-0.73063 c 0,0 -0.78687,-0.20608 -0.88053,-0.28101 -0.0937,-0.0749 -0.6182,-0.37469 -0.6182,-0.37469 0,0 -0.0187,-0.33721 -0.0187,-0.48708 0,-0.14988 -0.16867,-0.54329 -0.24361,-0.61823 -0.0749,-0.0749 -0.48706,-0.31848 -0.56199,-0.37468 -0.0749,-0.0562 -0.69313,-0.33721 -0.69313,-0.33721 l -0.88053,-0.43089 c 0,0 -0.43086,0.0187 -0.6182,0.16861 -0.1874,0.14987 -0.2436,0.18734 -0.356,0.18734 -0.1124,0 -0.58073,0.0937 -0.58073,0.0937 l 0.80553,0.44962 0.61827,0.41215 c 0,0 -0.29973,0.44962 -0.2248,0.61822 0.0749,0.16861 0.26226,0.48709 0.26226,0.48709 l -0.50579,0.28101 c 0,0 -0.22487,0.58076 -0.22487,0.6557 0,0.0749 -0.29974,1.03037 -0.35593,1.21771 -0.0562,0.18734 -1.27393,1.61113 -1.27393,1.61113 l -1.66733,1.36759 -3.33465,1.79847 c 0,0 -0.43086,0.97418 -0.5058,1.04911 -0.075,0.0749 -0.54333,0.22482 -0.54333,0.22482 l -0.2248,0.97417 c 0,0 -0.3934,0.37468 -0.3934,0.50582 0,0.13114 -0.11239,0.58076 -0.11239,0.67442 0,0.0937 -0.0937,0.61823 -0.0937,0.61823 0,0 0.18733,0.33722 0.1686,0.41215 -0.0187,0.0749 0.0749,0.0375 -0.0562,0.16861 -0.13113,0.13113 -0.5808,0.37468 -0.5808,0.37468 l -0.0749,0.50583 -0.24353,0.2248 -0.52453,0.16861 -0.65573,-0.14988 c 0,0 -0.2248,-0.41215 -0.29973,-0.63695 -0.0749,-0.22481 -0.18733,-0.48709 -0.26227,-0.50582 -0.0749,-0.0187 -0.39339,0.0187 -0.52452,0.0375 -0.13121,0.0187 -0.29981,0.0562 -0.43094,-0.0749 -0.13113,-0.13114 -0.48706,-0.31848 -0.48706,-0.31848 0,0 -0.65574,0.56202 -0.7494,0.61822 -0.0937,0.0562 -0.5058,0.0562 -0.41213,-0.0749 0.0937,-0.13113 0.73066,-0.67442 0.73066,-0.67442 l -0.76813,-0.0749 c 0,0 0.0937,-0.5995 0.2248,-0.5995 0.13113,0 0.50587,0.0749 0.5808,-0.0375 0.0749,-0.1124 0.281,-0.16861 0.2248,-0.37468 -0.0562,-0.20608 -0.29973,-0.78683 -0.35593,-0.91798 -0.0562,-0.13114 -0.22487,-0.37467 -0.22487,-0.37467 l -0.31847,0.28101 c 0,0 -0.29973,0.1124 -0.31846,0.18734 -0.0187,0.0749 -0.1124,0.26228 -0.20607,0.35595 -0.0937,0.0937 -0.56207,0.43088 -0.56207,0.43088 0,0 0.0562,0.39341 -0.0187,0.50582 -0.0749,0.11241 -0.44959,0.41215 -0.44959,0.41215 l -0.31847,0.28102 -0.29973,0.44961 c 0,0 -0.0937,0.33722 -0.11247,0.41215 -0.0187,0.0749 0.0187,0.35595 0.0187,0.35595 l 0,0.28101 0.14994,0.35595 0.35593,0.29974 0.3372,0.33722 -0.2248,0.44961 -0.0187,0.20608 c 0,0 0.13113,0.43089 0.28099,0.52456 0.14987,0.0937 0.41213,0.20607 0.41213,0.20607 l 0.0937,0.35595 0.1124,0.67443 c 0,0 -0.2248,0.24354 -0.31847,0.13114 -0.0937,-0.11241 -0.20606,-0.14987 -0.20606,-0.14987 l -0.281,0.43088 0.0749,0.43088 c 0,0 0.0749,0.0937 0.14986,0.0937 0.0749,0 3.14732,1.33012 3.14732,1.33012 l 0.29973,0.41215 c 0,0 0.28107,0.33722 0.39347,0.46835 0.1124,0.13114 0.35593,0.52456 0.41213,0.5995 0.0562,0.0749 0.13113,0.41215 0.18733,0.48709 0.0562,0.0749 0.3934,0.63695 0.5058,0.82429 0.11247,0.18735 0.2998,0.37469 0.356,0.46836 0.0562,0.0937 0.52453,0.41215 0.65566,0.52455 0.13113,0.11241 0.24353,0.11241 0.35593,0.20608 0.1124,0.0937 0.28107,0.41215 0.28107,0.41215 l 0,0.39342 0.43087,0.24354 0.14986,0.28101 c 0,0 -0.14986,0.22481 -0.0937,0.33722 0.0562,0.1124 0.48706,0.39341 0.48706,0.50581 0,0.11241 0.0562,0.41216 0.0937,0.4871 0.0375,0.0749 0.0375,0.1124 0.13114,0.24353 0.0937,0.13115 0.22487,0.24355 0.2998,0.33722 0.0749,0.0937 0.1686,0.24354 0.24353,0.35595 0.0749,0.1124 0.1124,0.52456 0.1124,0.52456 0,0 0.0937,0.26227 0.14987,0.37467 0.0562,0.11241 0.31846,0.56203 0.31846,0.56203 l 0.0749,0.26228 1.57366,2.00454 c 0,0 0.1686,0.41216 0.2248,0.52456 0.0562,0.1124 0.26234,0.67443 0.26234,0.67443 l 0.35593,0.73062 c 0,0 0.59946,-0.0375 0.63693,0.0375 0.0375,0.0749 0.1124,0.41215 0.20606,0.54329 0.0937,0.13114 0.22487,0.58076 0.22487,0.58076 l 0,0.48709 c 0,0 0.26227,0 0.29973,0.0749 0.0375,0.0749 0.2248,0.31847 0.2248,0.31847 l 0.4496,0.0937 c 0,0 0.0187,0.54329 0.1124,0.61821 0.0937,0.0749 0.44967,0.39343 0.50587,0.50583 0.0562,0.11241 0.29973,0.58076 0.29973,0.58076 0,0 0.14986,0.14987 0.20606,0.24355 0.0562,0.0937 0.0375,0.29974 0.20607,0.43088 0.16859,0.13114 0.54326,0.50582 0.54326,0.50582 l 0.1874,0.14987 -0.0562,0.56203 c 0,0 -0.0749,0.35594 0.0187,0.50581 0.0937,0.14988 -0.29973,0.29976 -0.29973,0.29976 l 0.18733,0.281 0.0562,0.31849 0.13113,0.35594 0.35593,0.0375 c 0,0 0.20606,0.31847 0.2248,0.39341 0.0187,0.0749 0.26226,0.41215 0.26226,0.41215 0,0 0.281,0.29974 0.33727,0.37468 0.0562,0.0749 0.37467,0.28101 0.37467,0.28101 0,0 0.46833,0.0749 0.54326,0.14988 0.0749,0.0749 0.44967,0.33721 0.44967,0.33721 l 0.1686,0.46836 0.22479,0.0562 c 0,0 0.14987,0.24354 0.18734,0.31848 0.0375,0.0749 0.33719,0.33721 0.33719,0.33721 l 1.46126,0.52455 0.46841,0.1124 0.0749,0.26229 1.0866,0.31848 1.01159,0.7119 0.54333,-0.11241 0.24354,0.20608 0.43086,0.20607 0.54326,0 c 0,0 0.39347,0.35595 0.59953,0.43089 0.20607,0.0749 0.58073,0.1124 0.58073,0.1124 l 0.46833,-0.0187 c 0,0 0.56207,0.37469 0.65574,0.50583 0.0937,0.13114 0.89919,0.46835 0.95546,0.54329 0.0562,0.0749 0.43086,0.48708 0.6182,0.52456 0.18733,0.0375 0.71193,0 0.71193,0 0,0 0.26226,0.24353 0.2248,0.35594 -0.0375,0.11241 -0.1124,0.48709 -0.0562,0.59949 0.0562,0.1124 0.29973,0.31847 0.29973,0.31847 l 2.37926,1.29267 0.37466,0.16859"
       id="path4201-3"
       inkscape:connector-curvature="0"
       sodipodi:nodetypes="ccccsscscsssscssssssccccscsssccsscccsccsscccsccsscsscccccsssscssccssssccsscscccscccccccscccscccsccsssssssccccsssssscscccsccssccccccsccccccsccccccccccccccccccccccccccccccccsccc" />
    <path
       style="fill:none;stroke:#656464;stroke-width:0.74932605;stroke-linecap:butt;stroke-linejoin:miter;stroke-miterlimit:4;stroke-opacity:1;stroke-dasharray:none;stroke-dashoffset:0;display:inline"
       d="m 587.4053,353.53929 c 0.0532,-0.26494 0.0841,-2.96422 -0.33982,-2.85824 -0.42397,0.10598 -1.11275,0.52989 -1.11275,0.52989 l -0.37092,-0.37092 c 0,0 0.15894,-0.21195 0.26497,-0.42391 0.10595,-0.21195 0.15893,-0.37092 0.21191,-0.74183 0.0532,-0.37092 0.10603,-1.05976 0.10603,-1.05976 0,0 0.21191,-0.84781 0.21191,-1.05977 0,-0.21195 0.0532,-0.95378 0.0532,-0.95378 l -0.79481,-0.63586 -1.74863,0.63586 c 0,0 -0.21198,0.053 -0.37092,-0.26494 -0.15893,-0.31792 -0.68878,-2.49044 -0.68878,-2.86136 0,-0.37092 -0.21198,-0.63586 -0.31794,-0.95378 -0.10603,-0.31793 -0.37091,-0.68885 -0.37091,-0.68885 l -1.37771,-0.15896 c 0,0 0.31794,-0.84781 -0.26497,-0.52988 -0.58282,0.31793 -1.05977,0.63586 -1.05977,0.63586 0,0 -1.16572,-0.15897 -1.37763,-0.26494 -0.21199,-0.10598 -1.32474,-0.31793 -1.32474,-0.31793 0,0 -0.37091,-0.21196 -0.26496,-0.63586 0.10603,-0.42391 0.21199,-0.74183 0.15901,-1.16574 -0.0532,-0.4239 -0.10596,-1.27171 -0.15901,-1.48367 -0.0532,-0.21194 -0.58282,-0.95378 -0.6358,-1.27171 -0.0532,-0.31792 -0.10603,-1.64263 -0.10603,-1.64263 l 0,-0.4239 0.84786,-1.85459 0.31794,-0.4239 c 0,0 -0.42397,0 -0.26496,-0.31793 0.15893,-0.31792 0.55637,-1.90757 0.55637,-1.90757 0,0 -0.13248,-0.37091 -0.23843,-0.63585 -0.10603,-0.26494 -0.26496,-0.58287 -0.4239,-0.79483 -0.159,-0.21194 -0.95381,-0.68884 -0.95381,-0.68884 l -1.11275,-0.58287 0,-0.52988 0,-0.90079 0.26496,-0.9008 0,-0.63586 -0.5829,0.47689 -4.451,0.15897 -0.10595,-0.84781 c 0,0 -0.0532,-1.00678 -0.21199,-1.3247 -0.15893,-0.31793 -0.52985,-0.68885 -0.52985,-0.68885 l -0.5829,-0.58287 c 0,0 0.79481,0.053 0.79481,-0.15896 0,-0.21195 0.0532,-0.52988 -0.10595,-1.00677 -0.15893,-0.4769 -0.31794,-0.68885 -0.37092,-0.95379 -0.0532,-0.26494 -0.10595,-0.58286 -0.10595,-0.58286 l 0.042,-0.40315 c 0,0 -0.55982,-0.572 -0.59729,-0.58136 -0.0375,-0.009 -0.30909,-0.26229 -0.37473,-0.29039 -0.0659,-0.0281 -0.1498,-0.18734 -0.23417,-0.23417 -0.0843,-0.0468 -0.14514,-0.11708 -0.24818,-0.1733 -0.1031,-0.0562 -0.31853,-0.20607 -0.4122,-0.20607 -0.0937,0 -0.43551,0.0375 -0.43551,0.0375 0,0 -0.2998,0.17797 -0.42149,0.1686 -0.12184,-0.009 -0.76814,-0.0234 -0.8337,-0.0421 -0.0659,-0.0187 -0.45904,-0.0843 -0.45904,-0.0843 0,0 -0.1967,-0.23417 -0.2248,-0.27164 -0.0285,-0.0375 -0.31846,-0.24354 -0.3372,-0.29039 -0.0187,-0.0468 -0.0375,-0.1967 -0.10303,-0.21544 -0.0659,-0.0187 -0.20606,-0.0375 -0.20606,-0.0375 0,0 -0.38081,-0.0646 -0.49328,-0.12083 -0.1124,-0.0562 -0.29359,-0.0852 -0.37789,-0.10398 -0.0843,-0.0187 -0.29471,-0.0799 -0.29471,-0.0799 l -0.22794,-0.0454 -0.35766,0.0331 c 0,0 -0.49021,-0.27156 -0.51666,-0.43052 -0.027,-0.15897 -0.2517,-0.62924 -0.2517,-0.62924 l -0.50339,0.4239 c 0,0 -0.15894,-0.23845 -0.29142,-0.34441 -0.13248,-0.10598 -0.55637,-0.23845 -0.71538,-0.31794 -0.15893,-0.0795 -0.68878,-0.18546 -0.68878,-0.18546 0,0 0.15893,0.21196 -0.027,0.23845 -0.18546,0.0265 -0.47688,0.0265 -0.60936,0.0265 -0.13248,0 -0.50339,-0.18545 -0.7153,-0.21195 -0.21199,-0.0265 -0.39745,0 -0.39745,-0.13247 0,-0.13247 0,-0.52987 0,-0.52987 0,0 -0.31794,0.0265 -0.47687,-0.0265 -0.159,-0.053 -0.52992,-0.26494 -0.52992,-0.26494 l -0.31786,-0.10598 c 0,0 -0.10603,-0.13246 -0.13249,-0.26494 -0.027,-0.13246 -0.027,-0.34442 -0.159,-0.4239 -0.13248,-0.0795 -0.39737,0.0265 -0.39737,-0.15897 0,-0.18546 0.21191,-0.18546 -0.13248,-0.47688 -0.34447,-0.29144 -0.31794,-0.37092 -0.31794,-0.37092 l -0.31794,-0.37092 0.21199,-0.31792 c 0,0 0,-0.15897 0.027,-0.26495 0.027,-0.10597 0.0795,0.0265 0,-0.18546 -0.0795,-0.21195 -0.42389,-0.50338 -0.29141,-0.74184 0.13248,-0.23844 0.26489,-0.4239 0.26489,-0.4239 l -0.21191,-0.26494 -0.027,-0.21194 0.21191,-0.71535 0,-0.34441 -0.18546,-0.92729 -0.13862,-0.2272 -0.17932,0.30667 -0.29141,0.13248 -0.47687,-0.10599 -0.45042,0.0265 -0.47687,0.15896 -0.87432,0.15897 c 0,0 -0.45042,0.21195 -0.55637,0.29143 -0.10596,0.0795 -0.39744,0.21195 -0.5034,0.29143 -0.10595,0.0795 -0.68885,0.4769 -0.68885,0.4769 l -0.29142,0.45039 -0.34446,0.053 -0.45035,0.26494 c 0,0 -0.29148,0.15896 -0.37091,0.29144 -0.0795,0.13246 -0.23844,0.34442 -0.23844,0.34442 l -0.0532,0.45039 -0.74183,-0.23844 -0.4239,0.26494 -0.10595,0.31793 -0.13248,0.21195 -0.84779,0.42391 -0.47687,0.37091 -0.34447,-0.13247 -0.34439,-0.31792 -0.98027,0.053 -0.79983,-0.0305 -0.44037,0.0476 -0.73067,0.0749 -0.4496,0.29975 -0.56207,0.14987 -0.28099,-0.18734 c 0,0 -0.24354,-0.11241 -0.29974,-0.0187 -0.0562,0.0937 -0.14986,0.14987 -0.14986,0.14987 l -0.0749,-3.48455 0.14986,-0.18733 -0.14986,-0.31848 -0.0562,-0.28102 -0.28107,-0.1686 -0.48707,0.78683 -1.10525,0.93671 -2.43546,0.18734 c 0,0 0.0375,-0.29975 0.0375,-0.39342 0,-0.0937 -0.11247,-0.35595 -0.11247,-0.35595 0,0 -0.29973,0.0375 -0.31846,-0.0562 -0.0187,-0.0937 -0.0187,-0.58075 -0.0187,-0.58075 l -0.22479,-0.20608 -2.34172,0.0749 0.74932,-0.95544 -0.918,-1.12404 c 0,0 -0.28099,0.13113 -0.28099,-0.0937 0,-0.22482 0.0375,-0.56204 -0.0375,-0.58076 -0.0749,-0.0187 -0.50587,-0.0562 -0.50587,-0.0562 0,0 -0.24353,-0.37469 -0.31846,-0.56203 -0.0749,-0.18734 -0.2248,-0.52455 -0.2248,-0.52455 l -0.24353,-0.20608 -0.14987,-0.14988 0.31847,-0.0937 c 0,0 0.1124,-0.22481 0.0187,-0.26228 -0.0937,-0.0375 -0.6932,-0.0562 -0.6932,-0.0562 0,0 -0.18733,-0.35595 -0.20607,-0.43089 -0.0187,-0.0749 -0.0562,-0.13113 -0.0562,-0.20607 0,-0.0749 0.0937,-0.39342 0.0937,-0.39342 l 0.3372,-0.0187 0.33727,-0.13114 c 0,0 -0.24361,-0.26227 -0.24361,-0.39342 0,-0.13114 -0.0375,-0.35594 -0.0375,-0.46835 0,-0.11241 0.0187,-0.26228 0.0562,-0.35595 0.0375,-0.0937 0.37466,-0.28101 0.37466,-0.28101 l 0.52453,-0.63696 c 0,0 0.31853,-0.0562 0.39347,-0.14987 0.0749,-0.0937 0.28099,-0.31848 0.33719,-0.39342 0.0562,-0.0749 0.1124,-0.1124 0.1124,-0.26227 0,-0.14988 -0.18733,-0.37469 -0.24353,-0.48709 -0.0562,-0.1124 -0.0937,-0.31848 -0.0937,-0.31848 l 0.33719,-1.06785 c 0,0 0.14987,-0.37468 0.24353,-0.48708 0.0937,-0.1124 0.20607,-0.58076 0.20607,-0.67443 0,-0.0937 -0.13113,-0.61822 -0.13113,-0.61822 0,0 0.22479,-0.28102 0.29973,-0.29974 0.0749,-0.0187 0.5246,-0.0937 0.5246,-0.0937 l 0.86173,-0.86177 0.35592,-0.35595 0.80561,-0.35594 c 0,0 0.76813,-0.26228 0.88053,-0.28102 0.1124,-0.0187 0.58073,-0.1124 0.69313,-0.14987 0.11247,-0.0375 0.67446,-0.20607 0.7494,-0.20607 0.0749,0 0.76806,-0.76811 0.76806,-0.76811 l 0.73066,-0.11239 0.58073,0.16859 c 0,0 0.39347,0.18735 0.48714,0.20608 0.0937,0.0187 0.39886,-7.5e-4 0.39886,-7.5e-4 l 0.0816,-0.2618 c 0.033,-0.27545 0.92451,-6.03191 0.94325,-6.10684 0.0187,-0.0749 -0.0749,-1.18025 -0.0749,-1.18025 0,0 0.26227,-0.91797 0.29973,-1.01165 0.0375,-0.0937 -0.0375,-0.7681 -0.0375,-0.84303 0,-0.0749 -0.29973,-0.54329 -0.41213,-0.63696 -0.1124,-0.0937 -0.0749,-0.43088 -0.0749,-0.43088 l -0.13114,-0.61823 -0.637,-0.20608 -0.52453,-0.54329 -0.31853,-2.21062 c 0,0 0.2998,0 0.44967,-0.0187 0.14986,-0.0187 0.41213,-0.20608 0.41213,-0.20608 l 0.65573,-0.13114 0.3372,-0.2248 0.84306,0.54328 0.18734,-0.22481 0.0749,-0.71189 -0.46833,-0.56203 -1.76107,-0.18734 c 0,0 0.0187,-1.6486 -0.0937,-1.66733 -0.1124,-0.0187 3.18478,-0.11241 3.48451,-0.14987 0.29981,-0.0375 0.29981,-0.11241 0.41221,-0.11241 0.1124,0 1.04905,-0.13114 0.9742,-0.18734 -0.075,-0.0562 -0.43094,-0.22481 -0.43094,-0.22481 0,0 0.0375,-0.0937 0.26226,-0.24355 0.2248,-0.14987 0.14987,-0.0749 0.14987,-0.0749 0,0 0.20614,0.28101 0.59953,0.50582 0.3934,0.22481 0.1124,-0.0937 0.1124,-0.0937 l 0.88046,-0.71189 0.5246,-0.11241 c 0,0 0.20607,0.46835 0.43087,0.73063 0.22479,0.26228 0.24353,0.44962 0.26226,0.56202 0.0187,0.11241 0.1124,0.24355 0.1124,0.46836 0,0.22481 0.0187,0.39341 0.0562,0.58075 0.0375,0.18734 0.43596,0.0396 0.7784,0.16019 l 0.40141,0.0921 0.17879,0.2252 c 0,0 0.21199,0.19871 0.26496,0.23845 0.0532,0.0397 0.0465,0.0397 0.10596,0.0795 0.0599,0.0397 0.35106,0.21858 0.35106,0.21858 l 0.19872,0.17883 c 0,0 0.23844,0.0464 0.27815,0.0662 0.0397,0.0199 0.38418,0.0464 0.44383,0.0199 0.0599,-0.0265 0.17886,-0.13247 0.22517,-0.16559 0.0465,-0.0331 0.29808,-0.11922 0.38418,-0.20533 0.0861,-0.0861 0.14567,-0.15234 0.19872,-0.18545 0.0532,-0.0331 0.19205,-0.13248 0.24503,-0.1391 0.0532,-0.007 0.44375,-0.053 0.48354,-0.0397 0.0397,0.0133 0.13907,0.0795 0.15234,0.10598 0.0135,0.0265 0.0659,0.15896 0.0532,0.21196 -0.0135,0.053 -0.0532,0.14571 -0.0927,0.17883 -0.0397,0.0331 -0.14575,0.12584 -0.14575,0.17883 0,0.053 0.007,0.21858 0.0397,0.2252 0.033,0.007 0.23184,0.0464 0.26488,0 0.033,-0.0464 0.0861,-0.0861 0.11263,-0.14571 0.027,-0.0596 0.033,-0.17221 0.0397,-0.21196 0.007,-0.0397 0.10596,-0.25169 0.10596,-0.25169 0,0 0.0862,-0.19871 0.13915,-0.19871 0.0532,0 0.23176,0 0.30467,-0.0133 0.0727,-0.0133 0.1722,-0.0728 0.1722,-0.0728 0,0 0.033,-0.35105 0.0397,-0.39742 0.007,-0.0464 0.0659,-0.13909 0.0659,-0.13909 0,0 0.4239,-0.0133 0.45042,-0.0464 0.027,-0.0331 0.18546,-0.17883 0.22517,-0.21195 0.0397,-0.0331 0.14575,-0.15234 0.2517,-0.15234 0.10596,0 0.37759,-0.0199 0.37759,-0.0199 0,0 0.19198,-0.26494 0.23836,-0.29143 0.0465,-0.0265 0.52325,-0.62261 0.60935,-0.51002 0.0861,0.1126 0.13248,0.39079 0.13248,0.39079 0,0 0.39085,-0.48352 0.43716,-0.51001 0.0465,-0.0265 0.22525,-0.20533 0.26496,-0.25169 0.0397,-0.0464 0.0532,-0.23182 0.06,-0.31793 0.007,-0.0861 -0.0659,-0.38416 -0.0195,-0.46364 0.0465,-0.0795 0.16553,-0.16559 0.20532,-0.18546 0.0397,-0.0199 0.53652,-0.0331 0.56956,-0.0199 0.033,0.0133 0.24511,-0.23183 0.39085,-0.26494 0.14574,-0.0331 0.73516,-0.17883 0.76169,-0.20533 0.027,-0.0265 0.11922,-0.0728 0.11922,-0.1391 0,-0.0662 -0.0599,-0.78819 -0.0861,-0.78819 -0.027,0 -2.03337,0.0133 -2.03337,0.0133 0,0 0.17879,-0.39079 0.19865,-0.47027 0.0195,-0.0795 0.033,-0.26494 0.033,-0.3113 0,-0.0464 -0.033,-0.13909 -0.0592,-0.18546 -0.027,-0.0464 -0.19872,-0.21857 -0.20539,-0.25832 -0.007,-0.0397 -0.12581,-0.23182 -0.14567,-0.25831 -0.0195,-0.0265 -0.0659,-0.0795 -0.0659,-0.0795 0,0 -0.18546,-0.61599 -0.18546,-0.77496 0,-0.15896 0.027,-0.74183 0.027,-0.74183 0,0 -0.23851,-0.26494 -0.31794,-0.37092 -0.0795,-0.10597 -0.87439,-0.60936 -0.92729,-0.71533 -0.0532,-0.10598 -0.34447,-0.42391 -0.37092,-0.52988 -0.027,-0.10598 -0.0532,-0.50339 -0.0532,-0.50339 0,0 0.55637,0.10598 0.58282,0.21195 0.027,0.10598 -0.18545,0.23845 0.13249,0.23845 0.31786,0 0.98026,-0.0795 0.98026,-0.0795 0,0 0.34447,0.0265 0.34447,0.23844 0,0.21195 -0.0532,0.50339 0.1324,0.50339 0.18546,0 1.13928,-0.21196 1.24523,-0.21196 0.10603,0 0.31794,0.21196 0.31794,0.21196 l 0.21199,-0.23844 c 0,0 0.0532,-0.18546 0.29141,-0.0795 0.23844,0.10597 0.52985,0.39741 0.63588,0.58287 0.10595,0.18546 0,0.34442 0.23836,0.42391 0.23851,0.0795 0.68893,-0.15897 0.68893,-0.15897 0,0 0.0532,-0.053 0.0532,-0.39741 0,-0.34443 0.027,-0.60936 0.027,-0.60936 l 0.55637,-0.0795 0.13248,-0.39741 c 0,0 0.4239,-0.23844 0.60936,-0.13246 0.18545,0.10597 0.21198,0.23844 0.39744,0.26493 0.18546,0.0265 0.6358,-0.10597 0.82126,-0.13247 0.18546,-0.0265 0.76836,-0.13246 0.87431,-0.21195 0.10603,-0.0795 0.21199,-0.29143 0.26496,-0.39741 0.0532,-0.10598 -0.13248,-0.18546 0.10596,-0.26494 0.23843,-0.0795 0.5829,-0.15897 0.5829,-0.15897 l 0.82134,-0.15896 0.34439,-0.4504 c 0,0 0.63587,-0.47689 0.66233,-0.58287 0.027,-0.10597 0.13248,-0.3974 0.0795,-0.52988 -0.0532,-0.13247 -0.63588,-0.39741 -0.29141,-0.45039 0.34439,-0.053 0.87431,-0.18546 1.08622,-0.18546 0.21198,0 0.42389,-0.0795 0.52992,0 0.10596,0.0795 0.15893,0.21195 0.29142,0.34442 0.13248,0.13247 0.18545,0.76833 0.18545,0.76833 l -0.42389,0.74183 c 0,0 -0.26496,0.18546 -0.10603,0.21196 0.15901,0.0265 0.87431,0.13246 0.87431,0.13246 l 0.34447,0.29144 c 0,0 0.0794,0.21195 0.027,0.34442 -0.0532,0.13247 -0.1324,0.21195 0.027,0.37091 0.15901,0.15897 0.29149,0.29144 0.29149,0.29144 0,0 0.0794,0.0795 0,0.26494 -0.0795,0.18546 -0.37092,0.68885 -0.4239,0.79482 -0.0532,0.10598 -0.29141,0.4504 -0.29141,0.4504 l -0.21198,0.55637 0.0532,0.58288 -0.29141,0.90079 c 0,0 0.23843,0.68884 0.26496,0.9008 0.027,0.21195 0.26489,0.60936 0.26489,0.60936 l 0.26496,0.31793 -0.15894,0.58287 c 0,0 0.29142,0.23844 0.39737,0.39741 0.10596,0.15896 0.52993,0.4504 0.52993,0.4504 l 0.55637,0.45039 c 0,0 0.027,0.18546 0.15893,0.23845 0.13248,0.053 0.84779,0.18546 0.84779,0.18546 0,0 -0.027,0.18545 0.0795,0.23845 0.10596,0.053 0.47687,0.29143 0.55638,0.18545 0.0794,-0.10597 0.18546,-0.26493 0.37091,-0.26493 0.18546,0 0.18546,0.10596 0.26489,-0.0795 0.0795,-0.18546 0.18546,-0.60936 0.18546,-0.60936 0,0 0.0532,-0.4239 0.15901,-0.4239 0.10595,0 0.50339,0.053 0.63587,0.15896 0.13241,0.10598 0.50333,0.23844 0.50333,0.23844 0,0 0.23851,-0.58286 0.34446,-0.60936 0.10596,-0.0265 1.11275,-0.13247 1.11275,-0.13247 0,0 -0.0532,0.31793 0.13248,-0.15896 0.18546,-0.4769 0.21199,-0.52988 0.21199,-0.52988 l 0.76828,-0.13248 0.68886,0.31794 c 0,0 0.7153,-0.053 0.95381,-0.053 0.23836,0 1.51012,0.053 1.51012,0.053 0,0 0.29141,-0.15897 0.29141,-0.29144 0,-0.13247 -0.15893,-0.29143 -0.23843,-0.42391 -0.0794,-0.13246 -0.37092,-0.23844 -0.37092,-0.34442 0,-0.10598 -0.13248,-0.053 0,-0.21195 0.13248,-0.15896 0.34439,-0.66235 0.34439,-0.66235 0,0 0.5829,0.053 0.60943,0.26494 0.027,0.21195 -0.027,0.34442 0.23843,0.31793 0.26489,-0.0265 0.82126,-0.15897 1.00672,-0.21195 0.18546,-0.053 0.37092,-0.31793 0.47695,-0.34443 0.10595,-0.0265 0.52985,-0.29143 0.52985,-0.29143 l 0.29141,0.39741 c 0,0 0.027,0.10598 0.15901,0.13247 0.13248,0.0265 0.55637,-0.0265 0.55637,-0.0265 l 0.0795,0.26494 0.84778,0.55637 c 0,0 0.45042,0.10598 0.60935,0.15896 0.15894,0.053 0.39745,-0.23844 0.39745,-0.23844 l 0.47687,-0.34443 c 0,0 0.42389,0.15897 0.58282,0.13247 0.15901,-0.0265 0.68893,-0.26493 0.68893,-0.26493 0,0 0.34439,0.10597 0.42382,0.21195 0.0795,0.10597 0.0795,0.26494 0.29149,0.23844 0.21199,-0.0265 0.60935,-0.21195 0.71531,-0.26494 0.10595,-0.053 0.0795,-0.0265 0.37091,-0.23845 0.29142,-0.21194 0.45042,-0.4239 0.52993,-0.55637 0.0795,-0.13247 0.29141,-0.52988 0.37091,-0.79482 0.0795,-0.26494 0.0795,-0.63585 0.18546,-0.79482 0.10596,-0.15897 0.37092,-0.55637 0.52985,-0.76833 0.15893,-0.21195 0.31794,-0.45039 0.45042,-0.58287 0.13248,-0.13246 0.55637,-0.76833 0.71531,-0.8743 0.159,-0.10597 0.34446,-0.29143 0.42397,-0.52988 0.0794,-0.23844 0.2119,-0.84781 0.2119,-0.84781 0,0 0.39737,-0.13247 0.55638,-0.053 0.15901,0.0795 0.76828,0.98028 0.76828,0.98028 0,0 0.13256,0.23845 0.0795,0.42391 -0.0532,0.18545 -0.15894,0.4239 -0.15894,0.4239 l 0.18546,-0.0795 -0.0795,0.55637 c 0,0 0.23844,0.42391 0.23844,0.58287 0,0.15896 0.0532,0.50339 0.0795,0.68885 0.027,0.18546 0.027,0.31792 0.10595,0.47689 0.0795,0.15897 0.13248,0.37092 0.18546,0.47689 0.0532,0.10598 0.10596,0.23845 0.10596,0.23845 l -0.0532,0.23844 0.13241,0.37092 0.37092,0.26494 -0.10596,0.34443 -0.15901,0.4239 0.50348,-0.0265 c 0,0 0.15893,0.55638 0.21191,0.66235 0.0532,0.10598 0.42389,0.26494 0.63587,0.31793 0.21191,0.053 1.27169,0.21195 1.27169,0.21195 l 0,0.74183 0.0795,0.4769 -0.46691,0.74634 c 1.50015,1.31462 3.00016,2.39145 4.50023,3.94385 l 0.94243,0.87543 0.64097,0.0776 0.55638,-0.23844 0.29141,0.4239 c 0,0 0.39744,-0.50338 0.5034,-0.45039 0.10603,0.053 0.55637,0.26493 0.55637,0.26493 l 0.21199,-0.0795 0.29141,0.31794 0.29141,-0.10598 0.66233,0.13246 0.23851,0.42391 0.55638,-0.0795 0.0532,0.39741 0.66233,-0.10597 0.13248,0.34442 0.95374,0.15896 0.15901,0.42391 0.74183,-0.0265 c 0,0 0,0.34443 0.13248,0.34443 0.13248,0 0.68886,-0.0795 0.68886,-0.0795 0,0 -0.5034,0.50338 -0.10596,0.47688 0.39737,-0.0265 1.16565,-0.18545 1.16565,-0.18545 l 0.10603,0.47689 c 0,0 0.60935,0.18546 0.60935,0.29144 0,0.10597 -0.0795,0.60936 -0.0795,0.60936 l 0.13248,0.18546 -0.39744,0.66234 c 0,0 0.90084,-0.29142 0.45042,-0.10597 -0.45042,0.18546 -0.60935,0.34442 -0.60935,0.34442 l 0.55637,0.18546 -0.13248,0.50339 c 0,0 0.027,0.13247 0,0.34442 -0.027,0.21195 -0.23843,0.8743 -0.23843,0.8743 0,0 -0.13249,0.26494 0,0.29144 0.13248,0.0265 0.52984,-0.23845 0.63587,-0.34443 0.10596,-0.10597 0.15894,-0.0265 0.29142,-0.31792 0.13248,-0.29144 0.15893,-0.31793 0.18545,-0.66236 0.027,-0.34442 0.5034,-0.71533 0.5034,-0.71533 0,0 0.37092,-0.21196 0.37092,-0.0265 0,0.18546 -0.68886,1.126 -0.46368,1.126 0.67889,-0.62596 1.5287,-1.07111 1.62941,-0.46365 l 0,3e-5 c 0.0247,0.14785 0.37091,-0.50339 0.37091,-0.50339 0,0 0.21199,-0.18546 0.45042,-0.18546 0.23844,0 0.60935,0.13247 0.60935,0.13247 l 0.0795,0.13247 0,1.30339 -0.051,56.16719 0,1.25344 -1.53664,-0.0133 -0.10595,-0.4769 -1.37772,0.4769 c 0,0 -0.68885,0.47689 -0.74183,0.26493 -0.0532,-0.21194 0.21199,-0.58286 -0.26496,-0.4769 -0.47687,0.10599 -1.16573,-0.10596 -1.16573,-0.10596 l -0.6358,0.68884 0.37092,0.47689 -1.37771,0.47689 c 0,0 -0.79481,-0.053 -0.90084,0.21196 -0.10596,0.26494 -0.21191,0.8478 -0.21191,0.8478 l -0.74184,0 -1.43068,0.21196 c 0,0 -0.58291,0.42391 -1.24523,0.82131 -0.76829,0.50339 -1.35119,0.82131 -1.35119,0.82131 l -0.90076,0.58288 -0.52993,0.58286 c 0,0 -0.26496,0.21196 -0.31794,0.4769 -0.0532,0.26493 -0.47687,1.05976 -0.47687,1.05976 l -0.68885,-0.68885 c 0,0 -0.10596,0.9008 -0.37092,0.74183 -0.26496,-0.15896 -0.95374,-0.84781 -0.90076,-0.63584 0.0532,0.21194 0.95374,0.63584 0.79481,0.90078 -0.15901,0.26494 -0.79481,0.74184 -0.79481,0.74184 l 0.6358,0.053 0.0532,0.42391 -0.47694,0.4239 0.34633,0.89548"
       id="path4207-6"
       inkscape:connector-curvature="0"
       sodipodi:nodetypes="cscccscsccccscccscccsscsccccccsccccccccccsccssscccsccsccccccscsscccsccsscsssscsccsssscccssscccccccccccccssccccscccccccccccccccccscccccccccscscccccsscsccccscsscccsssccssssccsscsccccssscccsccccssscccccsccccccccsssscscscccssssccccsccssssscccssscssccsscccscsccscssssssscsscssscccscssscsscsssccssscscccsssssscccssssssccsccsscssccccscccsccscsssscsscscscccscsssscssssccsccccccsccsccccccscccscscccsscscccccccsccccccccccscccccccccccccscsccscccscccccsssccscsccscccccccccccccccccccccccccsscccccc" />
    <path
       style="fill:none;stroke:#656464;stroke-width:0.74932605;stroke-linecap:butt;stroke-linejoin:miter;stroke-miterlimit:4;stroke-opacity:1;stroke-dasharray:none;display:inline"
       d="m 544.63205,352.77907 c 0,0 -0.18546,-0.34442 -0.18546,-0.45039 0,-0.10598 0.0532,-0.39741 0.0532,-0.39741 0,0 -0.26496,-0.29143 -0.31801,-0.47689 -0.0532,-0.18546 -0.29142,-0.63586 -0.21191,-0.90081 0.0795,-0.26493 0.10595,-0.34442 0.10595,-0.63585 0,-0.29144 -0.1324,-0.82131 -0.1324,-1.00677 0,-0.18546 0.15893,-0.66235 0.18545,-0.76833 0.027,-0.10597 -0.027,-0.50338 -0.027,-0.50338 l -0.55638,0.26493 c 0,0 -0.13248,-0.21195 -0.10595,-0.45039 0.027,-0.23845 0.0532,-0.9008 0.0532,-0.9008 l 0.34447,-0.0795 c 0,0 0.21191,-0.15896 0.23836,-0.3974 0.027,-0.23845 0.34446,-0.52989 0.29148,-0.76834 -0.0532,-0.23843 -0.31793,-3.28525 -0.29148,-3.44421 0.027,-0.15897 -0.027,-0.95379 -0.027,-0.95379 0,0 -0.13248,-0.37092 -0.15893,-0.55638 -0.027,-0.18545 -0.10603,-0.45039 -0.13248,-0.76832 -0.027,-0.31793 -0.23844,-1.16574 -0.23844,-1.43068 0,-0.26494 -0.13248,-0.79482 -0.159,-0.9008 -0.027,-0.10598 -0.13249,-0.71534 -0.13249,-0.71534 0,0 -0.027,-0.21195 -0.027,-0.34442 0,-0.13247 -0.37092,-1.3247 -0.37092,-1.3247 0,0 -0.0795,-0.60936 -0.0795,-0.76833 0,-0.15896 -0.29141,-1.03327 -0.29141,-1.03327 l -0.027,-0.18546 0.74183,-0.26494 0.68886,-0.58286 -0.13248,-0.47689 -0.23844,-0.66235 0.29134,-0.23845 0.6624,-0.15897 c 0,0 0.29142,0.39742 0.4239,0.52988 0.13248,0.13248 0.31794,0.68885 0.31794,0.68885 0,0 0.6358,-0.053 0.66233,0.053 0.027,0.10597 -0.26489,0.50339 -0.26489,0.50339 l 0.42382,0.34442 0.10603,0.39741 c 0,0 -0.0795,0.34442 -0.0532,0.47689 0.027,0.13247 0.18545,0.4769 0.18545,0.4769 l 0.0795,0.50338 0.39737,0.29143 c 0,0 0.55637,0.4504 0.68885,0.52988 0.13248,0.0795 0.39744,0.31793 0.39744,0.31793 l -0.34446,0.60936 -0.21191,0.31794 0.26489,0.18545 c 0,0 0.21198,0.21196 0.18545,0.34442 -0.027,0.13248 -0.0532,0.55638 -0.0532,0.55638 l -0.45034,0.0265 0.21191,0.26494 0,0.39742 -0.21191,0.18545 c 0,0 0.21191,0.18546 0.39736,0.31793 0.18546,0.13247 0.63581,0.29143 0.63581,0.29143 l -0.39737,0.4504 c 0,0 0.13248,0.34443 0.26496,0.42391 0.13241,0.0795 0.52985,0.13247 0.52985,0.13247 0,0 0.10603,0.37091 0.15893,0.47689 0.0532,0.10598 0.18546,0.37092 0.26504,0.52989 0.0794,0.15896 0.18546,0.50338 0.21191,0.63585 0.027,0.13247 0.0532,0.29144 0.10595,0.4239 0.0532,0.13248 0.13248,0.39741 0.23851,0.58287 0.10588,0.18546 0.29134,0.60937 0.29134,0.60937 0,0 0.18546,0.47689 0.21199,0.58287 0.027,0.10597 0.26496,0.50338 0.29148,0.68884 0.027,0.18546 0.10596,0.63586 0.10596,0.63586 l 0.92729,0 0.71531,-0.21195 0.26496,-0.31793 0.0794,-0.39741 0.23851,-0.34442 0.39744,-0.10598 0.027,-0.55638 c 0,0 0.34439,-0.34442 0.45042,-0.34442 0.10596,0 0.66233,-0.29144 0.66233,-0.29144 l 0.18546,-0.50338 0.027,-0.37092 0.66225,0.37092 0.55638,0.4504 0.63595,-0.0265 c 0,0 0.42382,-0.0265 0.55637,-0.0265 0.13241,0 1.0597,0.053 1.0597,0.053 l 0.71531,0.0265 0.34446,0.55637 c 0,0 0.13248,0.37092 0.21191,0.4769 0.0796,0.10596 0.34447,0.52987 0.34447,0.52987 l 0.0795,0.23845 0.10596,-0.90079 0.42389,-0.68886 0.0532,-0.68884 0.42382,-0.21195 1.0863,-0.18546 1.32466,0.13247 0.52992,0.053 0.45035,0.50339 c 0,0 0.10602,0.26494 0.21198,0.31793 0.10595,0.053 0.42397,0.15896 0.42397,0.15896 l 0.39737,0.34443 0.23843,0.66235 c 0,0 0.34439,0.37091 0.47695,0.42391 0.1324,0.053 0.47679,0.37091 0.58282,0.45039 0.10596,0.0795 0.79481,0.58287 0.79481,0.58287 l 0.71531,0.29143 c 0,0 0.18546,0.34443 0.29149,0.42391 0.10595,0.0795 0.26488,0.18546 0.26488,0.18546 l 0.0795,0.34442 c 0,0 0.92729,0.18546 1.05977,0.21195 0.13248,0.0265 1.48367,0.31793 1.48367,0.31793 l 0.13248,-0.18546 c 0,0 0.58282,0.55637 0.87431,0.66235 0.29141,0.10598 1.00672,0.58286 1.16573,0.68885 0.159,0.10598 1.48366,0.63585 1.48366,0.63585 l 0.79481,0.4504 0.15893,0.0795 0.37092,-0.0795 0.29149,0.39741 0.5829,0.053 0.34439,0.29144 0.34439,0.55637 0.21198,0.23845 -0.15893,0.52988 -0.21198,0.0795 c 0,0 -0.29149,0.31794 -0.26496,0.45041 0.027,0.13247 0.027,0.34442 0.027,0.34442 l -0.23851,0.15897 -0.10595,0.29143 -0.21191,0.0795 0,0"
       id="path4140-0"
       inkscape:connector-curvature="0" />
    <path
       style="fill:none;stroke:#656464;stroke-width:0.74932605;stroke-linecap:butt;stroke-linejoin:miter;stroke-miterlimit:4;stroke-opacity:1;stroke-dasharray:none;display:inline"
       d="m 549.42751,352.83207 c -0.027,-0.10599 -0.0532,-0.52988 -0.0532,-0.52988 l 0.42396,-0.39742 -0.13248,-0.58287 -0.37091,-0.34442 0,-0.4769 c 0,0 0.15893,-0.29143 0.29141,-0.3974 0.13248,-0.10598 0.74183,-0.4769 0.74183,-0.4769 l 0.79481,-0.47688 c 0,0 0.37092,-0.18546 0.63588,-0.29144 0.26496,-0.10597 0.45042,-0.29143 0.45042,-0.29143 l 0.39737,-3.09981 -0.39737,-0.47689"
       id="path4142-6"
       inkscape:connector-curvature="0" />
    <path
       style="fill:none;stroke:#656464;stroke-width:0.22254983;stroke-linecap:butt;stroke-linejoin:miter;stroke-miterlimit:4;stroke-opacity:1;stroke-dasharray:none;display:inline"
       d="m 585.45938,352.85856 c -0.0532,-0.10598 -0.18546,-0.37091 -0.15894,-0.52988 0.027,-0.15897 0.0532,-0.37092 0.027,-0.55638 -0.027,-0.18546 0.0532,-0.60936 0.0532,-0.60936 l 0.26489,-0.0265"
       id="path4144-2"
       inkscape:connector-curvature="0" />
    <path
       style="fill:none;stroke:#656464;stroke-width:0.74932605;stroke-linecap:butt;stroke-linejoin:miter;stroke-miterlimit:4;stroke-opacity:1;stroke-dasharray:none;display:inline"
       d="m 575.3386,334.73664 c 0,0 -2.09294,-1.08626 -2.62286,-1.08626 -0.52993,0 -2.2255,-0.10597 -2.35798,-0.053 -0.13248,0.053 -4.3715,1.16573 -4.47752,1.27171 -0.10596,0.10597 -0.26489,1.13924 -0.3444,1.24522 -0.0794,0.10597 -0.95381,1.56315 -0.95381,1.56315 l 0.10603,1.51015 -0.71531,3.17929"
       id="path4146-6"
       inkscape:connector-curvature="0" />
    <path
       style="fill:none;stroke:#656464;stroke-width:0.74932605;stroke-linecap:butt;stroke-linejoin:miter;stroke-miterlimit:4;stroke-opacity:1;stroke-dasharray:none;display:inline"
       d="m 544.39473,330.34038 c -0.0562,-0.44961 0.1686,-0.48708 0.0937,-0.56201 -0.0749,-0.0749 -0.52453,-0.24355 -0.52453,-0.24355 0,0 0.1124,-0.26228 0.24353,-0.35595 0.13114,-0.0937 0.4496,-0.46835 0.5058,-0.54329 0.0562,-0.0749 0.33727,-0.52455 0.43094,-0.61822 0.0937,-0.0937 0.43086,-0.37468 0.43086,-0.37468 0,0 -0.0749,-0.35595 -0.0749,-0.46835 0,-0.11242 0.18733,-0.37469 0.18733,-0.37469 0,0 0.24353,-0.0749 0.22479,-0.14987 -0.0187,-0.0749 -0.29973,-0.28102 -0.46832,-0.28102 -0.16868,0 -0.48707,-0.0375 -0.48707,-0.0375 l -0.1874,-0.22481 c 0,0 -0.3934,-0.73063 -0.4496,-0.86177 -0.0562,-0.13114 -0.24353,-0.43088 -0.24353,-0.52455 0,-0.0937 0.11233,-0.31848 0.2248,-0.43088 0.1124,-0.11242 0.26226,-0.20608 0.31846,-0.29975 0.0562,-0.0937 0.2248,-0.37468 0.2248,-0.37468 l -0.3934,-0.35595 -0.31846,-0.48708 c 0,0 -0.0749,-0.35596 0,-0.41215 0.0749,-0.0562 0.18733,-0.0187 0.2248,-0.11242 0.0375,-0.0937 0.0562,-0.46834 0.0562,-0.46834 0,0 0.1686,-0.0937 0.2248,-0.16862 0.0562,-0.0749 0.28099,-0.20607 0.35593,-0.29974 0.0749,-0.0937 0.1312,-0.26227 0.1312,-0.37468 0,-0.11241 -0.1686,-0.28101 -0.0937,-0.31848 0.0749,-0.0375 0.29981,-0.0937 0.29981,-0.0937 l 0,-0.14987 -0.59954,-1.14279 c 0,0 -0.0562,-0.2248 -0.0375,-0.29974 0.0187,-0.0749 0.16859,-0.28101 0.14979,-0.35595 -0.0187,-0.0749 -0.1124,-0.84304 -0.1124,-0.84304 0,0 0,-0.46835 0,-0.58076 0,-0.1124 0,-0.41214 0.0375,-0.48707 0.0375,-0.0749 0.29973,-0.35596 0.29973,-0.35596 0,0 0.29973,-0.1124 0.29973,-0.24354 0,-0.13114 -0.0187,-0.39341 -0.0187,-0.39341 0,0 -0.14986,-0.41216 -0.13113,-0.4871 0.0187,-0.0749 -0.1124,-0.35595 -0.2248,-0.50581 -0.11247,-0.14988 -0.4684,-0.4871 -0.5246,-0.61823 -0.0562,-0.13114 -0.281,-0.63696 -0.281,-0.63696 0,0 -0.14987,-0.39341 -0.281,-0.52455 -0.13113,-0.13115 -0.37466,-0.46836 -0.37466,-0.46836 m 0.0285,0.0421 -0.97892,-1.22239"
       id="path4148-1"
       inkscape:connector-curvature="0"
       sodipodi:nodetypes="cccscscsccscccscsccccsccsssccccccsccsccsscsccc" />
    <path
       style="fill:none;stroke:#656464;stroke-width:0.74932605;stroke-linecap:butt;stroke-linejoin:miter;stroke-miterlimit:4;stroke-opacity:1;stroke-dasharray:none;display:inline"
       d="m 511.59126,292.31015 c 0.26234,-0.24355 0.76814,-0.67443 0.82434,-0.74937 0.0562,-0.0749 0.18733,-0.50581 0.26226,-0.69316 0.0749,-0.18734 0.13113,-0.9367 0.13113,-0.9367 0,0 -0.0937,-0.58076 -0.1124,-0.6557 -0.0187,-0.0749 -0.24353,-0.9929 -0.24353,-0.9929 0,0 -0.24353,0.33721 -0.35593,0.48708 -0.11239,0.14988 -0.22479,0.58076 -0.28107,0.7119 -0.0562,0.13114 -0.281,0.39341 -0.33719,0.52455 -0.0562,0.13114 -0.0937,0.18734 -0.0937,0.18734 0,0 -0.71186,-0.50582 -0.80553,-0.52455 -0.0937,-0.0187 -0.37473,-0.0562 -0.59953,-0.14987 -0.2248,-0.0937 -0.3934,-0.20608 -0.54326,-0.31848 -0.14987,-0.11241 -0.48707,-0.33722 -0.3934,-0.35595 0.0937,-0.0187 0.67439,0.13113 0.76806,0 0.0937,-0.13114 0.20606,-0.31848 0.20606,-0.43089 0,-0.1124 -0.16859,-0.44962 -0.18733,-0.54328 -0.0187,-0.0937 -0.0562,-0.44962 -0.0749,-0.52456 -0.0187,-0.0749 -0.1124,-0.28101 -0.1124,-0.35595 0,-0.0749 0.14987,-0.52456 0.14987,-0.52456 0,0 -0.14987,-0.31847 -0.2248,-0.44961 -0.0749,-0.13114 -0.2248,-0.33721 -0.20607,-0.41215 0.0187,-0.0749 0.0562,-0.26228 0.13114,-0.29974 0.0749,-0.0375 0.59946,-0.13114 0.59946,-0.13114 l 0.2436,-1.04911 0.4496,-0.22481 c 0,0 -0.26227,-0.35595 -0.26227,-0.43089 0,-0.0749 0.0749,-0.37468 0.18734,-0.43088 0.11239,-0.0562 0.61819,-0.58076 0.61819,-0.58076 l 0.35593,-0.58076 0.14994,-0.35594 c 0,0 -0.18741,-0.63696 -0.14994,-0.7119 0.0375,-0.0749 0.11247,-0.50582 0.0375,-0.54329 -0.0749,-0.0375 -0.29973,-0.35595 -0.1124,-0.39341 0.18733,-0.0375 0.20606,-0.18735 0.50579,-0.26228 0.29981,-0.0749 0.39347,-0.58076 0.46841,-0.39342 0.0749,0.18734 0.20606,0.44962 0.20606,0.44962 l 0.14987,-0.31848 c 0,0 1.03039,-0.61823 1.18026,-0.67443 0.14986,-0.0562 0.41213,-0.0937 0.46833,-0.20608 0.0562,-0.1124 0.37466,-0.52455 0.37466,-0.52455 0,0 -0.1686,-0.39341 0.0187,-0.22481 0.18741,0.16861 1.2552,0.78683 1.34887,0.86177 0.0937,0.0749 0.97419,0.52455 1.12406,0.58076 0.14987,0.0562 0.93673,0.2248 1.01166,0.2248 0.0749,0 0.0937,0.20608 0.1686,0.24355 0.0749,0.0375 0.26227,0.0749 0.31847,0.28101 0.0562,0.20607 0.0562,0.29975 0.14986,0.41215 0.0937,0.1124 0.918,0.24354 0.918,0.24354 0,0 0.5058,0.16861 0.6182,0.16861 0.11239,0 0.24353,0 0.4684,-0.0749 0.2248,-0.0749 0.2248,-0.0562 0.2248,-0.0562 l 0.41213,-0.0749 0.1124,-0.46835 0.8618,0.0375 c 0,0 0.91792,0.41215 1.04905,0.50583 0.13113,0.0937 0.82434,0.39342 0.8618,0.46835 0.0375,0.0749 0.18733,0.29974 0.18733,0.29974"
       id="path4150-8"
       inkscape:connector-curvature="0" />
    <path
       style="fill:none;stroke:#656464;stroke-width:0.74932605;stroke-linecap:butt;stroke-linejoin:miter;stroke-miterlimit:4;stroke-opacity:1;stroke-dasharray:none;display:inline"
       d="m 514.7998,277.43005 c 0,0 -0.74183,-0.15896 -0.63587,-0.37091 0.10595,-0.21195 0.47687,-0.9008 0.74183,-0.74184 0.26496,0.15897 0.68885,0.31794 0.68885,0.31794 l 0.10596,-0.52988 c 0,0 -0.47687,-0.31793 -0.47687,-0.52989 0,-0.21194 0.26488,-1.00677 0.47687,-1.11275 0.21198,-0.10597 0.73276,0.0504 0.73276,0.0504 l 1.30728,-0.23579 c 0,0 0.0795,-0.50338 0.13248,-0.71533 0.0532,-0.21196 -0.0532,-0.74183 0.15893,-0.68884 0.21199,0.053 0.52992,-1.11275 0.52992,-1.11275 l 0.74184,-0.79483 0.42389,-0.58287 -0.2532,-0.17714 -0.62111,-0.37923 c -0.1997,-0.52885 0.0472,-0.6858 0.44315,-0.718 l -0.36365,-1.16307 0,-0.4769 -0.0532,-0.58287 c 0,0 0.0532,-0.68884 -0.0532,-0.90079 -0.10596,-0.21196 -0.37092,-0.9008 -0.37092,-0.9008 0.70234,0.0318 1.45407,0.0927 0.5034,-0.84781 l -0.39737,-1.11275 0.37092,-0.58287 0.0532,-0.31793 -0.63588,-0.47688 -0.21191,-0.37092 -0.31794,-0.74183 -0.31794,-0.31793 0.31794,-0.42391 0.0532,-0.79482 0.37092,0.31793 0.47687,-0.31793 c 0,0 0.15901,-0.26494 0.37092,-0.4239 0.21198,-0.15897 0.5829,-0.63586 0.5829,-0.63586 0,0 -0.31794,0.26494 -0.47695,-0.42391 -0.15893,-0.68884 -0.26488,-1.43067 -0.26488,-1.43067 0,0 0.37091,0.4239 0.58282,0.63586 0.21199,0.21194 0.84786,0.90079 0.84786,0.90079 0,0 -0.42396,0.63586 -0.10603,0.63586 0.31794,0 0.84787,0.10597 0.84787,0.10597 0,0 -0.24571,-0.46137 -0.29868,-0.7793 -0.0532,-0.31793 -0.57032,-1.37768 -0.57032,-1.37768 0.87432,-0.52989 1.82274,-1.07529 1.82274,-1.07529 l 0.5829,-1.3247 0.79481,-0.053 1.00679,-0.10598 c 0,0 -0.74183,-1.05975 -0.5829,-1.27171 0.15894,-0.21195 0.37092,-0.68884 0.4239,-1.05976 0.0532,-0.37092 -0.0532,-0.63586 0.159,-0.84781 0.21191,-0.21195 0.63581,-0.68884 0.63581,-0.68884 0,0 0.63588,-0.42391 0.84786,-0.58287 0.21191,-0.15896 0.26489,-0.26494 0.47687,-0.37092 0.21191,-0.10598 0.95374,0.26494 0.95374,0.26494 l 0.0532,0.47689 0.42389,-0.37091 c 0,0 0.21191,-0.4239 0.21191,-0.63586 0,-0.21195 0.15901,-0.74183 0.15901,-0.74183 0,0 1.11274,0.053 1.37771,0.10598 0.26496,0.053 1.74862,-0.21196 1.74862,-0.21196 l 0.52985,-0.4239 1.16573,-1.05976 c 0,0 0.10595,-0.10598 0.42389,-0.31793 0.31794,-0.21195 0.4239,-0.37091 0.5829,-0.58287 0.15893,-0.21195 0.63588,-0.58287 0.63588,-0.58287 0,0 0.79474,0.053 1.00672,-0.15896 0.21198,-0.21195 0.26496,-0.47689 0.52985,-0.37092 0.26496,0.10598 0.84786,0.26494 0.84786,0.4769 0,0.21194 -0.37092,1.05975 -0.52985,1.32469 -0.159,0.26495 -0.95381,0.52989 -0.95381,0.52989 l -1.48367,0.31792 -0.15893,0.84781 -0.68893,0.58287 -0.79474,0.63586 c 0,0 -0.31801,0.74183 -0.42397,1.05976 -0.10595,0.31793 -0.47687,1.05976 -0.47687,1.05976 l -0.31794,0.63586 c 0,0 -0.37091,0.74183 -0.42389,1.00677 -0.0532,0.26494 -0.47687,0.84781 -0.47687,0.84781 l 1.11275,0.053 c 0,0 0.52985,-0.053 0.52985,0.26495 0,0.31793 0.26496,0.52988 0.31794,0.95378 0.0532,0.42391 -0.0532,0.95379 0.159,1.16574 0.21191,0.21195 0.58283,0.52988 0.58283,0.52988 0,0 0.0532,0.4239 -0.10596,0.63586 -0.159,0.21195 -0.42397,0.42391 -0.37091,0.84781 0.0532,0.4239 0.21191,0.84781 0.79481,1.00677 0.5829,0.15896 0.68885,0 0.68885,0.26494 0,0.26494 -0.10595,0.42391 0.26496,0.58287 0.37092,0.15896 1.0597,0.4239 1.90749,0.26494 0.84786,-0.15896 1.32473,-0.26494 1.64267,-0.31793 0.31794,-0.053 1.43069,-0.15897 1.43069,-0.15897 0,0 0.5829,0.37092 0.74183,0.58288 0.15893,0.21195 0.31794,1.05976 0.63581,1.16573 0.31801,0.10598 1.1658,0.47689 1.1658,0.47689 0,0 1.2187,-0.10597 1.53664,-0.15896 0.31794,-0.053 1.11275,-0.15896 1.74855,-0.10598 0.63588,0.053 1.64267,-0.053 1.64267,-0.053 l 0.1722,-0.0722 0.11247,0.37468 c 0,0 -0.14986,0.52455 -0.18733,0.59949 -0.0375,0.0749 -0.24353,0.46835 -0.24353,0.46835 0,0 0.0937,0.16861 -0.1124,0.41216 -0.20614,0.24353 -0.4122,0.54328 -0.4122,0.54328 0,0 0,0.54329 -0.0187,0.63696 -0.0187,0.0937 -0.0562,0.56203 -0.0749,0.78683 -0.0187,0.22481 0.0562,0.35595 0.0749,0.48709 0.0187,0.13114 0.0749,0.39342 0.0375,0.59949 -0.0375,0.20608 -0.0375,0.80557 0,0.89924 0.0375,0.0937 0.14987,0.44962 0.14987,0.44962 l 0.39339,0.56202 c 0,0 0.14987,0.26228 0.29973,0.35595 0.14994,0.0937 0.24361,0.29975 0.24361,0.46835 0,0.16861 0.3372,0.39342 0.3372,0.39342 0,0 -0.74941,0.61822 -0.80553,0.69316 -0.0562,0.0749 -0.5246,0.71189 -0.5246,0.71189 l 0.0375,0.26228 c 0,0 0.14979,0.0937 0.26219,0.16861 0.11248,0.0749 0.54334,0.31848 0.54334,0.31848 0,0 0.78687,0.61823 0.80552,0.69316 0.0187,0.0749 0.13121,0.35595 0.13121,0.43089 0,0.0749 0.0187,0.44961 0.0937,0.54329 0.0749,0.0937 0.26226,0.18734 0.26226,0.31848 0,0.13114 -0.1124,0.46835 0.0562,0.61822 0.1686,0.14987 0.3372,0.16861 0.29973,0.39342 -0.0375,0.2248 0.0961,0.95187 0.11487,1.08301"
       id="path4152-7"
       inkscape:connector-curvature="0"
       sodipodi:nodetypes="cssccssccsscccccccccscccccccccccccscscscscscccccssscsscccscscccsscsssscccccsccsccssscssssssscsscsscccscscsssssccsscsccscssssssc" />
    <path
       style="fill:none;stroke:#656464;stroke-width:0.74932605;stroke-linecap:butt;stroke-linejoin:miter;stroke-miterlimit:4;stroke-opacity:1;stroke-dasharray:none;display:inline"
       d="m 534.46564,246.84248 c 0.0937,0.2248 0.0937,0.61822 0.0937,0.61822 l 0.281,0.63696 0.33719,0.50582 c 0,0 -0.0749,0.29975 0.0187,0.44962 0.0937,0.14987 0.43094,0.78683 0.43094,0.78683 l -0.41221,0.28101 c 0,0 -0.3934,0.0937 -0.44959,0.33721 -0.0562,0.24355 -0.18734,0.43089 -0.281,0.56203 -0.0937,0.13114 -0.4496,0.54329 -0.4496,0.61822 0,0.0749 -0.13113,0.58076 -0.13113,0.58076 l 0.281,0.56202 c 0,0 0.44959,0.11241 0.52453,0.16861 0.0749,0.0562 0.24353,0.33722 0.20606,0.56202 -0.0375,0.22482 -0.1124,0.39342 -0.0187,0.43089 0.0937,0.0375 0.39347,0.0937 0.39347,0.0937 0,0 0.37466,-0.0187 0.50579,-0.0749 0.13114,-0.0562 0.61827,-0.54328 0.61827,-0.54328 l 0.43087,-0.46836 c 0,0 -0.13121,-0.41215 -0.0375,-0.52455 0.0937,-0.11241 0.18733,-0.44962 0.18733,-0.52456 0,-0.0749 -0.3372,-0.54329 -0.37466,-0.63696 -0.0375,-0.0937 -0.562,-0.69316 -0.58073,-0.76809 -0.0187,-0.0749 -0.26226,-0.39342 -0.26226,-0.4871 0,-0.0937 -0.0375,-0.61822 -0.0375,-0.61822 l 0.0937,-0.33721 0.0375,-0.31848 0.37466,-0.28101 0.9742,-0.33722 c 0,0 1.18019,-0.48709 1.25512,-0.50582 0.0749,-0.0187 0.8056,-0.29974 0.918,-0.35595 0.1124,-0.0562 0.18733,-0.24354 0.43087,-0.24354 0.2436,0 0.73066,0 0.73066,0 0,0 0.0562,-0.28101 0.0562,-0.41215 0,-0.13114 -0.0749,-0.43089 -0.0749,-0.43089 l -1.04913,0.35595 -0.3372,-0.63696 c 0,0 0,-0.2248 0.0749,-0.33721 0.0749,-0.11241 0.18733,-0.31848 0.29973,-0.37469 0.11239,-0.0562 0.39339,-0.18733 0.46832,-0.2248 0.075,-0.0375 0.29973,-0.0375 0.29973,-0.0375 0,0 0.20614,0.28102 0.28108,0.48709 0.0749,0.20607 0.28099,0.61822 0.20606,0.71189 -0.0749,0.0937 -0.0937,0.58076 -0.0937,0.58076 l 0.67439,0.16861 0.356,-0.14987 c 0,0 0.0937,0.35594 0.2248,0.0187 0.13113,-0.33721 0.2248,0.0562 0.31847,0.0562 0.0937,0 0.58072,0.0562 0.58072,0.0562 l 0.46841,0.0749 0.74932,0.18734 c 0,0 0.31847,0.48708 0.3934,0.54329 0.075,0.0562 0.20606,0.39341 0.20606,0.39341 l 0.14994,0.35595 c 0,0 -0.1312,0.0562 -0.1124,0.16861 0.0187,0.1124 0.281,0.58076 0.281,0.58076 0,0 0.41213,0.18733 0.5058,0.20607 0.0937,0.0187 1.21773,-0.0937 1.46126,-0.0749 0.24353,0.0187 4.15898,-0.48709 4.17772,-0.37468 0.0187,0.11241 0,0.37468 0,0.37468 l 0.63692,0.50582 0.71194,0.33721 c 0,0 1.18026,0.35596 1.29266,0.37469 0.1124,0.0187 0.67439,-0.24355 0.78687,-0.24355 0.11232,0 0.44959,0.0375 0.52453,-0.0562 0.0749,-0.0937 0.14986,-0.33721 0.22479,-0.37467 0.0749,-0.0375 0.43087,-0.22482 0.5058,-0.28102 0.0749,-0.0562 0.14986,-0.31847 0.31846,-0.35595 0.16867,-0.0375 0.56207,-0.1686 0.67447,-0.14987 0.1124,0.0187 1.18019,-0.14987 1.08652,-0.18734 -0.0937,-0.0375 -1.64859,-0.20607 -1.64859,-0.20607 l 1.1428,-0.31848 0.39339,0.13113 0.35601,0.0375 4.98324,-0.56202 c 0,0 -0.1686,0.22481 -0.3372,0.31848 -0.16859,0.0937 -1.14279,0.39341 -1.21772,0.41215 -0.0749,0.0187 -1.33013,0.1124 -1.33013,0.1124 0,0 0.18733,0.43088 0.39339,0.54329 0.20614,0.11241 0.67447,0.39342 0.67447,0.39342 l 0.2248,0.67442 c 0,0 -0.0749,0.29975 0.0375,0.43089 0.11239,0.13114 0.46832,0.29974 0.46832,0.29974 l 0.0562,-0.9929 c 0,0 0.48707,0.14987 0.7494,0.35595 0.26227,0.20607 0.20607,0.22481 0.43087,0.37467 0.22479,0.14988 0.46833,-0.0562 0.54326,-0.11239 0.0749,-0.0562 -0.0187,-0.43089 0.0749,-0.35596 0.0937,0.0749 0.37466,0.13114 0.50587,0.26228 0.13106,0.13114 0.20607,0.35595 0.281,0.39342 0.0749,0.0375 0.61819,0.20607 0.61819,0.20607 0,0 0.48706,0.18734 0.59946,0.28102 0.11248,0.0937 0.31854,0.31847 0.31854,0.31847 0,0 -0.46833,0.28102 -0.54326,0.46836 -0.075,0.18734 -0.22487,0.50582 -0.24361,0.61823 -0.0187,0.1124 -0.28099,0.67442 -0.33719,0.78683 -0.0562,0.1124 -0.1124,0.20608 -0.1124,0.20608 l -1.06787,0.18733 c 0,0 0.54334,0.31848 0.65574,0.31848 0.1124,0 1.49873,-0.46835 1.49873,-0.46835 l 0.65566,0.0187 c 0,0 0.14986,0.0562 0.2998,0 0.14979,-0.0562 0.20607,-0.26228 0.3934,-0.24355 0.18733,0.0187 0.80552,0.26228 0.89919,0.29974 0.0937,0.0375 0.58073,0.44962 0.58073,0.44962 l 0.0562,0.13114 -0.26227,0.44962 c 0,0 -0.22487,0.26228 -0.26234,0.37469 -0.0375,0.11239 -0.39339,0.24353 -0.46833,0.29974 -0.0749,0.0562 -0.61826,0.39341 -0.61826,0.39341 0,0 -0.26227,-0.0375 -0.39333,0.11241 -0.1312,0.14987 -0.48713,0.50582 -0.48713,0.67443 0,0.16861 -0.0749,0.22481 -0.0187,0.33721 0.0562,0.11241 0.29966,0.28101 0.29966,0.28101 0,0 -0.26226,0.31848 -0.18733,0.37469 0.075,0.0562 0.33727,0.16861 0.43094,0.16861 0.0937,0 0.46832,-0.14988 0.46832,-0.14988 l 0.1124,0.41215 c 0,0 -0.20606,0.41215 -0.29973,0.44962 -0.0937,0.0375 -0.50587,0.22481 -0.5808,0.26227 -0.0749,0.0375 -0.59946,0.13114 -0.67439,0.14988 -0.0749,0.0187 -0.37467,0.0187 -0.50587,0.0937 -0.13106,0.0749 -0.41213,0.20607 -0.43079,0.29975 -0.0187,0.0937 0.0187,0.37468 0.0187,0.44961 0,0.0749 0.0937,0.43089 0.0749,0.56203 -0.0187,0.13114 -0.16859,0.46835 -0.16859,0.46835 0,0 -0.46841,0.18734 -0.58081,0.24355 -0.11232,0.0562 0,0.28101 0.0937,0.43088 0.0937,0.14987 0.0937,0.13114 0.44967,0.52455 0.35593,0.39342 0.46833,0.63697 0.56199,0.73063 0.0937,0.0937 0.14994,0.16861 0.33728,0.24355 0.18733,0.0749 0.61819,0.31848 0.61819,0.31848 l 0,0"
       id="path4168-9"
       inkscape:connector-curvature="0" />
    <path
       style="fill:none;stroke:#656464;stroke-width:0.74932605;stroke-linecap:butt;stroke-linejoin:miter;stroke-miterlimit:4;stroke-opacity:1;stroke-dasharray:none;display:inline"
       d="m 568.99264,254.57966 0.48706,0.13114 c 0,0 1.0866,0.41215 1.18026,0.52455 0.0937,0.11241 1.76099,1.31139 1.76099,1.31139 0,0 0,0.28101 0.1124,0.43089 0.1124,0.14987 0.3372,0.50581 0.3372,0.50581 l -0.14987,0.69317 c 0,0 -0.0187,0.18734 -0.0749,0.28101 -0.0562,0.0937 -0.1686,0.39342 -0.14987,0.50582 0.0187,0.1124 -0.18733,1.06785 -0.18733,1.06785 0,0 0.18733,-0.0375 0.24353,-0.13114 0.0562,-0.0937 0.39348,-1.27392 0.48714,-1.29266 0.0937,-0.0187 0.43086,-0.0937 0.43086,-0.0937 0,0 1.08653,0.50583 1.14273,0.58076 0.0562,0.0749 0.18733,0.28101 0.48713,0.54329 0.29973,0.26228 0.5058,0.61822 0.5058,0.61822 0,0 0.39339,-0.0562 0.48706,-0.0187 0.0937,0.0375 0.56207,0.24355 0.56207,0.24355 0,0 0.0937,0.39341 0.0937,0.54328 0,0.14987 -0.13113,0.74937 -0.13113,0.8243 0,0.0749 -0.0187,0.46835 -0.0187,0.46835 0,0 -0.3934,0.29975 -0.35593,0.39342 0.0375,0.0937 0.0562,0.31848 0.13113,0.43089 0.0749,0.1124 0.13113,0.18734 0.0749,0.35594 -0.0562,0.16861 -0.22479,0.39342 -0.22479,0.39342 0,0 -0.52461,0.0375 -0.59946,0.0375 -0.0749,0 -0.61827,0.0562 -0.61827,0.0562 0,0 -0.3372,0.20607 -0.3934,0.28101 -0.0562,0.0749 -0.20614,0.24354 -0.20614,0.24354 0,0 0.31854,0.14987 0.31854,0.24354 0,0.0937 -0.6932,1.6486 -0.6932,1.6486 0,0 0.0562,0.69317 0.1686,0.73063 0.1124,0.0375 0.48706,0 0.50587,0.22482 0.0187,0.2248 -0.0187,0.33721 0.0749,0.41215 0.0937,0.0749 0.31846,0.0187 0.35593,0.1686 0.0375,0.14988 0.0375,0.41216 0.0562,0.50582 0.0187,0.0937 -0.0187,0.0749 0.1686,0.11241 0.1874,0.0375 0.88053,-0.0937 0.88053,-0.0937 l 0.29973,1.19898 c 0,0 -0.0749,0.31848 0.0562,0.48709 0.13113,0.1686 0.1124,0.26228 0.29973,0.43088 0.18741,0.16861 0.93673,1.5362 1.01167,1.5362 0.0749,0 0.48706,0.0562 0.48706,0.0562 l 0.20606,0.31848"
       id="path4188-2"
       inkscape:connector-curvature="0" />
    <path
       style="fill:none;stroke:#656464;stroke-width:0.74932605;stroke-linecap:butt;stroke-linejoin:miter;stroke-miterlimit:4;stroke-opacity:1;stroke-dasharray:none;display:inline"
       d="m 576.6736,262.27938 0.35593,-1.14278 c 0,0 0.20607,-0.16861 0.5058,-0.16861 0.2998,0 1.7236,0.0375 1.7236,0.11241 0,0.0749 0.29973,0.33721 0.48706,0.35594 0.18733,0.0187 0.61819,0.0937 0.61819,0.0937 0,0 -0.2248,-0.33721 -0.0937,-0.35595 0.1312,-0.0187 0.1686,-0.20607 0.44967,-0.1686 0.28099,0.0375 0.88053,0.0749 0.88053,0.0749 l 1.25512,0.20607 c 0,0 -0.41213,-0.26228 -0.26226,-0.26228 0.14986,0 1.46126,-0.0749 1.59239,0 0.13113,0.0749 1.27393,0.37469 1.27393,0.37469 l 0.29973,0.0187 0,0.29974 c 0,0 -0.0187,0.39342 -0.0937,0.56203 -0.0749,0.1686 -0.13113,0.35594 -0.26226,0.46835 -0.13113,0.11241 -0.26226,0.14987 -0.37474,0.29974 -0.1124,0.14988 -0.37466,0.52456 -0.44959,0.61823 -0.0749,0.0937 -0.13114,0.24354 -0.14987,0.35594 -0.0187,0.11241 0.0937,0.41216 0.075,0.52456 -0.0187,0.11241 0.11232,0.73063 0.13106,0.82431 0.0187,0.0937 -0.0562,0.46835 0,0.54328 0.0562,0.0749 0.14994,0.0937 0.14994,0.18735 0,0.0937 -0.14994,0.1686 -0.075,0.33721 0.075,0.1686 0.2436,0.31848 0.28107,0.43088 0.0375,0.11241 0.11232,0.14988 0.24353,0.35595 0.13113,0.20608 0.54326,0.50582 0.54326,0.50582 l -0.33719,0.7119 c 0,0 -0.281,0.24354 -0.281,0.43088 0,0.18734 -0.0375,0.43089 -0.0375,0.43089 l 0.13113,0.37468 c 0,0 -0.39339,0.71189 -0.43086,0.8243 -0.0375,0.1124 -0.29973,0.54328 -0.29973,0.54328 l -0.26226,0.18735"
       id="path4190-0"
       inkscape:connector-curvature="0" />
    <path
       style="fill:none;stroke:#656464;stroke-width:0.74932605;stroke-linecap:butt;stroke-linejoin:miter;stroke-miterlimit:4;stroke-opacity:1;stroke-dasharray:none;display:inline"
       d="m 585.94696,261.79229 c 0,0 0.41221,-0.22481 0.5058,-0.16861 0.0937,0.0562 0.22487,0.24355 0.4684,0.28101 0.24353,0.0375 1.29259,0.16861 1.49873,0.26228 0.20606,0.0937 0.18733,-0.0375 0.44959,0.14987 0.26227,0.18734 0.26227,0.22482 0.54334,0.48709 0.281,0.26228 0.44959,0.39342 0.71186,0.61823 0.26226,0.22481 0.3372,0.37468 0.3372,0.37468 l -0.0187,0.43088 c 0,0 0.0562,0.16861 0.13121,0.16861 0.0749,0 0.35593,-0.43089 0.35593,-0.43089 l 0.31846,0.28102 0.29973,0.31848 c 0,0 0.0562,0.13113 0.0562,0.37468 0,0.24355 -0.0187,0.54329 -0.0187,0.54329 0,0 0.22487,-0.91797 0.43094,-0.84303 0.20606,0.0749 0.37466,0.14987 0.37466,0.14987 0,0 -0.0749,0.28101 -0.0562,0.43088 0.0187,0.14988 0.26226,0.61823 0.26226,0.61823 0,0 -0.0187,0.13114 -0.0562,0.28101"
       id="path4192-2"
       inkscape:connector-curvature="0"
       sodipodi:nodetypes="ccsccccccscccscccccc" />
  </g>
  <g
     inkscape:groupmode="layer"
     id="layer10"
     inkscape:label="labels">
    <text
       xml:space="preserve"
       style="font-size:13px;font-style:normal;font-variant:normal;font-weight:bold;font-stretch:normal;text-align:start;line-height:125%;letter-spacing:0px;word-spacing:0px;writing-mode:lr-tb;text-anchor:start;fill:#000000;fill-opacity:1;stroke:none;display:inline;font-family:DejaVu Sans;-inkscape-font-specification:DejaVu Sans Bold"
       x="373.43863"
       y="98.909348"
       id="text4256-3"
       sodipodi:linespacing="125%"><tspan
         sodipodi:role="line"
         x="373.43863"
         y="98.909348"
         id="tspan5695">Wawi</tspan><tspan
         sodipodi:role="line"
         x="373.43863"
         y="115.15935"
         id="tspan5707">Indigenous </tspan><tspan
         sodipodi:role="line"
         x="373.43863"
         y="131.40935"
         id="tspan5709">   Land</tspan></text>
  </g>
</svg>
