<?xml version="1.0" encoding="UTF-8" standalone="no"?>
<!-- Created with Inkscape (http://www.inkscape.org/) -->

<svg
   xmlns:dc="http://purl.org/dc/elements/1.1/"
   xmlns:cc="http://creativecommons.org/ns#"
   xmlns:rdf="http://www.w3.org/1999/02/22-rdf-syntax-ns#"
   xmlns:svg="http://www.w3.org/2000/svg"
   xmlns="http://www.w3.org/2000/svg"
   xmlns:xlink="http://www.w3.org/1999/xlink"
   xmlns:sodipodi="http://sodipodi.sourceforge.net/DTD/sodipodi-0.dtd"
   xmlns:inkscape="http://www.inkscape.org/namespaces/inkscape"
   id="svg3056"
   version="1.1"
   inkscape:version="0.48.4 r9939"
   width="679"
   height="928.65625"
   sodipodi:docname="wawi.svg">
  <metadata
     id="metadata3062">
    <rdf:RDF>
      <cc:Work
         rdf:about="">
        <dc:format>image/svg+xml</dc:format>
        <dc:type
           rdf:resource="http://purl.org/dc/dcmitype/StillImage" />
        <dc:title></dc:title>
      </cc:Work>
    </rdf:RDF>
  </metadata>
  <defs
     id="defs3060">
    <filter
       inkscape:collect="always"
       id="filter3934"
       color-interpolation-filters="sRGB">
      <feGaussianBlur
         inkscape:collect="always"
         stdDeviation="0.3173128"
         id="feGaussianBlur3936" />
    </filter>
    <filter
       inkscape:collect="always"
       id="filter3938"
       color-interpolation-filters="sRGB">
      <feGaussianBlur
         inkscape:collect="always"
         stdDeviation="0.3173128"
         id="feGaussianBlur3940" />
    </filter>
    <filter
       color-interpolation-filters="sRGB"
       id="filter4719"
       inkscape:label="Drop Shadow">
      <feFlood
         id="feFlood4721"
         flood-opacity="0.987"
         flood-color="rgb(0,0,0)"
         result="flood" />
      <feComposite
         id="feComposite4723"
         in2="SourceGraphic"
         in="flood"
         operator="in"
         result="composite1" />
      <feGaussianBlur
         id="feGaussianBlur4725"
         stdDeviation="0.9"
         result="blur" />
      <feOffset
         id="feOffset4727"
         dx="-2"
         dy="2"
         result="offset" />
      <feComposite
         id="feComposite4729"
         in2="offset"
         in="SourceGraphic"
         operator="over"
         result="fbSourceGraphic" />
      <feColorMatrix
         result="fbSourceGraphicAlpha"
         in="fbSourceGraphic"
         values="0 0 0 -1 0 0 0 0 -1 0 0 0 0 -1 0 0 0 0 1 0"
         id="feColorMatrix4731" />
      <feFlood
         id="feFlood4733"
         flood-opacity="0.987"
         flood-color="rgb(0,0,0)"
         result="flood"
         in="fbSourceGraphic" />
      <feComposite
         id="feComposite4735"
         in2="fbSourceGraphic"
         in="flood"
         operator="in"
         result="composite1" />
      <feGaussianBlur
         id="feGaussianBlur4737"
         stdDeviation="0.9"
         result="blur" />
      <feOffset
         id="feOffset4739"
         dx="-2"
         dy="2"
         result="offset" />
      <feComposite
         id="feComposite4741"
         in2="offset"
         in="fbSourceGraphic"
         operator="over"
         result="composite2" />
    </filter>
  </defs>
  <sodipodi:namedview
     pagecolor="#ffffff"
     bordercolor="#666666"
     borderopacity="1"
     objecttolerance="10"
     gridtolerance="10"
     guidetolerance="10"
     inkscape:pageopacity="0"
     inkscape:pageshadow="2"
     inkscape:window-width="1920"
     inkscape:window-height="1178"
     id="namedview3058"
     showgrid="false"
     inkscape:zoom="0.64"
     inkscape:cx="584.56662"
     inkscape:cy="290.07048"
     inkscape:window-x="2560"
     inkscape:window-y="0"
     inkscape:window-maximized="1"
     inkscape:current-layer="layer4"
     fit-margin-top="0"
     fit-margin-left="0"
     fit-margin-right="0"
     fit-margin-bottom="0" />
  <g
     inkscape:groupmode="layer"
     id="layer12"
     inkscape:label="bg"
     transform="translate(-567.21875,0.78125)">
    <rect
       style="color:#000000;fill:#ffffff;fill-opacity:1;fill-rule:nonzero;stroke:none;stroke-width:4;stroke-linecap:butt;stroke-linejoin:miter;stroke-miterlimit:4;stroke-opacity:1;stroke-dasharray:none;stroke-dashoffset:0;marker:none;visibility:visible;display:inline;overflow:visible;enable-background:accumulate"
       id="rect5888"
       width="675.01147"
       height="924.64587"
       x="569.20764"
       y="1.2282763"
       ry="0" />
  </g>
  <g
     inkscape:groupmode="layer"
     id="layer3"
     inkscape:label="Layer"
     style="display:none"
     transform="translate(-567.21875,0.78125)">
    <image
       width="1771"
       height="927"
       xlink:href="file:///home/nordhofs/versioning/git/langsci/books/Stenzel/3829919rbmqbt/figures/wawi.png"
       id="image3064"
       x="-1.1368684e-13"
       y="0" />
  </g>
  <g
     inkscape:groupmode="layer"
     id="layer4"
     inkscape:label="terras"
     style="display:inline"
     transform="translate(-567.21875,0.78125)">
    <g
       id="g3942"
       style="stroke:#004900;stroke-width:2;stroke-miterlimit:4;stroke-opacity:1;stroke-dasharray:none">
      <path
         inkscape:connector-curvature="0"
         id="path3087"
         d="m 601.13438,520.37751 0.92625,397.36002 272.31665,0 125.96962,-102.81343 -5.55749,-9.26247 -7.40998,-1.8525 -0.92624,-12.96746 -8.33623,-8.33622 -7.40997,5.55748 -4.63124,-3.70499 0,-6.48373 -9.26247,-7.40997 c 0,0 -8.11006,-2.29098 -7.78258,-4.25585 0.32748,-1.96486 -0.65496,-4.91216 -0.65496,-4.91216 0,0 -4.58469,-2.61983 -4.25721,-3.92974 0.32748,-1.30991 0.32748,-6.87703 0.32748,-6.87703 l 4.25721,-7.53199 -3.92973,-4.58469 -3.92974,-3.60226 -4.91217,-2.29234 0.32748,-3.27478 -6.54955,-2.29234 -4.25722,-0.98244 -1.63738,-11.13424 -8.84191,4.58469 -2.61982,-7.85947 c 0,0 -4.58469,-2.9473 -4.58469,-4.25721 0,-1.30991 -1.30991,-4.91217 -1.30991,-4.91217 l -10.15181,-0.98243 c 0,0 -7.85947,0.98243 -7.20451,-0.65496 0.65495,-1.63739 2.9473,-5.8946 2.9473,-5.8946 l -4.25721,-3.60225 3.92973,-8.51443 c 0,0 -8.8419,-0.98243 -7.20451,-2.9473 1.63739,-1.96486 -3.60226,-12.77163 -3.60226,-14.08154 0,-1.30991 -2.9473,-6.54956 -2.9473,-6.54956 0,0 -3.60225,-3.60226 -3.60225,-4.91217 0,-1.30991 -2.61983,-9.49685 -2.61983,-9.49685 l -4.25721,-3.92974 c 0,0 -8.51442,-3.92973 -9.82433,-5.56712 -1.30991,-1.63739 -5.23965,-5.56712 -6.54956,-5.23964 -1.30991,0.32747 -5.56712,2.61982 -5.56712,2.61982 l -3.92973,-10.15181 -11.78921,-2.61983 c 0,0 -6.54955,-8.8419 -7.20451,-10.47929 -0.65495,-1.63739 -5.23964,-8.51442 -5.23964,-10.15181 0,-1.63739 -3.60226,-11.46172 -3.27478,-14.08155 0.32748,-2.61982 -1.30991,-13.42659 -0.98243,-14.7365 0.32747,-1.30991 -0.65496,-9.16938 0.65495,-11.13424 1.30991,-1.96487 3.92973,-9.49686 3.92973,-9.49686 0,0 4.25722,-7.53199 4.91217,-8.8419 0.65496,-1.30991 -0.98243,-7.53199 -0.98243,-7.53199 0,0 8.51442,-4.58469 8.51442,-6.54956 0,-1.96486 -0.98243,-8.18694 -0.98243,-8.18694 l 10.15181,-9.82434 30.45544,-34.05769 3.60225,-9.16938 10.80677,-7.85946 11.13425,-15.71894 3.60225,-5.8946 c 0,0 8.18695,0.98243 8.18695,-0.65495 0,-1.63739 -4.91217,-10.47929 -3.92974,-11.78921 0.98244,-1.30991 5.56713,-9.82433 5.56713,-9.82433 0,0 -1.30991,-9.82433 -1.30991,-11.7892 0,-1.96487 -1.63739,-10.80677 -3.27478,-13.09911 -1.63739,-2.29235 -5.8946,-7.53199 -5.8946,-7.53199 l -2.61983,-3.27478 1.96487,-1.96487 c 0,0 -3.92973,-7.85947 -4.25721,-9.16938 -0.32748,-1.30991 -4.58469,-8.8419 -4.58469,-11.13424 0,-2.29235 -1.30991,-9.16938 -1.30991,-9.16938 0,0 3.60225,-7.85947 7.53199,-10.15181 3.92973,-2.29235 11.46172,-4.91217 11.46172,-4.91217 l 2.61982,-7.53199 c 0,0 8.84191,-1.30991 11.13425,-1.96487 2.29234,-0.65495 15.39146,-2.29234 17.02885,-2.9473 1.63739,-0.65495 5.56712,-8.51442 5.56712,-8.51442 0,0 -1.63739,-6.87703 -3.92973,-7.20451 -2.29235,-0.32748 -4.58469,0.32748 -5.89461,-0.65496 -1.30991,-0.98243 -9.49685,-10.47929 -9.49685,-10.47929 l -9.16938,0.32748 c 0,0 -10.47929,2.29234 -16.37389,4.58469 -5.8946,2.29234 -11.7892,4.91217 -15.71894,5.23964 -3.92973,0.32748 -9.82433,0.65496 -9.82433,0.65496 l -12.77164,-3.27478 c 0,0 -12.11667,-0.98243 -14.40902,-1.63739 -2.29234,-0.65495 -11.7892,-7.20451 -11.7892,-7.20451 l -25.54327,-16.70137 c 0,0 -13.09911,-11.46172 -14.7365,-12.11668 -1.63739,-0.65495 -12.44416,-3.60225 -14.7365,-5.23964 -2.29235,-1.63739 -21.94102,-8.51443 -21.94102,-8.51443 l -44.2095,145.07268 -13.09911,7.20451 -6.54956,-0.65496 -2.29234,7.53199 c 0,0 -3.60226,7.20451 -4.91217,5.8946 -1.30991,-1.30991 -2.61982,-6.22208 -2.9473,-2.9473 -0.32748,3.27478 -0.98243,5.56712 -0.98243,5.56712 l -4.58469,0.32748 0,4.25721 -5.56713,-3.92973 -1.30991,5.23964 -1.63739,5.56713 0,2.29234 -3.27478,2.9473 c 0,0 -2.9473,11.13425 -3.60225,12.77164 -0.65496,1.63739 -0.65496,5.56712 -3.27478,8.8419 -2.61982,3.27478 -2.29234,3.92973 -3.92973,4.58469 -1.63739,0.65495 -6.54956,0.98243 -6.54956,0.98243 0,0 0.98243,3.92973 0.98243,5.56712 0,1.63739 -0.98243,8.8419 -0.98243,8.8419 0,0 -1.63739,5.89461 -1.63739,7.53199 0,1.63739 -2.9473,6.87704 -2.9473,6.87704 l -1.30991,7.85947 -4.58469,2.9473 -16.04641,6.87703 -8.51442,4.91217 -3.92974,-2.9473 -5.23964,5.56712 z"
         style="fill:#ebfbf1;fill-opacity:1;stroke:#425b42;stroke-width:2;stroke-linecap:butt;stroke-linejoin:miter;stroke-miterlimit:4;stroke-opacity:1;stroke-dasharray:none" />
    </g>
    <path
       inkscape:connector-curvature="0"
       id="path3087-7"
       d="m 871.77119,302.89201 -12.77164,-3.27478 c 0,0 -12.11667,-0.98243 -14.40902,-1.63739 -2.29234,-0.65495 -11.7892,-7.20451 -11.7892,-7.20451 l -25.54327,-16.70137 c 0,0 -13.09911,-11.46172 -14.7365,-12.11668 -1.63739,-0.65495 -12.44416,-3.60225 -14.7365,-5.23964 -2.29235,-1.63739 -21.31959,-8.47218 -21.31959,-8.47218 l 27.51641,-156.641357 -3.27478,-0.982433 -2.61982,-8.841901 -3.92973,0.982433 -1.30992,-4.257211 -7.85946,-3.602256 -5.56713,-0.654956 -6.22207,2.292345 c 0,0 -3.92974,-1.637389 -5.23965,-4.584689 -1.30991,-2.947301 -1.96487,-2.947301 -1.96487,-2.947301 l -6.54955,0.654956 1.63739,-69.4252961 12.77163,0 9.16938,2.2923447 14.08155,-0.9824335 15.39145,-0.3274778 c 0,0 7.85947,-0.65495559 11.13425,-0.65495559 3.27478,0 12.44416,0 12.44416,0 l 5.56712,2.61982249 c 0,0 4.25721,2.6198225 5.56712,3.2747781 1.30991,0.6549556 13.42659,-4.2572115 12.77164,0.3274778 -0.65496,4.5846889 -0.32748,16.0464129 -0.32748,16.0464129 l 90.38387,15.391457 6.54956,5.239645 6.54956,2.292345 -2.29235,5.8946 -47.48428,55.34375 c 0,0 4.58469,4.91217 6.22208,4.91217 1.63739,0 3.92973,0.32748 7.20451,0 3.27478,-0.32748 11.13425,-1.30991 11.13425,-1.30991 l -11.13425,81.86945 -19.37092,108.86183 c -3.35554,1.12787 -15.56107,1.81154 -15.64395,1.56291 z"
       style="fill:#ebfbf1;fill-opacity:1;stroke:#425b42;stroke-width:2;stroke-linecap:butt;stroke-linejoin:miter;stroke-miterlimit:4;stroke-opacity:1;stroke-dasharray:none;display:inline"
       sodipodi:nodetypes="ccsccsscccccccccscccccccsccssccccccsscccc" />
  </g>
  <g
     inkscape:groupmode="layer"
     id="layer6"
     inkscape:label="wawi"
     style="display:inline"
     transform="translate(-567.21875,0.78125)">
    <path
       style="fill:#c7ecca;fill-opacity:1;stroke:#6b9b6a;stroke-width:5;stroke-linecap:butt;stroke-linejoin:miter;stroke-miterlimit:4;stroke-opacity:1;stroke-dasharray:none"
       d="m 862.33607,491.66385 c 1.36315,0.98075 0.92625,4.63124 1.8525,8.33623 0.92624,3.70498 0.77187,1.23499 3.24186,3.24186 2.46999,2.00687 4.2287,5.93224 7.40998,6.02061 3.59922,0.1 6.17498,-3.70499 9.26247,-5.55749 3.08749,-1.8525 0,2.31562 -0.92625,6.02061 -0.92624,3.70499 1.8525,4.16811 2.77874,7.8731 0.92625,3.70499 0,8.33623 -0.46312,11.11497 -0.46312,2.77874 4.9323,0.22604 6.48373,1.85249 1.86086,1.95085 1.85249,7.8731 1.85249,7.8731 l 0.46313,10.65184 2.31562,7.8731 3.70498,5.09436 -1.38937,8.79935 0,8.79935 0.92625,6.48373 -0.46312,6.0206 c 0,0 9.26247,12.50434 10.18872,14.81996 0.92624,2.31562 -0.92625,6.0206 -0.92625,6.0206 l -26.86117,-11.57808 -4.16811,33.80802 -7.57809,5.33572 c 0,0 -10.99813,-3.68837 -12.30803,-5.32576 -1.3099,-1.63739 -5.2397,-5.56712 -6.5496,-5.23964 -1.3099,0.32747 -5.5671,2.61982 -5.5671,2.61982 l -3.9297,-10.15181 -11.7893,-2.61983 c 0,0 -6.5495,-8.8419 -7.20446,-10.47929 -0.65495,-1.63739 -5.23964,-8.51442 -5.23964,-10.15181 0,-1.63739 -3.60226,-11.46172 -3.27478,-14.08155 0.32748,-2.61982 -1.30991,-13.42659 -0.98243,-14.7365 0.32747,-1.30991 -0.65496,-9.16938 0.65495,-11.13424 1.30991,-1.96487 3.92973,-9.49686 3.92973,-9.49686 0,0 4.25722,-7.53199 4.91217,-8.8419 0.65496,-1.30991 -1.95136,-5.19279 -0.98243,-7.53199 1.37026,-3.30812 8.51439,-4.58469 8.51439,-6.54956 0,-1.96486 -4.36633,-4.91216 -0.9824,-8.18694 3.38393,-3.27478 6.87519,-6.44219 10.1518,-9.82434 6.39402,-6.59997 11.49563,-14.60759 18.85238,-20.11407 1.34441,-1.00628 2.72631,1.96149 4.08946,2.94224 z"
       id="path3112"
       inkscape:connector-curvature="0"
       sodipodi:nodetypes="sssssssssccccccccsccccsscccssssscsssssss" />
  </g>
  <g
     inkscape:groupmode="layer"
     id="layer5"
     inkscape:label="rivers"
     style="display:inline"
     transform="translate(-567.21875,0.78125)">
    <path
       style="fill:none;stroke:#787ad5;stroke-width:6;stroke-linecap:butt;stroke-linejoin:miter;stroke-miterlimit:4;stroke-opacity:1;stroke-dasharray:none;display:inline;filter:url(#filter3938)"
       d="m 894.13259,809.35286 c 1.05011,-3.6501 -8.9056,-2.7772 -12.04121,-9.2625 -2.61744,-5.4135 0.2095,-10.1825 -4.63124,-12.9674 -3.22002,-1.8526 -3.33207,4.1779 -11.11496,-2.7788 -3.20524,-2.8649 3.54022,-6.4623 -6.48373,-12.9674 -3.14947,-2.0439 -1.84796,-8.0718 -7.87311,-6.4838 -3.9832,1.0499 -3.24186,-9.2624 -4.16811,-12.9674 -0.92624,-3.705 -0.57041,-8.564 -2.77874,-12.0412 -2.94702,-4.6404 -9.61945,-5.8288 -12.96746,-10.1887 -2.86418,-3.7299 -2.48919,-9.40362 -5.55748,-12.9675 -8.91643,-10.3566 -14.82054,2.32409 -14.81995,-6.48373 3.1e-4,-4.5771 -0.61918,-3.38729 -6.94685,-7.40998 -3.25738,-2.07081 -6.51477,-4.14163 -9.77215,-6.21244 -6.72089,-4.27267 -4.59063,-10.62846 -6.43718,-16.01749 -1.86522,-5.44351 -7.40998,-8.33622 -7.40998,-12.04121 0,-3.70499 -1.39953,-10.27975 -3.70499,-14.81996 -2.18358,-4.30018 -5.65649,-7.91239 -9.26247,-11.11496 -5.50661,-4.89057 -11.9593,-8.70462 -18.52494,-12.04121 -6.18539,-3.14334 -14.13191,-2.95521 -19.45119,-7.40998 -4.14064,-3.46769 -5.55748,-4.63124 -8.33622,-13.89371 -2.77875,-9.26247 -4.66002,-13.48665 -6.48373,-20.37743 -1.71957,-6.49728 -6.04389,-16.01749 -4.19139,-19.72248 1.85249,-3.70499 13.83456,-22.10247 8.82262,-31.68424 -3.55353,-6.7936 8.53715,-9.18178 7.8731,-13.43058 -1.30717,-8.36368 11.50895,-7.39294 10.65184,-13.89371 -2.93422,-22.25457 2.12757,-19.10316 11.11497,-12.96746 5.4092,3.69286 9.33495,-3.82922 6.48372,-9.72559 -5.68647,-11.75969 9.97997,-4.00044 21.30369,-17.13558 5.84633,-6.78155 3.69101,-18.39407 15.28308,-23.15618 6.40524,-2.63132 19.78196,-6.85115 16.91083,-11.93848 -1.19023,-2.10895 -4.73179,-11.30807 1.16063,-17.48632 3.88851,-4.07713 -0.01,-20.59254 -1.86214,-24.29753 -1.85249,-3.70499 -5.55748,-18.52494 -9.26247,-23.15618 -3.70499,-4.63123 -9.7043,-8.17111 -10.18871,-13.8937 -0.58914,-6.95983 4.81261,-13.45116 9.37484,-18.74005 4.69335,-5.44091 13.94989,-11.44244 17.65488,-12.36869 3.70499,-0.92625 14.42171,-3.73645 21.13513,-6.86739 2.63977,-1.23111 5.55748,0 7.40997,-4.63124 1.8525,-4.63124 7.40998,-15.7462 7.40998,-19.45119 0,-3.70499 -1.85249,-12.96746 -0.92625,-17.5987 0.92625,-4.63123 3.70499,-10.18871 3.70499,-14.81995 0,-4.63123 0.92625,-19.45119 1.8525,-24.08242 0.92624,-4.63124 -3.92973,-3.70499 -0.22475,-13.89371 3.70499,-10.18872 5.99733,-12.36869 5.99733,-19.77867 0,-7.40998 -0.2151,-10.78749 1.63739,-16.34497 1.8525,-5.55748 4.23522,-7.99267 7.40998,-11.11496 3.6637,-3.60314 10.18872,-4.63124 12.96746,-8.33623 2.77874,-3.70499 3.54805,-8.47475 3.70499,-12.96746 0.57288,-16.40023 -13.58568,-32.11005 -10.18872,-48.16485 1.41907,-6.70686 7.59641,-11.453313 12.04121,-16.672453 3.39723,-3.98908 7.50261,-7.3196 11.11497,-11.11497 4.07548,-4.28194 9.37393,-9.39814 11.90545,-13.14388 2.69916,-3.99379 6.95637,-9.56092 8.92124,-10.21587 1.96487,-0.65496 3.60226,-1.63739 5.23964,-3.27478 1.63739,-1.63739 3.60226,-4.25721 4.58469,-6.22208 0.98244,-1.96487 3.27478,-8.18694 4.91217,-9.82433 1.63739,-1.63739 8.36199,-5.65787 13.09911,-7.20451 3.24349,-1.05899 7.53199,0.32747 10.15182,-1.30992 2.61982,-1.63738 5.23964,-3.92973 7.20451,-5.56712 1.96486,-1.63739 6.22208,-6.87703 7.20451,-8.18694 0.98243,-1.30992 10.43644,-20.3831961 10.43644,-20.3831961"
       id="path3114"
       inkscape:connector-curvature="0"
       sodipodi:nodetypes="csssssssssssssssssssssssssssssssssssssssssssssssssssssssssssc" />
    <path
       style="fill:none;stroke:#787ad5;stroke-width:6;stroke-linecap:butt;stroke-linejoin:miter;stroke-miterlimit:4;stroke-opacity:1;stroke-dasharray:none;filter:url(#filter3934)"
       d="m 1171.3881,732.80566 c 0,-0.65496 -3.111,-7.04079 -3.2747,-7.69573 -0.1638,-0.65497 2.8211,-4.851 2.2923,-7.36825 -0.342,-1.62803 -2.7836,-2.9473 -3.2748,-3.766 -0.4912,-0.81869 -3.9297,-3.11104 -3.9297,-4.58469 0,-1.47365 -0.4912,-2.12862 -0.9824,-3.43851 -0.4913,-1.30993 -3.6023,-3.60227 -3.766,-4.42095 -0.1638,-0.81871 1.1461,-4.91216 1.3099,-5.73086 0.1637,-0.81869 0.1637,-7.53199 0.1637,-8.67817 0,-1.14617 0,-5.45796 -3.4385,-6.71329 -3.4385,-1.25533 -7.2747,-1.72828 -10.3156,-3.766 -2.4501,-1.64181 -3.7114,-4.58469 -5.5671,-6.87703 -1.8557,-2.29234 -5.2396,-8.18695 -5.2396,-9.00564 0,-0.8187 -3.9298,-3.60226 -4.7485,-4.58469 -0.8187,-0.98243 -2.9086,-4.67915 -5.2396,-5.8946 -1.6568,-0.86388 -5.5671,-1.14617 -5.5671,-0.65496 0,0.49122 -5.5671,-7.36824 -5.7309,-8.0232 -0.1637,-0.65495 -2.4561,-3.76602 -3.111,-4.58469 -0.655,-0.81872 -5.2397,-4.25721 -4.0935,-4.25721 1.1462,0 1.8557,-1.03701 2.9473,-0.16374 1.0916,0.87327 2.1832,1.74655 3.2748,2.61982 1.0916,0.87327 2.9473,-0.49121 2.7835,-1.47365 -0.1637,-0.98242 -2.1286,-3.60227 -3.2747,-3.766 -1.1462,-0.16374 -5.3489,-1.52822 -6.8771,-2.1286 -1.5282,-0.60038 -3.0565,-1.20075 -4.5847,-1.80113 -1.5282,-0.60038 -5.0759,-6.54955 -5.0759,-7.85947 0,-1.30991 -0.1091,-3.27478 -2.2923,-4.58469 -2.1832,-1.30991 -4.3664,-2.61982 -6.5496,-3.92973 -2.1832,-1.30991 -3.6022,-2.61982 -3.6022,-3.92973 0,-1.30991 -0.9673,-7.28028 -2.6198,-10.47929 -0.9238,-1.78831 -4.5847,-1.96488 -3.9298,-4.58469 0.655,-2.61983 1.6374,-4.25723 0.9825,-5.8946 -0.655,-1.63741 -4.5847,-8.8419 -6.2221,-8.18695 -1.6374,0.65496 -4.5847,3.92974 -4.9122,2.29235 -0.3275,-1.63739 -1.1073,-4.85056 -2.9473,-6.22208 -1.1512,-0.85805 -2.2923,0.65495 -4.2572,-0.65496 -1.9649,-1.30991 -10.1518,-4.58469 -10.1518,-5.8946 0,-1.30991 -2.9473,-7.53199 -5.5671,-7.20451 -2.6198,0.32748 -5.2397,0.65495 -7.8595,0.98243 -2.6198,0.32748 0.3275,3.92972 -2.2923,-0.65495 -2.6199,-4.58471 -4.039,-6.54955 -5.8947,-5.8946 -1.8557,0.65495 -3.7114,1.30991 -5.5671,1.96486 -1.8557,0.65495 -3.2748,-1.63738 -1.6374,-2.61982 1.6374,-0.98243 3.9996,-1.04703 3.9298,-2.61982 -0.061,-1.36643 -2.2924,-2.29235 -3.6023,-1.96487 -1.3099,0.32748 -2.6198,3.27478 -5.5671,2.61982 -2.9473,-0.65495 -4.4233,-1.71016 -6.2221,-0.65495 -2.1512,1.2619 -1.9649,8.8419 -2.9473,6.87703 -0.9824,-1.96486 -5.8946,-6.71329 -4.9122,-8.67816 0.9825,-1.96487 0.7642,-2.45608 -1.63734,-2.1286 -2.4015,0.32748 -5.33591,-0.5612 -7.20451,0.98243 -1.34915,1.11451 -0.21832,3.49309 -0.32748,5.23964 -0.10916,1.74655 -2.9473,4.25722 -3.60226,2.9473 -0.65495,-1.30991 -1.52822,-3.92973 -4.91216,-4.25721 -3.38394,-0.32748 -7.5151,1.16373 -10.15182,-0.98243 -2.89333,-2.35504 -1.59923,-7.56616 -3.92973,-10.47929 -0.82958,-1.03698 -3.23074,-0.47418 -3.92973,0.65495 -1.09318,1.76591 1.72854,5.92836 -0.32748,6.22208 -3.9734,0.56763 -7.90997,-2.19427 -11.13425,-4.58469 -3.30088,-2.4472 -3.91332,-8.35119 -7.85947,-9.49685 -2.22132,-0.6449 -0.26173,5.44195 -2.29234,6.54955 -1.62912,0.88861 -3.20384,-1.89507 -4.91217,-2.61982 -1.90666,-0.80889 -3.91873,-1.34388 -5.8946,-1.96487 -1.84532,-0.57996 -4.95544,0.19766 -5.56712,-1.63738 -0.50967,-1.52901 2.83814,-1.52823 4.25721,-2.29235 1.41907,-0.76412 -3.60225,-6.22208 -4.58469,-3.27478 -0.98243,2.9473 -0.87328,3.49309 -1.96487,2.61982 -1.09159,-0.87327 -1.88379,-2.75892 -3.27477,-2.61982 -1.53608,0.15361 -1.76895,3.61481 -3.27478,3.27478 -2.87689,-0.64962 -4.32166,-4.09453 -6.87704,-5.56712 -3.93725,-2.26893 -8.10965,-4.20256 -12.44415,-5.56713 -1.66595,-0.52446 -3.97971,-1.20954 -5.23965,0 -2.01842,1.93768 -0.79743,7.47442 -5.93865,8.73786 -3.07142,0.75479 -1.60198,-6.5316 -2.52823,-10.23659 -0.92624,-3.70499 -3.70498,-4.16811 -2.77874,-7.8731 0.92625,-3.70499 4.01374,-7.87311 0.92625,-6.02061 -3.08749,1.8525 -5.66326,5.65747 -9.26247,5.55749 -3.18129,-0.0884 -4.93999,-4.01374 -7.40998,-6.02061 -2.46999,-2.00687 -2.31562,0.46312 -3.24186,-3.24186 -0.92625,-3.70499 -0.48935,-7.35548 -1.8525,-8.33623 -1.36315,-0.98075 -1.94081,-2.68087 -3.39477,-3.52114 -1.04511,-0.60399 -2.90167,-0.41163 -4.05063,-0.7817 -0.27552,-0.0887 -1.67883,0.0579 -3.12609,-0.40523 -1.44726,-0.46312 -2.89452,-0.92625 -4.34178,-1.38937 -1.44726,-0.46312 -0.81047,-0.81047 -0.6368,-1.15781 0.17368,-0.34735 0.57891,-2.48929 0.69469,-2.83664 0.11578,-0.34734 -0.11578,-2.02616 0.23156,-2.66296 0.34734,-0.63679 0.17367,-1.04202 0.69469,-1.27359 0.52101,-0.23156 2.3735,-0.63679 2.77874,-0.86835 0.40523,-0.23156 1.64511,-0.72269 2.19983,-1.38937 0.33233,-0.3994 0.57891,-1.09992 0.57891,-1.44726 0,-0.34735 -1.04203,-1.79461 -1.27359,-1.91039 -0.23156,-0.11578 -1.15782,-1.40867 -1.96828,-0.86836 -0.81046,0.54031 -1.54464,1.21787 -2.43139,1.62094 -0.83514,0.37961 -1.74584,0.67384 -2.66297,0.69468 -0.21569,0.005 0.12278,-0.42116 0.11579,-0.63679 -0.10895,-3.35943 1.40132,-7.27626 -0.46313,-10.07294 -1.35192,-2.02788 -4.78561,-0.92625 -7.17841,-1.38937 -2.3928,-0.46312 -3.24187,-1.38937 -3.01031,-2.54718 0.23156,-1.15781 0.6175,-6.25217 -0.69468,-6.25217 -1.31218,0 -3.0087,0.92785 -3.93655,0 -1.04274,-1.04274 0.57961,-3.35693 -0.46313,-4.39967 -0.74236,-0.74236 -2.00687,0.6175 -3.0103,0.92625 -1.00343,0.30875 -3.0103,-2.77875 -3.24186,-3.70499 -0.23157,-0.92625 -2.77875,-2.31562 -3.24187,-3.70499 -0.46312,-1.38937 -5.17154,-5.55749 -6.71529,-6.02061 -1.54375,-0.46312 -3.08749,-0.92625 -4.63124,-1.38937"
       id="path3136"
       inkscape:connector-curvature="0"
       sodipodi:nodetypes="csssssssssssssssssssssssssssssssssssssssssssssssssssssssssssssssssssssssssssssssssssssssssssssssssssssssssc" />
  </g>
  <g
     inkscape:groupmode="layer"
     id="layer7"
     inkscape:label="labels"
     transform="translate(-567.21875,0.78125)">
    <text
       xml:space="preserve"
       style="font-size:24px;font-style:normal;font-variant:normal;font-weight:normal;font-stretch:normal;text-align:start;line-height:125%;letter-spacing:0px;word-spacing:0px;writing-mode:lr-tb;text-anchor:start;fill:#000000;fill-opacity:1;stroke:none;font-family:DejaVu Sans;-inkscape-font-specification:DejaVu Sans"
       x="621.875"
       y="734.8125"
       id="text4002"
       sodipodi:linespacing="125%"><tspan
         sodipodi:role="line"
         x="621.875"
         y="734.8125"
         id="tspan4006">Xingu</tspan><tspan
         sodipodi:role="line"
         x="621.875"
         y="764.8125"
         id="tspan5779">Indigenous </tspan><tspan
         sodipodi:role="line"
         x="621.875"
         y="794.8125"
         id="tspan5781">Land</tspan></text>
    <text
       xml:space="preserve"
       style="font-size:24px;font-style:normal;font-variant:normal;font-weight:normal;font-stretch:normal;text-align:start;line-height:125%;letter-spacing:0px;word-spacing:0px;writing-mode:lr-tb;text-anchor:start;fill:#000000;fill-opacity:1;stroke:none;font-family:DejaVu Sans;-inkscape-font-specification:DejaVu Sans"
       x="734.375"
       y="56.687496"
       id="text4008"
       sodipodi:linespacing="125%"><tspan
         sodipodi:role="line"
         x="734.375"
         y="56.687496"
         id="tspan4028"> Capoto/Jarina </tspan><tspan
         sodipodi:role="line"
         x="734.375"
         y="86.6875"
         id="tspan5775">      Indigenous </tspan><tspan
         sodipodi:role="line"
         x="734.375"
         y="116.6875"
         id="tspan5777">       Land</tspan></text>
    <text
       xml:space="preserve"
       style="font-size:24px;font-style:normal;font-variant:normal;font-weight:normal;font-stretch:normal;text-align:start;line-height:125%;letter-spacing:0px;word-spacing:0px;writing-mode:lr-tb;text-anchor:start;fill:#000000;fill-opacity:1;stroke:none;font-family:DejaVu Sans;-inkscape-font-specification:DejaVu Sans"
       x="813.60486"
       y="548.30634"
       id="text4014"
       sodipodi:linespacing="125%"><tspan
         sodipodi:role="line"
         x="813.60486"
         y="548.30634"
         id="tspan4020">  Wawi</tspan><tspan
         sodipodi:role="line"
         x="813.60486"
         y="578.30634"
         id="tspan5783">Indigenous </tspan><tspan
         sodipodi:role="line"
         x="813.60486"
         y="608.30634"
         id="tspan5785"> Land</tspan></text>
    <text
       xml:space="preserve"
       style="font-size:24px;font-style:oblique;font-variant:normal;font-weight:normal;font-stretch:normal;text-align:start;line-height:125%;letter-spacing:0px;word-spacing:0px;writing-mode:lr-tb;text-anchor:start;fill:#1b2268;fill-opacity:1;stroke:none;font-family:DejaVu Sans;-inkscape-font-specification:DejaVu Sans Oblique"
       x="1019.2267"
       y="191.53468"
       id="text4030"
       sodipodi:linespacing="125%"
       transform="matrix(0.94744449,0.31992022,-0.31992022,0.94744449,0,0)"><tspan
         sodipodi:role="line"
         x="1019.2267"
         y="191.53468"
         id="tspan4034">Rio Suyá</tspan></text>
    <text
       xml:space="preserve"
       style="font-size:24px;font-style:oblique;font-variant:normal;font-weight:normal;font-stretch:normal;text-align:start;line-height:125%;letter-spacing:0px;word-spacing:0px;writing-mode:lr-tb;text-anchor:start;fill:#1b2268;fill-opacity:1;stroke:none;font-family:DejaVu Sans;-inkscape-font-specification:DejaVu Sans Oblique"
       x="1047.7888"
       y="-207.4888"
       id="text4038"
       sodipodi:linespacing="125%"
       transform="matrix(0.62181609,0.7831633,-0.7831633,0.62181609,0,0)"><tspan
         sodipodi:role="line"
         id="tspan4040"
         x="1047.7888"
         y="-207.4888">Rio Xingu</tspan></text>
  </g>
  <g
     inkscape:groupmode="layer"
     id="layer11"
     inkscape:label="inset"
     transform="translate(-567.21875,0.78125)">
    <path
       style="fill:none;stroke:#787ad5;stroke-width:4.27689171;stroke-linecap:round;stroke-linejoin:miter;stroke-miterlimit:4;stroke-opacity:1;stroke-dasharray:none;display:inline"
       d="m 1133.7456,216.99055 c -1.0799,-1.8 -6.4803,-13.68086 -10.0807,-16.92109 -3.6002,-3.24024 -7.2006,-9.00078 -7.2006,-10.80078 0,-1.8002 0,-9.00078 0.7202,-10.80078 0.7201,-1.80019 3.6002,-10.80078 2.8802,-14.40117 -0.7201,-3.60019 -1.4402,-8.28046 -2.8802,-9.00058 -1.4401,-0.72012 -8.2807,-7.56055 -9.3608,-9.00059 -1.0801,-1.44023 -5.7603,-9.00077 -4.3203,-10.44081 1.4402,-1.44004 0.7201,-9.00059 0.7201,-11.88086 0,-2.88027 1.0801,-11.16074 0.36,-12.96093 -0.7199,-1.80019 -5.4004,-6.48047 -7.2004,-8.64062 -1.8002,-2.160163 -5.7606,-3.600203 -5.0404,-6.120513 0.7201,-2.52012 1.44,-17.641207 0.7201,-19.081247 -0.7201,-1.440231 -2.5203,-15.481243 -3.9604,-18.361514 -1.44,-2.88008 -4.2002,-10.920696 -5.0404,-11.160703 -0.84,-0.240025 -1.9771,-0.03558 -2.5201,-0.720058 -2.3405,-2.951008 -3.8403,-6.480486 -5.7604,-9.7207 -1.9202,-3.240234 -4.6804,-6.120448 -5.4004,-8.280604 -0.7201,-2.160155 -3.9603,-4.320311 -5.4003,-7.200525 -1.4403,-2.880195 -4.6805,-9.000642 -6.1205,-10.440759 -1.4401,-1.440097 -3.9604,-6.120428 -5.7604,-7.200506 -1.8002,-1.080097 -5.0404,-2.520194 -5.0404,-2.520194"
       id="path3234"
       inkscape:connector-curvature="0"
       sodipodi:nodetypes="cssssssssssssssssssssc" />
    <rect
       style="fill:#ffffff;fill-opacity:1;stroke:#656464;stroke-width:1.77088404;stroke-linecap:round;stroke-miterlimit:4;stroke-opacity:1;stroke-dasharray:none;stroke-dashoffset:0;display:inline;filter:url(#filter4719)"
       id="rect4405"
       width="154.94948"
       height="150.00761"
       x="461.44165"
       y="201.50018"
       ry="0"
       transform="matrix(1.4256305,0,0,1.4256305,366.72656,-286.49113)" />
    <rect
       style="fill:#5a144f;fill-opacity:0.56078384;stroke:#656464;stroke-width:0.04040952;stroke-linecap:round;stroke-miterlimit:4;stroke-opacity:1;stroke-dasharray:none;stroke-dashoffset:0;display:inline"
       id="rect4257-9"
       width="10.012001"
       height="16.151756"
       x="1199.4327"
       y="130.37305" />
    <path
       style="fill:none;stroke:#656464;stroke-width:1.42563057;stroke-linecap:butt;stroke-linejoin:miter;stroke-miterlimit:4;stroke-opacity:1;stroke-dasharray:none;display:inline"
       d="m 1101.368,96.998597 -1.4633,-1.5852 -1.283,-0.17884 -1.1319,0.18645 c 0,0 -0.7127,-0.17884 -0.4988,-0.4277 0.2138,-0.24942 0.5702,-1.39 0.784,-1.60385 0.2139,-0.21384 2.7444,-4.883083 2.7444,-4.883083 0,0 -1.4255,-0.499039 -1.5682,-0.570195 -0.1427,-0.0723 -2.3523,-1.247502 -2.3523,-1.247502 0,0 -0.9981,-0.213847 -1.1764,-0.106543 -0.1788,0.106543 -0.8196,0.748464 -0.9621,0.890965 -0.1427,0.142691 -1.4258,0.142691 -1.5685,-0.0723 -0.1427,-0.213847 -0.9623,-0.748464 -1.2117,-0.677118 -0.2494,0.0723 -0.9623,1.104811 -0.9623,1.104811 0,0 -1.1912,-0.05898 -1.711,0.534617 -0.5559,0.634888 -2.8158,0.249614 -3.1008,0.285192 -0.2853,0.03615 -1.4615,-0.142691 -1.5684,-0.285192 -0.1066,-0.142692 -0.2494,-0.285002 -0.3208,-0.498849 -0.07,-0.213847 -0.1065,-1.639618 -0.285,-1.817887 -0.1788,-0.17884 -0.3208,-0.249424 -0.8556,-0.32077 -0.5346,-0.0723 -0.8909,-0.534617 -0.8909,-0.534617 l -0.2139,-0.534616 -0.3207,-1.105001 -1.39,-1.390004 c 0,0 -1.4972,-0.392115 -1.6752,-0.534616 -0.1789,-0.142692 -1.1762,-0.712886 -1.1762,-0.712886 0,0 -0.036,-0.64154 -0.036,-0.926732 0,-0.285193 -0.321,-1.033656 -0.4637,-1.176157 -0.1427,-0.142691 -0.9265,-0.605962 -1.069,-0.712886 -0.1427,-0.106542 -1.3189,-0.64154 -1.3189,-0.64154 l -1.6752,-0.819809 c 0,0 -0.8198,0.03615 -1.1761,0.32077 -0.3566,0.285193 -0.4635,0.356538 -0.6774,0.356538 -0.2138,0 -1.1048,0.17884 -1.1048,0.17884 l 1.5325,0.855387 1.1764,0.784041 c 0,0 -0.5704,0.855577 -0.4277,1.176347 0.1427,0.32077 0.4988,0.926542 0.4988,0.926542 l -0.9623,0.534807 c 0,0 -0.4277,1.104811 -0.4277,1.247502 0,0.142691 -0.5703,1.960198 -0.6773,2.316735 -0.1065,0.356348 -2.4236,3.065199 -2.4236,3.065199 l -3.1721,2.60193 -6.3445,3.42174 c 0,0 -0.8196,1.85327 -0.9623,1.99596 -0.1427,0.14269 -1.0336,0.4277 -1.0336,0.4277 l -0.4277,1.85346 c 0,0 -0.7485,0.7127 -0.7485,0.96231 0,0.24943 -0.2139,1.104813 -0.2139,1.283083 0,0.17884 -0.1788,1.17616 -0.1788,1.17616 0,0 0.3564,0.64154 0.3208,0.78423 -0.036,0.14269 0.1427,0.0704 -0.1066,0.32077 -0.2494,0.24942 -1.105,0.71288 -1.105,0.71288 l -0.1427,0.96231 -0.4632,0.4277 -0.9981,0.32077 -1.2475,-0.28519 c 0,0 -0.4277,-0.78405 -0.5702,-1.21174 -0.1427,-0.42769 -0.3564,-0.92673 -0.499,-0.96231 -0.1427,-0.0361 -0.7485,0.0362 -0.9979,0.0704 -0.2496,0.0361 -0.5704,0.10654 -0.8198,-0.1427 -0.2497,-0.24961 -0.9268,-0.60596 -0.9268,-0.60596 0,0 -1.2475,1.06924 -1.4257,1.17616 -0.1789,0.10654 -0.9624,0.10654 -0.7841,-0.14269 0.1789,-0.24943 1.39,-1.28308 1.39,-1.28308 l -1.4613,-0.14269 c 0,0 0.1788,-1.14058 0.4277,-1.14058 0.2494,0 0.9625,0.14269 1.105,-0.0704 0.1427,-0.21384 0.5346,-0.32077 0.4277,-0.71288 -0.1066,-0.392123 -0.5702,-1.496933 -0.6772,-1.746543 -0.1065,-0.24943 -0.4278,-0.71289 -0.4278,-0.71289 l -0.606,0.53481 c 0,0 -0.5702,0.21384 -0.6058,0.35635 -0.036,0.14269 -0.2138,0.49903 -0.3921,0.67711 -0.1788,0.17884 -1.0694,0.819813 -1.0694,0.819813 0,0 0.1065,0.74847 -0.036,0.96231 -0.1427,0.21404 -0.8554,0.78423 -0.8554,0.78423 l -0.6057,0.53462 -0.5704,0.85539 c 0,0 -0.1788,0.64154 -0.2139,0.78423 -0.036,0.14269 0.036,0.67712 0.036,0.67712 l 0,0.53461 0.2852,0.67731 0.6771,0.57019 0.6415,0.64154 -0.4276,0.85558 -0.036,0.39193 c 0,0 0.2496,0.81981 0.5346,0.99807 0.2852,0.17884 0.7843,0.39212 0.7843,0.39212 l 0.1788,0.67712 0.2138,1.28308 c 0,0 -0.4277,0.46346 -0.6059,0.24961 -0.1789,-0.21384 -0.3921,-0.28519 -0.3921,-0.28519 l -0.5347,0.81981 0.1427,0.81981 c 0,0 0.1427,0.17884 0.2852,0.17884 0.1427,0 5.9879,2.53058 5.9879,2.53058 l 0.5702,0.78404 c 0,0 0.5348,0.64173 0.7487,0.89116 0.2138,0.24942 0.6771,0.99807 0.784,1.14057 0.1066,0.1427 0.2496,0.78405 0.3565,0.92674 0.1066,0.14269 0.7485,1.21173 0.9624,1.56827 0.2138,0.35635 0.5703,0.71288 0.6773,0.89096 0.1065,0.17884 0.9979,0.78423 1.2473,0.99808 0.2496,0.21385 0.4634,0.21385 0.6773,0.39212 0.2138,0.17884 0.5346,0.78404 0.5346,0.78404 l 0,0.74846 0.8198,0.46346 0.2852,0.53462 c 0,0 -0.2852,0.42769 -0.1788,0.64154 0.1065,0.21385 0.9265,0.74846 0.9265,0.96231 0,0.21385 0.1065,0.78423 0.1788,0.92673 0.07,0.14269 0.07,0.21385 0.2497,0.46327 0.1788,0.24962 0.4277,0.46346 0.5703,0.64173 0.1427,0.17884 0.3208,0.46327 0.4633,0.67712 0.1427,0.21385 0.2139,0.99808 0.2139,0.99808 0,0 0.1788,0.49885 0.2852,0.71269 0.1065,0.21404 0.6057,1.06943 0.6057,1.06943 l 0.1427,0.49904 2.9941,3.81366 c 0,0 0.3207,0.78423 0.4277,0.99808 0.1065,0.21384 0.499,1.28308 0.499,1.28308 l 0.6771,1.39 c 0,0 1.1406,-0.0704 1.2119,0.0723 0.07,0.14269 0.2139,0.78423 0.392,1.03365 0.1788,0.24943 0.4278,1.105 0.4278,1.105 l 0,0.92655 c 0,0 0.4991,0 0.5702,0.14269 0.072,0.14269 0.4277,0.60596 0.4277,0.60596 l 0.8554,0.17884 c 0,0 0.036,1.03365 0.2139,1.17616 0.1788,0.14269 0.8555,0.74865 0.9625,0.9625 0.1065,0.21384 0.5702,1.10481 0.5702,1.10481 0,0 0.2852,0.28519 0.3921,0.46346 0.1065,0.17884 0.07,0.57019 0.3921,0.81962 0.3208,0.24961 1.0335,0.9625 1.0335,0.9625 l 0.3565,0.285 -0.1065,1.06942 c 0,0 -0.1427,0.67712 0.036,0.96231 0.1788,0.28519 -0.5702,0.5702 -0.5702,0.5702 l 0.3564,0.53461 0.1065,0.60597 0.2496,0.6773 0.6771,0.0704 c 0,0 0.392,0.60577 0.4277,0.74846 0.036,0.14269 0.4989,0.78404 0.4989,0.78404 0,0 0.5346,0.57039 0.6417,0.71289 0.1065,0.14269 0.7129,0.53461 0.7129,0.53461 0,0 0.891,0.1427 1.0335,0.2852 0.1426,0.14269 0.8555,0.64154 0.8555,0.64154 l 0.3208,0.89115 0.4277,0.10654 c 0,0 0.2852,0.46328 0.3563,0.60578 0.07,0.14269 0.6416,0.64173 0.6416,0.64173 l 2.7802,0.99788 0.8911,0.21385 0.1427,0.49904 2.0673,0.60596 1.9247,1.35443 1.0336,-0.21385 0.4635,0.39193 0.8196,0.39211 1.0336,0 c 0,0 0.7487,0.67731 1.1406,0.81981 0.3921,0.14269 1.1048,0.21385 1.1048,0.21385 l 0.8912,-0.0361 c 0,0 1.0692,0.71288 1.2475,0.96231 0.1788,0.24961 1.7108,0.89115 1.8179,1.03365 0.1065,0.1427 0.8196,0.92674 1.1761,0.99808 0.3564,0.0704 1.3545,0 1.3545,0 0,0 0.499,0.46327 0.4277,0.67712 -0.07,0.21385 -0.2139,0.92673 -0.1066,1.14058 0.1066,0.21385 0.5702,0.60596 0.5702,0.60596 l 4.5267,2.45943 0.7129,0.32058"
       id="path4201-3"
       inkscape:connector-curvature="0"
       sodipodi:nodetypes="ccccsscscsssscssssssccccscsssccsscccsccsscccsccsscsscccccsssscssccssssccsscscccscccccccscccscccsccsssssssccccsssssscscccsccssccccccsccccccsccccccccccccccccccccccccccccccccsccc" />
    <path
       style="fill:none;stroke:#656464;stroke-width:1.42563057;stroke-linecap:butt;stroke-linejoin:miter;stroke-miterlimit:4;stroke-opacity:1;stroke-dasharray:none;stroke-dashoffset:0;display:inline"
       d="m 1190.5828,214.23071 c 0.1008,-0.50418 0.1598,-5.63973 -0.6465,-5.43806 -0.8067,0.20167 -2.1172,1.00816 -2.1172,1.00816 l -0.7056,-0.70565 c 0,0 0.3023,-0.40335 0.5041,-0.8065 0.2015,-0.40334 0.3023,-0.70565 0.4032,-1.41131 0.1008,-0.70584 0.2017,-2.01632 0.2017,-2.01632 0,0 0.4031,-1.61298 0.4031,-2.01632 0,-0.40315 0.1008,-1.81466 0.1008,-1.81466 l -1.5121,-1.20964 -3.3268,1.20964 c 0,0 -0.4034,0.10084 -0.7057,-0.50398 -0.3025,-0.60482 -1.3104,-4.73811 -1.3104,-5.44396 0,-0.70566 -0.4034,-1.20964 -0.6051,-1.81446 -0.2016,-0.60501 -0.7056,-1.31067 -0.7056,-1.31067 l -2.6212,-0.30231 c 0,0 0.6051,-1.61318 -0.5041,-1.00817 -1.1088,0.60483 -2.0162,1.20965 -2.0162,1.20965 0,0 -2.2178,-0.30232 -2.6211,-0.50399 -0.4032,-0.20167 -2.5203,-0.60482 -2.5203,-0.60482 0,0 -0.7057,-0.40334 -0.5042,-1.20983 0.2019,-0.80649 0.4034,-1.41131 0.3027,-2.2178 -0.1008,-0.8065 -0.2017,-2.41948 -0.3027,-2.82282 -0.1008,-0.40315 -1.1088,-1.81465 -1.2096,-2.41947 -0.1009,-0.60482 -0.2017,-3.12513 -0.2017,-3.12513 l 0,-0.80649 1.6132,-3.52847 0.6048,-0.80649 c 0,0 -0.8067,0 -0.504,-0.60501 0.3023,-0.60482 1.0584,-3.62912 1.0584,-3.62912 0,0 -0.2521,-0.70565 -0.4536,-1.20983 -0.2016,-0.50399 -0.5041,-1.109 -0.8065,-1.51215 -0.3025,-0.40334 -1.8146,-1.31066 -1.8146,-1.31066 l -2.1172,-1.10881 0,-1.00816 0,-1.71382 0.5042,-1.71382 0,-1.20983 -1.109,0.90733 -8.4682,0.3025 -0.2017,-1.61298 c 0,0 -0.1009,-1.91549 -0.4032,-2.52031 -0.3025,-0.60482 -1.0081,-1.31066 -1.0081,-1.31066 l -1.109,-1.10881 c 0,0 1.5121,0.10083 1.5121,-0.30251 0,-0.40315 0.1009,-1.00816 -0.2015,-1.91548 -0.3025,-0.90733 -0.605,-1.31048 -0.7058,-1.81447 -0.1008,-0.50417 -0.2015,-1.10899 -0.2015,-1.10899 l 0.08,-0.76711 c 0,0 -1.065,-1.08826 -1.1364,-1.10595 -0.07,-0.019 -0.588,-0.49904 -0.7129,-0.5525 -0.1255,-0.0533 -0.285,-0.35635 -0.4455,-0.44558 -0.1598,-0.0894 -0.2761,-0.22279 -0.4722,-0.32971 -0.1962,-0.10655 -0.606,-0.39193 -0.7843,-0.39193 -0.1788,0 -0.8285,0.0704 -0.8285,0.0704 0,0 -0.5704,0.33846 -0.802,0.32076 -0.2317,-0.019 -1.4613,-0.0438 -1.5861,-0.0799 -0.1256,-0.0361 -0.8733,-0.15982 -0.8733,-0.15982 0,0 -0.3742,-0.44557 -0.4277,-0.51692 -0.055,-0.0723 -0.6059,-0.46327 -0.6415,-0.5525 -0.036,-0.0894 -0.07,-0.37423 -0.196,-0.40981 -0.1256,-0.0361 -0.3921,-0.0704 -0.3921,-0.0704 0,0 -0.7245,-0.12367 -0.9385,-0.22983 -0.2139,-0.10654 -0.5586,-0.16172 -0.719,-0.19787 -0.1598,-0.0362 -0.5607,-0.1522 -0.5607,-0.1522 l -0.4336,-0.0856 -0.6805,0.0628 c 0,0 -0.9326,-0.51673 -0.9829,-0.81905 -0.051,-0.30251 -0.4788,-1.19727 -0.4788,-1.19727 l -0.9578,0.80649 c 0,0 -0.3025,-0.45357 -0.5546,-0.65524 -0.2519,-0.20167 -1.0584,-0.45357 -1.3609,-0.60482 -0.3025,-0.15221 -1.3105,-0.35293 -1.3105,-0.35293 0,0 0.3024,0.40335 -0.051,0.45376 -0.3529,0.0495 -0.9074,0.0495 -1.1594,0.0495 -0.2521,0 -0.9578,-0.35292 -1.3609,-0.40334 -0.4034,-0.0495 -0.7561,0 -0.7561,-0.25209 0,-0.2519 0,-1.00797 0,-1.00797 0,0 -0.605,0.0495 -0.9073,-0.0495 -0.3025,-0.10083 -1.0082,-0.50417 -1.0082,-0.50417 l -0.6048,-0.20167 c 0,0 -0.2017,-0.2519 -0.2521,-0.50399 -0.051,-0.25209 -0.051,-0.65524 -0.3025,-0.80649 -0.2519,-0.1522 -0.7559,0.0495 -0.7559,-0.30251 0,-0.35273 0.4032,-0.35273 -0.2521,-0.90713 -0.6554,-0.55459 -0.605,-0.70585 -0.605,-0.70585 l -0.6048,-0.70565 0.4033,-0.60482 c 0,0 0,-0.30251 0.051,-0.50418 0.051,-0.20148 0.1522,0.0514 0,-0.35273 -0.1522,-0.40334 -0.8065,-0.95775 -0.5544,-1.41151 0.2521,-0.45356 0.504,-0.80649 0.504,-0.80649 l -0.4032,-0.50398 -0.051,-0.40315 0.4031,-1.36109 0,-0.65524 -0.3529,-1.76423 -0.2637,-0.43226 -0.3411,0.58351 -0.5544,0.25209 -0.9074,-0.20167 -0.8569,0.0495 -0.9073,0.30231 -1.6634,0.30251 c 0,0 -0.8569,0.40334 -1.0586,0.5544 -0.2015,0.1522 -0.7561,0.40334 -0.9577,0.55459 -0.2015,0.15221 -1.3105,0.90733 -1.3105,0.90733 l -0.5546,0.85691 -0.6552,0.10083 -0.8569,0.50399 c 0,0 -0.5544,0.30251 -0.7057,0.5544 -0.1522,0.25209 -0.4536,0.65543 -0.4536,0.65543 l -0.1008,0.85672 -1.4113,-0.45357 -0.8065,0.50399 -0.2017,0.60501 -0.2521,0.40315 -1.6129,0.80649 -0.9072,0.70566 -0.6554,-0.2519 -0.6552,-0.60482 -1.8651,0.10083 -1.5217,-0.0571 -0.8379,0.0913 -1.39,0.14269 -0.8553,0.57019 -1.0695,0.2852 -0.5346,-0.35654 c 0,0 -0.4633,-0.21385 -0.5702,-0.0361 -0.1065,0.17884 -0.2852,0.28519 -0.2852,0.28519 l -0.1427,-6.62943 0.2852,-0.35654 -0.2852,-0.60596 -0.1065,-0.53462 -0.5348,-0.32077 -0.9266,1.49712 -2.1028,1.78211 -4.6335,0.35635 c 0,0 0.07,-0.57019 0.07,-0.74846 0,-0.17884 -0.2141,-0.67731 -0.2141,-0.67731 0,0 -0.5702,0.0704 -0.6059,-0.10654 -0.036,-0.17884 -0.036,-1.10481 -0.036,-1.10481 l -0.4277,-0.39212 -4.4552,0.14269 1.4256,-1.81769 -1.7465,-2.13866 c 0,0 -0.5346,0.24961 -0.5346,-0.17884 0,-0.42769 0.07,-1.06923 -0.072,-1.10481 -0.1427,-0.0361 -0.9623,-0.10654 -0.9623,-0.10654 0,0 -0.4635,-0.71289 -0.606,-1.06943 -0.1427,-0.35635 -0.4277,-0.99789 -0.4277,-0.99789 l -0.4633,-0.39211 -0.2852,-0.28519 0.606,-0.17884 c 0,0 0.2138,-0.4277 0.036,-0.49904 -0.1788,-0.0723 -1.3188,-0.10654 -1.3188,-0.10654 0,0 -0.3564,-0.67712 -0.3921,-0.81962 -0.036,-0.14269 -0.1066,-0.24962 -0.1066,-0.39212 0,-0.14269 0.1789,-0.74846 0.1789,-0.74846 l 0.6415,-0.0361 0.6417,-0.24962 c 0,0 -0.4634,-0.49884 -0.4634,-0.74846 0,-0.24942 -0.07,-0.67712 -0.07,-0.89096 0,-0.21404 0.036,-0.49904 0.1065,-0.67731 0.07,-0.17884 0.7127,-0.53462 0.7127,-0.53462 l 0.9981,-1.21192 c 0,0 0.606,-0.10655 0.7485,-0.285 0.1427,-0.17884 0.5346,-0.60597 0.6415,-0.74866 0.1066,-0.14269 0.2139,-0.21384 0.2139,-0.49885 0,-0.28519 -0.3564,-0.71288 -0.4633,-0.92673 -0.1066,-0.21385 -0.1789,-0.60596 -0.1789,-0.60596 l 0.6416,-2.03154 c 0,0 0.2852,-0.71289 0.4633,-0.92674 0.1788,-0.21384 0.3921,-1.105 0.3921,-1.28327 0,-0.17884 -0.2495,-1.17615 -0.2495,-1.17615 0,0 0.4276,-0.53462 0.5702,-0.5702 0.1427,-0.0362 0.9981,-0.17884 0.9981,-0.17884 l 1.6394,-1.63962 0.6772,-0.67711 1.5327,-0.677313 c 0,0 1.4615,-0.49904 1.6753,-0.53462 0.2139,-0.0361 1.1049,-0.21384 1.3187,-0.28519 0.214,-0.0723 1.2833,-0.39193 1.4258,-0.39193 0.1427,0 1.4613,-1.46134 1.4613,-1.46134 l 1.39,-0.21385 1.105,0.32077 c 0,0 0.7485,0.35635 0.9268,0.39192 0.1788,0.0361 0.7589,-0.001 0.7589,-0.001 l 0.156,-0.49809 c 0.063,-0.52415 1.7589,-11.475989 1.7945,-11.61868 0.036,-0.142691 -0.1427,-2.24539 -0.1427,-2.24539 0,0 0.499,-1.746541 0.5702,-1.92481 0.07,-0.17884 -0.072,-1.461349 -0.072,-1.60385 0,-0.142691 -0.5702,-1.033656 -0.7841,-1.211734 -0.2138,-0.17884 -0.1426,-0.819809 -0.1426,-0.819809 l -0.2495,-1.176347 -1.2119,-0.391926 -0.9981,-1.033655 -0.6059,-4.205778 c 0,0 0.5704,0 0.8555,-0.03615 0.285,-0.03615 0.7841,-0.392116 0.7841,-0.392116 l 1.2475,-0.249615 0.6415,-0.427693 1.6041,1.033656 0.3563,-0.427694 0.1427,-1.354425 -0.891,-1.069234 -3.3505,-0.356538 c 0,0 0.036,-3.136544 -0.1789,-3.172122 -0.2138,-0.03615 6.0593,-0.213846 6.6295,-0.285192 0.5705,-0.0723 0.5705,-0.213847 0.7844,-0.213847 0.2138,0 1.9958,-0.249424 1.8534,-0.356347 -0.1426,-0.106543 -0.82,-0.427694 -0.82,-0.427694 0,0 0.07,-0.178839 0.4991,-0.463461 0.4277,-0.285002 0.285,-0.142691 0.285,-0.142691 0,0 0.3923,0.534616 1.1408,0.9625 0.7484,0.427693 0.2138,-0.17884 0.2138,-0.17884 l 1.675,-1.354425 0.9981,-0.213847 c 0,0 0.3921,0.890964 0.8198,1.390003 0.4277,0.499039 0.4633,0.855387 0.499,1.069234 0.036,0.213846 0.2139,0.463461 0.2139,0.891154 0,0.427693 0.036,0.748463 0.1065,1.104811 0.072,0.356538 0.8293,0.0761 1.481,0.304789 l 0.7637,0.175034 0.3401,0.428455 c 0,0 0.4034,0.378036 0.504,0.453758 0.1008,0.0761 0.088,0.0761 0.2017,0.152204 0.1141,0.0761 0.6678,0.415707 0.6678,0.415707 l 0.3782,0.340366 c 0,0 0.4536,0.08752 0.5291,0.125569 0.076,0.03805 0.731,0.08752 0.8444,0.03805 0.1141,-0.04947 0.3403,-0.252088 0.4284,-0.315063 0.089,-0.06278 0.5672,-0.226784 0.731,-0.390783 0.1636,-0.16362 0.2772,-0.289759 0.378,-0.352733 0.1008,-0.06278 0.3655,-0.252088 0.4661,-0.264645 0.1009,-0.01903 0.8444,-0.100835 0.9201,-0.0761 0.076,0.02473 0.2647,0.152204 0.2898,0.20167 0.027,0.05137 0.1255,0.302316 0.1008,0.403151 -0.027,0.100835 -0.1008,0.277201 -0.1769,0.340366 -0.076,0.06278 -0.2772,0.239341 -0.2772,0.340176 0,0.100835 0.019,0.415898 0.076,0.428454 0.063,0.01903 0.441,0.08752 0.5039,0 0.063,-0.08752 0.1637,-0.163619 0.2143,-0.277201 0.051,-0.114153 0.063,-0.327619 0.076,-0.403341 0.019,-0.0761 0.2015,-0.478872 0.2015,-0.478872 0,0 0.1636,-0.378037 0.2648,-0.378037 0.1008,0 0.441,0 0.5797,-0.02473 0.1389,-0.02473 0.3276,-0.138886 0.3276,-0.138886 0,0 0.063,-0.667795 0.076,-0.756073 0.019,-0.08752 0.1256,-0.264645 0.1256,-0.264645 0,0 0.8065,-0.02473 0.8569,-0.08752 0.051,-0.06278 0.3527,-0.340176 0.4285,-0.40315 0.076,-0.06278 0.2772,-0.289949 0.4788,-0.289949 0.2015,0 0.7182,-0.03805 0.7182,-0.03805 0,0 0.3653,-0.503985 0.4536,-0.554403 0.088,-0.05137 0.9956,-1.184528 1.1594,-0.9703 0.1636,0.214227 0.2519,0.743516 0.2519,0.743516 0,0 0.7437,-0.920073 0.8318,-0.9703 0.089,-0.05137 0.4285,-0.390784 0.5042,-0.478872 0.076,-0.08752 0.1008,-0.441202 0.1141,-0.605011 0.019,-0.16362 -0.1255,-0.73077 -0.036,-0.882023 0.088,-0.152204 0.3149,-0.315062 0.3906,-0.352923 0.076,-0.03805 1.0207,-0.06278 1.0835,-0.03805 0.063,0.02473 0.4663,-0.441011 0.7437,-0.503985 0.2772,-0.06279 1.3986,-0.340176 1.4492,-0.390594 0.051,-0.04947 0.2268,-0.138886 0.2268,-0.264645 0,-0.125568 -0.1142,-1.49959 -0.1637,-1.49959 -0.051,0 -3.8686,0.02473 -3.8686,0.02473 0,0 0.3402,-0.743517 0.378,-0.894769 0.036,-0.152204 0.063,-0.503986 0.063,-0.592264 0,-0.08752 -0.063,-0.264645 -0.1122,-0.352923 -0.051,-0.08752 -0.3781,-0.415708 -0.3908,-0.491429 -0.019,-0.0761 -0.2394,-0.441011 -0.2772,-0.491429 -0.038,-0.04947 -0.1256,-0.150301 -0.1256,-0.150301 0,0 -0.3527,-1.171971 -0.3527,-1.474287 0,-0.302505 0.051,-1.411445 0.051,-1.411445 0,0 -0.4539,-0.504061 -0.605,-0.705694 -0.1503,-0.201613 -1.6636,-1.159338 -1.7642,-1.360951 -0.1008,-0.201632 -0.6552,-0.80651 -0.7057,-1.008123 -0.051,-0.201633 -0.1008,-0.957725 -0.1008,-0.957725 0,0 1.0586,0.201632 1.1088,0.403245 0.051,0.201633 -0.3527,0.453664 0.2521,0.453664 0.6048,0 1.8651,-0.151253 1.8651,-0.151253 0,0 0.6552,0.05042 0.6552,0.453644 0,0.403245 -0.1008,0.957725 0.2519,0.957725 0.3529,0 2.1676,-0.403265 2.3692,-0.403265 0.2017,0 0.6049,0.403265 0.6049,0.403265 l 0.4033,-0.453644 c 0,0 0.1008,-0.352847 0.5544,-0.151253 0.4538,0.201613 1.0082,0.756092 1.2098,1.108939 0.2015,0.352847 0,0.655277 0.4536,0.806511 0.4538,0.151252 1.3107,-0.302449 1.3107,-0.302449 0,0 0.1008,-0.100835 0.1008,-0.756092 0,-0.655296 0.051,-1.159339 0.051,-1.159339 l 1.0586,-0.151252 0.2519,-0.756093 c 0,0 0.8065,-0.453644 1.1594,-0.252012 0.3527,0.201614 0.4033,0.453644 0.756,0.504043 0.353,0.05042 1.2097,-0.201613 1.5626,-0.252031 0.3529,-0.05042 1.4619,-0.252012 1.6634,-0.403245 0.2017,-0.151253 0.4034,-0.554461 0.5042,-0.756093 0.1008,-0.201632 -0.2521,-0.352847 0.2015,-0.504062 0.4537,-0.151252 1.109,-0.302448 1.109,-0.302448 l 1.5627,-0.302429 0.6553,-0.856909 c 0,0 1.2096,-0.907307 1.26,-1.10894 0.051,-0.201613 0.2521,-0.756073 0.1503,-1.008123 -0.1008,-0.252031 -1.2098,-0.756093 -0.5544,-0.85689 0.6553,-0.100835 1.6634,-0.352847 2.0666,-0.352847 0.4033,0 0.8065,-0.151252 1.0081,0 0.2017,0.151253 0.3023,0.403246 0.5544,0.655277 0.2521,0.252031 0.353,1.461786 0.353,1.461786 l -0.8065,1.411369 c 0,0 -0.5042,0.352847 -0.2017,0.403265 0.3025,0.05042 1.6634,0.252012 1.6634,0.252012 l 0.6552,0.554479 c 0,0 0.1503,0.403245 0.051,0.655276 -0.1008,0.252031 -0.2519,0.403246 0.051,0.705675 0.3027,0.302449 0.5546,0.554479 0.5546,0.554479 0,0 0.1503,0.151253 0,0.504062 -0.1522,0.352847 -0.7057,1.310572 -0.8065,1.512185 -0.1009,0.201633 -0.5544,0.856909 -0.5544,0.856909 l -0.4034,1.058522 0.1009,1.10892 -0.5544,1.713818 c 0,0 0.4537,1.310476 0.5041,1.713817 0.051,0.403341 0.504,1.159414 0.504,1.159414 l 0.504,0.604821 -0.3023,1.108997 c 0,0 0.5544,0.453568 0.7561,0.756073 0.2014,0.302315 1.0081,0.856909 1.0081,0.856909 l 1.0586,0.856909 c 0,0 0.051,0.352732 0.3023,0.453568 0.2521,0.100835 1.613,0.352923 1.613,0.352923 0,0 -0.051,0.352732 0.1522,0.453568 0.2017,0.100835 0.9073,0.554593 1.0586,0.352923 0.1503,-0.201671 0.3527,-0.504176 0.7056,-0.504176 0.3528,0 0.3528,0.20167 0.504,-0.150302 0.1522,-0.352732 0.3528,-1.159224 0.3528,-1.159224 0,0 0.1008,-0.806491 0.3025,-0.806491 0.2016,0 0.9577,0.100836 1.2098,0.302316 0.2519,0.20167 0.9576,0.453758 0.9576,0.453758 0,0 0.4539,-1.108997 0.6554,-1.159414 0.2016,-0.04947 2.1171,-0.251898 2.1171,-0.251898 0,0 -0.1008,0.604821 0.2519,-0.302505 0.353,-0.907327 0.4034,-1.008162 0.4034,-1.008162 l 1.4617,-0.252088 1.3107,0.605011 c 0,0 1.3609,-0.100835 1.8146,-0.100835 0.4534,0 2.8731,0.100835 2.8731,0.100835 0,0 0.5544,-0.302505 0.5544,-0.554593 0,-0.251898 -0.3023,-0.554403 -0.4536,-0.806491 -0.1503,-0.251898 -0.7057,-0.453568 -0.7057,-0.655239 0,-0.20167 -0.252,-0.100835 0,-0.40315 0.2519,-0.302506 0.6551,-1.260249 0.6551,-1.260249 0,0 1.109,0.100835 1.1596,0.503985 0.051,0.403341 -0.051,0.655429 0.4536,0.605011 0.504,-0.05137 1.5625,-0.302505 1.9153,-0.403341 0.3529,-0.100835 0.7056,-0.60482 0.9075,-0.655238 0.2015,-0.04947 1.008,-0.554403 1.008,-0.554403 l 0.5544,0.756073 c 0,0 0.051,0.201671 0.3025,0.251898 0.252,0.04947 1.0585,-0.05137 1.0585,-0.05137 l 0.1522,0.504176 1.613,1.058579 c 0,0 0.8569,0.20148 1.1592,0.302315 0.3026,0.100836 0.7563,-0.453568 0.7563,-0.453568 l 0.9073,-0.655428 c 0,0 0.8065,0.302505 1.1088,0.252088 0.3026,-0.04947 1.3107,-0.503986 1.3107,-0.503986 0,0 0.6552,0.20167 0.8063,0.403151 0.1522,0.20167 0.1522,0.504175 0.5546,0.453758 0.4033,-0.05137 1.1594,-0.403341 1.3609,-0.504176 0.2017,-0.100835 0.1522,-0.05137 0.7057,-0.453568 0.5545,-0.403341 0.8571,-0.806491 1.0083,-1.058579 0.1522,-0.252088 0.5544,-1.008162 0.7057,-1.512147 0.1503,-0.503986 0.1503,-1.209832 0.3527,-1.512147 0.2017,-0.302487 0.7058,-1.05856 1.0082,-1.461825 0.3023,-0.403245 0.6048,-0.856889 0.8569,-1.108939 0.2521,-0.252012 1.0585,-1.461787 1.3609,-1.6634 0.3025,-0.201613 0.6554,-0.55446 0.8066,-1.008123 0.1503,-0.453645 0.4032,-1.613002 0.4032,-1.613002 0,0 0.7561,-0.25203 1.0586,-0.100835 0.3025,0.151253 1.4617,1.865032 1.4617,1.865032 0,0 0.2521,0.453663 0.1503,0.80651 -0.1008,0.352828 -0.3025,0.806491 -0.3025,0.806491 l 0.3529,-0.151252 -0.1522,1.058522 c 0,0 0.4536,0.80651 0.4536,1.108939 0,0.30243 0.1008,0.957725 0.1522,1.310572 0.051,0.35279 0.051,0.604878 0.2017,0.907383 0.1522,0.302316 0.2519,0.705656 0.3527,0.907136 0.1008,0.201671 0.2017,0.453759 0.2017,0.453759 l -0.1009,0.453568 0.2519,0.705846 0.7057,0.503985 -0.2015,0.655239 -0.3027,0.806491 0.9579,-0.05137 c 0,0 0.3025,1.058579 0.4032,1.260249 0.1008,0.201671 0.8065,0.503986 1.2098,0.604821 0.4032,0.100835 2.4195,0.403341 2.4195,0.403341 l 0,1.411312 0.1522,0.907326 -0.8883,1.419873 c 2.854,2.501093 5.7078,4.549949 8.5619,7.503469 l 1.7929,1.665492 1.2196,0.148399 1.0585,-0.453568 0.5544,0.806491 c 0,0 0.7561,-0.957744 0.9578,-0.856908 0.2016,0.100835 1.0586,0.503985 1.0586,0.503985 l 0.4033,-0.152204 0.5544,0.604821 0.5544,-0.20148 1.2601,0.251897 0.4537,0.806492 1.0586,-0.152205 0.1008,0.756074 1.2601,-0.20148 0.2521,0.655238 1.8146,0.302506 0.3025,0.806491 1.4114,-0.04947 c 0,0 0,0.655238 0.252,0.655238 0.2521,0 1.3105,-0.150302 1.3105,-0.150302 0,0 -0.9577,0.957744 -0.2015,0.907327 0.7559,-0.05137 2.2177,-0.352923 2.2177,-0.352923 l 0.2018,0.907326 c 0,0 1.1592,0.352923 1.1592,0.554593 0,0.20148 -0.1522,1.159224 -0.1522,1.159224 l 0.2521,0.352923 -0.7562,1.260059 c 0,0 1.714,-0.554403 0.8571,-0.20167 -0.8571,0.352923 -1.1595,0.655429 -1.1595,0.655429 l 1.0586,0.352733 -0.2521,0.957743 c 0,0 0.051,0.252088 0,0.655239 -0.051,0.40334 -0.4535,1.6634 -0.4535,1.6634 0,0 -0.2521,0.504175 0,0.554593 0.2521,0.05137 1.0079,-0.453758 1.2096,-0.655429 0.2017,-0.20148 0.3025,-0.04947 0.5546,-0.60482 0.2519,-0.554404 0.3023,-0.604821 0.3527,-1.26006 0.051,-0.655428 0.9578,-1.361084 0.9578,-1.361084 0,0 0.7056,-0.40315 0.7056,-0.04947 0,0.352923 -1.3104,2.142271 -0.882,2.142271 1.2915,-1.190806 2.9084,-2.037821 3.1,-0.882022 l 0,0 c 0.048,0.281387 0.7057,-0.957744 0.7057,-0.957744 0,0 0.4033,-0.352733 0.8569,-0.352733 0.4536,0 1.1592,0.251898 1.1592,0.251898 l 0.1522,0.252088 0,2.479784 -0.097,106.860935 0,2.38465 -2.9235,-0.0247 -0.2015,-0.90733 -2.6213,0.90733 c 0,0 -1.3105,0.90733 -1.4113,0.50417 -0.1008,-0.40334 0.4033,-1.10899 -0.5042,-0.90732 -0.9071,0.20148 -2.2178,-0.20167 -2.2178,-0.20167 l -1.2096,1.31047 0.7056,0.90733 -2.6211,0.90733 c 0,0 -1.5122,-0.10084 -1.7138,0.40334 -0.2017,0.50398 -0.4032,1.61298 -0.4032,1.61298 l -1.4115,0 -2.7218,0.40315 c 0,0 -1.1092,0.80649 -2.3692,1.56257 -1.4617,0.95774 -2.5707,1.56275 -2.5707,1.56275 l -1.7137,1.10881 -1.0083,1.10899 c 0,0 -0.504,0.40334 -0.6048,0.90733 -0.1009,0.50399 -0.9074,2.01632 -0.9074,2.01632 l -1.3104,-1.31066 c 0,0 -0.2017,1.71381 -0.7057,1.41131 -0.5042,-0.30232 -1.8146,-1.61298 -1.7138,-1.20964 0.1008,0.40315 1.8144,1.20964 1.5121,1.71381 -0.3025,0.50399 -1.5121,1.41131 -1.5121,1.41131 l 1.2096,0.10084 0.1009,0.80649 -0.9074,0.80649 0.6589,1.70374"
       id="path4207-6"
       inkscape:connector-curvature="0"
       sodipodi:nodetypes="cscccscsccccscccscccsscsccccccsccccccccccsccssscccsccsccccccscsscccsccsscsssscsccsssscccssscccccccccccccssccccscccccccccccccccccscccccccccscscccccsscsccccscsscccsssccssssccsscsccccssscccsccccssscccccsccccccccsssscscscccssssccccsccssssscccssscssccsscccscsccscssssssscsscssscccscssscsscsssccssscscccsssssscccssssssccsccsscssccccscccsccscsssscsscscscccscsssscssssccsccccccsccsccccccscccscscccsscscccccccsccccccccccscccccccccccccscsccscccscccccsssccscsccscccccccccccccccccccccccccsscccccc" />
    <path
       style="fill:none;stroke:#656464;stroke-width:1.42563057;stroke-linecap:butt;stroke-linejoin:miter;stroke-miterlimit:4;stroke-opacity:1;stroke-dasharray:none;display:inline"
       d="m 1109.2044,212.7842 c 0,0 -0.3527,-0.65524 -0.3527,-0.85672 0,-0.20167 0.1008,-0.75626 0.1008,-0.75626 0,0 -0.5042,-0.5544 -0.605,-0.90714 -0.1008,-0.35292 -0.5546,-1.20983 -0.4032,-1.71401 0.1503,-0.50398 0.2015,-0.65523 0.2015,-1.20964 0,-0.5544 -0.2519,-1.56256 -0.2519,-1.91548 0,-0.35274 0.3023,-1.26006 0.3529,-1.46173 0.051,-0.20167 -0.051,-0.95775 -0.051,-0.95775 l -1.0586,0.50399 c 0,0 -0.2521,-0.40315 -0.2017,-0.85672 0.051,-0.45376 0.1009,-1.71382 0.1009,-1.71382 l 0.6554,-0.1503 c 0,0 0.4031,-0.30251 0.4536,-0.75607 0.051,-0.45376 0.6552,-1.00816 0.5544,-1.46192 -0.1009,-0.45357 -0.6049,-6.25026 -0.5544,-6.55277 0.051,-0.3025 -0.051,-1.81465 -0.051,-1.81465 0,0 -0.2521,-0.70566 -0.3025,-1.05858 -0.051,-0.35273 -0.2017,-0.85691 -0.2521,-1.46173 -0.051,-0.60482 -0.4536,-2.2178 -0.4536,-2.72198 0,-0.50398 -0.2521,-1.51214 -0.3025,-1.71381 -0.051,-0.20148 -0.2521,-1.3609 -0.2521,-1.3609 0,0 -0.051,-0.40334 -0.051,-0.65524 0,-0.25208 -0.7057,-2.5203 -0.7057,-2.5203 0,0 -0.1503,-1.15942 -0.1503,-1.46192 0,-0.30232 -0.5544,-1.96572 -0.5544,-1.96572 l -0.051,-0.35292 1.4113,-0.50399 1.3107,-1.10899 -0.2521,-0.90733 -0.4535,-1.26006 0.5542,-0.45376 1.2602,-0.30231 c 0,0 0.5544,0.75607 0.8065,1.00797 0.2521,0.25209 0.6048,1.31066 0.6048,1.31066 0,0 1.2097,-0.10083 1.2603,0.10084 0.051,0.20167 -0.504,0.95774 -0.504,0.95774 l 0.8063,0.65524 0.2017,0.75608 c 0,0 -0.1522,0.65523 -0.1009,0.90732 0.051,0.25209 0.353,0.90733 0.353,0.90733 l 0.1522,0.95774 0.7558,0.5544 c 0,0 1.0586,0.85691 1.3107,1.00817 0.2521,0.1522 0.7561,0.60482 0.7561,0.60482 l -0.6553,1.15941 -0.4031,0.60482 0.504,0.35292 c 0,0 0.4031,0.40316 0.3527,0.65524 -0.051,0.25209 -0.1008,1.05858 -0.1008,1.05858 l -0.8567,0.0495 0.4031,0.50398 0,0.75608 -0.4031,0.35292 c 0,0 0.4031,0.35273 0.7558,0.60482 0.353,0.25209 1.2097,0.5544 1.2097,0.5544 l -0.7559,0.85691 c 0,0 0.2519,0.65543 0.504,0.80649 0.2519,0.15221 1.0081,0.25209 1.0081,0.25209 0,0 0.2017,0.70566 0.3024,0.90733 0.1008,0.20167 0.3529,0.70565 0.5041,1.00816 0.1503,0.30251 0.353,0.95774 0.4034,1.20964 0.051,0.25209 0.1008,0.5546 0.2015,0.80649 0.1008,0.25209 0.252,0.75627 0.4537,1.109 0.2015,0.35292 0.5544,1.15941 0.5544,1.15941 0,0 0.3528,0.90733 0.4032,1.109 0.051,0.20148 0.5041,0.95755 0.5546,1.31048 0.051,0.35292 0.2016,1.20983 0.2016,1.20983 l 1.7643,0 1.3609,-0.40334 0.504,-0.60482 0.1503,-0.75608 0.4539,-0.65542 0.7561,-0.20148 0.051,-1.05858 c 0,0 0.6553,-0.65524 0.857,-0.65524 0.2016,0 1.26,-0.5546 1.26,-0.5546 l 0.3529,-0.95774 0.051,-0.70566 1.2601,0.70566 1.0584,0.85691 1.21,-0.0514 c 0,0 0.8063,-0.0495 1.0586,-0.0495 0.2518,0 2.0161,0.10084 2.0161,0.10084 l 1.3609,0.0495 0.6552,1.05857 c 0,0 0.2521,0.70566 0.4032,0.90733 0.1522,0.20167 0.6554,1.00816 0.6554,1.00816 l 0.1522,0.45357 0.2017,-1.71382 0.8065,-1.31047 0.1008,-1.31067 0.8063,-0.40315 2.0667,-0.35292 2.5202,0.25208 1.0083,0.10084 0.8567,0.95774 c 0,0 0.2017,0.50399 0.4034,0.60482 0.2014,0.10084 0.8066,0.30251 0.8066,0.30251 l 0.7559,0.65524 0.4538,1.26025 c 0,0 0.655,0.70565 0.9073,0.80649 0.2519,0.10083 0.9072,0.70565 1.1088,0.85691 0.2017,0.1522 1.5122,1.1088 1.5122,1.1088 l 1.3609,0.5546 c 0,0 0.3529,0.65523 0.5546,0.80649 0.2016,0.1503 0.5039,0.35273 0.5039,0.35273 l 0.1503,0.65543 c 0,0 1.7643,0.35273 2.0164,0.40315 0.2521,0.0495 2.8228,0.60482 2.8228,0.60482 l 0.2519,-0.35273 c 0,0 1.109,1.05839 1.6634,1.26006 0.5546,0.20167 1.9155,1.10899 2.218,1.31066 0.3025,0.20167 2.8226,1.20964 2.8226,1.20964 l 1.5121,0.85691 0.3025,0.1503 0.7057,-0.1503 0.5546,0.75608 1.109,0.10083 0.6552,0.5546 0.6553,1.05838 0.4031,0.45376 -0.3023,1.00816 -0.4033,0.15221 c 0,0 -0.5546,0.60482 -0.504,0.85691 0.051,0.25208 0.051,0.65523 0.051,0.65523 l -0.4537,0.30251 -0.2017,0.5544 -0.4031,0.1503 0,0"
       id="path4140-0"
       inkscape:connector-curvature="0" />
    <path
       style="fill:none;stroke:#656464;stroke-width:1.42563057;stroke-linecap:butt;stroke-linejoin:miter;stroke-miterlimit:4;stroke-opacity:1;stroke-dasharray:none;display:inline"
       d="m 1118.3281,212.88504 c -0.051,-0.20148 -0.1009,-1.00798 -0.1009,-1.00798 l 0.8067,-0.75626 -0.2521,-1.10881 -0.7056,-0.65523 0,-0.90733 c 0,0 0.3023,-0.55459 0.5544,-0.75607 0.2521,-0.20167 1.4113,-0.90733 1.4113,-0.90733 l 1.5121,-0.90733 c 0,0 0.7057,-0.35292 1.2099,-0.55459 0.5042,-0.20148 0.8569,-0.5544 0.8569,-0.5544 l 0.7561,-5.89753 -0.7561,-0.90732"
       id="path4142-6"
       inkscape:connector-curvature="0" />
    <path
       style="fill:none;stroke:#656464;stroke-width:0.42341226;stroke-linecap:butt;stroke-linejoin:miter;stroke-miterlimit:4;stroke-opacity:1;stroke-dasharray:none;display:inline"
       d="m 1186.8806,212.93545 c -0.1009,-0.20148 -0.3529,-0.70565 -0.3025,-1.00797 0.051,-0.3025 0.1008,-0.70584 0.051,-1.05858 -0.051,-0.35292 0.1009,-1.15941 0.1009,-1.15941 l 0.504,-0.0514"
       id="path4144-2"
       inkscape:connector-curvature="0" />
    <path
       style="fill:none;stroke:#656464;stroke-width:1.42563057;stroke-linecap:butt;stroke-linejoin:miter;stroke-miterlimit:4;stroke-opacity:1;stroke-dasharray:none;display:inline"
       d="m 1167.6253,178.45763 c 0,0 -3.9821,-2.06655 -4.9902,-2.06655 -1.0082,0 -4.2342,-0.20167 -4.4863,-0.10084 -0.2519,0.10084 -8.317,2.2178 -8.5186,2.41947 -0.2015,0.20148 -0.504,2.16739 -0.6553,2.36906 -0.1503,0.20167 -1.8146,2.97388 -1.8146,2.97388 l 0.2016,2.87323 -1.3608,6.04878"
       id="path4146-6"
       inkscape:connector-curvature="0" />
    <path
       style="fill:none;stroke:#656464;stroke-width:1.42563057;stroke-linecap:butt;stroke-linejoin:miter;stroke-miterlimit:4;stroke-opacity:1;stroke-dasharray:none;display:inline"
       d="m 1108.7529,170.09363 c -0.1065,-0.85557 0.3208,-0.92673 0.1789,-1.06942 -0.1427,-0.14269 -0.9979,-0.46327 -0.9979,-0.46327 0,0 0.2138,-0.49904 0.4632,-0.67731 0.2497,-0.17884 0.8554,-0.89096 0.9624,-1.03346 0.1065,-0.1427 0.6417,-0.99808 0.82,-1.17635 0.1788,-0.17884 0.8196,-0.7127 0.8196,-0.7127 0,0 -0.1427,-0.6773 -0.1427,-0.89115 0,-0.21385 0.3563,-0.71289 0.3563,-0.71289 0,0 0.4635,-0.14269 0.4277,-0.28519 -0.036,-0.14269 -0.5702,-0.53462 -0.8909,-0.53462 -0.321,0 -0.9268,-0.0723 -0.9268,-0.0723 l -0.3565,-0.4277 c 0,0 -0.7485,-1.39 -0.8554,-1.63961 -0.1065,-0.24943 -0.4633,-0.81962 -0.4633,-0.99789 0,-0.17884 0.2137,-0.60596 0.4277,-0.81981 0.2139,-0.21385 0.4991,-0.39212 0.606,-0.57019 0.1065,-0.17884 0.4277,-0.71289 0.4277,-0.71289 l -0.7485,-0.67731 -0.6059,-0.92654 c 0,0 -0.1427,-0.67731 0,-0.78423 0.1426,-0.10654 0.3563,-0.0361 0.4276,-0.21385 0.072,-0.17884 0.1066,-0.89115 0.1066,-0.89115 0,0 0.3208,-0.17884 0.4277,-0.32077 0.1065,-0.14269 0.5346,-0.39193 0.6771,-0.5702 0.1427,-0.17884 0.2496,-0.49904 0.2496,-0.71288 0,-0.21385 -0.3208,-0.53462 -0.1788,-0.60596 0.1427,-0.0704 0.5706,-0.17884 0.5706,-0.17884 l 0,-0.28501 -1.1408,-2.17423 c 0,0 -0.1066,-0.42769 -0.07,-0.57039 0.036,-0.14269 0.3208,-0.53461 0.285,-0.67711 -0.036,-0.14269 -0.2139,-1.60404 -0.2139,-1.60404 0,0 0,-0.89097 0,-1.10481 0,-0.21385 0,-0.78424 0.07,-0.92674 0.072,-0.14269 0.5702,-0.6773 0.5702,-0.6773 0,0 0.5704,-0.21385 0.5704,-0.46328 0,-0.24942 -0.036,-0.74846 -0.036,-0.74846 0,0 -0.2852,-0.78423 -0.2496,-0.92673 0.036,-0.14269 -0.2139,-0.67731 -0.4277,-0.96231 -0.2139,-0.28519 -0.8912,-0.92673 -0.9981,-1.17616 -0.1066,-0.24961 -0.5346,-1.21192 -0.5346,-1.21192 0,0 -0.285,-0.74847 -0.5347,-0.99808 -0.2494,-0.24942 -0.7126,-0.89096 -0.7126,-0.89096 m 0.055,0.0799 -1.8624,-2.32568"
       id="path4148-1"
       inkscape:connector-curvature="0"
       sodipodi:nodetypes="cccscscsccscccscsccccsccsssccccccsccsccsscsccc" />
    <path
       style="fill:none;stroke:#656464;stroke-width:1.42563057;stroke-linecap:butt;stroke-linejoin:miter;stroke-miterlimit:4;stroke-opacity:1;stroke-dasharray:none;display:inline"
       d="m 1046.3426,97.739067 c 0.4992,-0.46327 1.4616,-1.28308 1.5685,-1.42558 0.1065,-0.14269 0.3563,-0.9625 0.4988,-1.31885 0.1427,-0.35634 0.2496,-1.78211 0.2496,-1.78211 0,0 -0.1788,-1.10501 -0.2138,-1.24751 -0.036,-0.14269 -0.4635,-1.88904 -0.4635,-1.88904 0,0 -0.4632,0.64154 -0.6771,0.92673 -0.2138,0.2852 -0.4277,1.10481 -0.5348,1.35443 -0.1065,0.24942 -0.5346,0.74846 -0.6413,0.99789 -0.1066,0.24961 -0.1789,0.35653 -0.1789,0.35653 0,0 -1.3544,-0.9625 -1.5327,-0.99807 -0.1788,-0.0361 -0.7129,-0.10655 -1.1406,-0.2852 -0.4277,-0.17884 -0.7484,-0.39192 -1.0336,-0.60577 -0.285,-0.21384 -0.9266,-0.64173 -0.7485,-0.67731 0.1789,-0.0361 1.2831,0.24943 1.4614,0 0.1788,-0.24942 0.3921,-0.60596 0.3921,-0.8198 0,-0.21385 -0.3208,-0.85539 -0.3566,-1.03366 -0.036,-0.17884 -0.1065,-0.855387 -0.1426,-0.997888 -0.036,-0.142691 -0.2139,-0.534617 -0.2139,-0.677308 0,-0.142691 0.2852,-0.997888 0.2852,-0.997888 0,0 -0.2852,-0.605962 -0.4277,-0.855386 -0.1427,-0.249615 -0.4277,-0.64154 -0.3921,-0.784232 0.036,-0.142691 0.1065,-0.499039 0.2496,-0.570194 0.1427,-0.0723 1.1404,-0.249615 1.1404,-0.249615 l 0.4635,-1.995965 0.8553,-0.427694 c 0,0 -0.4988,-0.677117 -0.4988,-0.819809 0,-0.142691 0.1427,-0.712885 0.3563,-0.819808 0.2139,-0.106543 1.1762,-1.104811 1.1762,-1.104811 l 0.6771,-1.105002 0.2854,-0.677117 c 0,0 -0.3567,-1.211925 -0.2854,-1.354426 0.07,-0.142691 0.2141,-0.96231 0.07,-1.033656 -0.1427,-0.0723 -0.5702,-0.677308 -0.2138,-0.748463 0.3563,-0.0723 0.3921,-0.356538 0.9623,-0.499039 0.5704,-0.142691 0.7486,-1.105001 0.8911,-0.748463 0.1427,0.356348 0.3921,0.855386 0.3921,0.855386 l 0.285,-0.605962 c 0,0 1.9604,-1.176156 2.2456,-1.28308 0.2852,-0.106543 0.7841,-0.17884 0.891,-0.392115 0.1065,-0.213847 0.7129,-0.997888 0.7129,-0.997888 0,0 -0.3208,-0.748463 0.036,-0.427693 0.3566,0.32077 2.3881,1.496926 2.5664,1.639427 0.1788,0.142692 1.8534,0.998078 2.1384,1.105002 0.2852,0.106542 1.7824,0.427693 1.9249,0.427693 0.1426,0 0.1788,0.392115 0.3207,0.463271 0.1427,0.0723 0.4991,0.142691 0.606,0.534616 0.1065,0.392116 0.1065,0.570385 0.285,0.784232 0.1788,0.213846 1.7465,0.463271 1.7465,0.463271 0,0 0.9623,0.32077 1.1762,0.32077 0.2138,0 0.4633,0 0.8911,-0.142692 0.4277,-0.142691 0.4277,-0.106542 0.4277,-0.106542 l 0.7841,-0.142692 0.2138,-0.890964 1.6396,0.0723 c 0,0 1.7466,0.784041 1.996,0.96231 0.2494,0.17884 1.5683,0.748463 1.6396,0.891155 0.07,0.142691 0.3564,0.570194 0.3564,0.570194"
       id="path4150-8"
       inkscape:connector-curvature="0" />
    <path
       style="fill:none;stroke:#656464;stroke-width:1.42563057;stroke-linecap:butt;stroke-linejoin:miter;stroke-miterlimit:4;stroke-opacity:1;stroke-dasharray:none;display:inline"
       d="m 1052.4471,69.42893 c 0,0 -1.4113,-0.302315 -1.2098,-0.705655 0.2017,-0.403151 0.9073,-1.713818 1.4113,-1.411312 0.5042,0.302315 1.3107,0.60482 1.3107,0.60482 l 0.2017,-1.008161 c 0,0 -0.9074,-0.604821 -0.9074,-1.008161 0,-0.403151 0.504,-1.915298 0.9074,-2.116968 0.4031,-0.201671 1.394,0.09513 1.394,0.09513 l 2.4872,-0.448621 c 0,0 0.1503,-0.957744 0.252,-1.360894 0.1009,-0.403341 -0.1008,-1.411502 0.3024,-1.310667 0.4033,0.100835 1.0081,-2.116968 1.0081,-2.116968 l 1.4115,-1.512147 0.8065,-1.108997 -0.4817,-0.337132 -1.1819,-0.721447 c -0.3799,-1.006068 0.089,-1.304769 0.8432,-1.366031 l -0.6919,-2.212761 0,-0.907326 -0.1009,-1.10894 c 0,0 0.1009,-1.310553 -0.1008,-1.713798 -0.2015,-0.403265 -0.7057,-1.713818 -0.7057,-1.713818 1.3364,0.0605 2.7665,0.176367 0.9578,-1.613001 l -0.7559,-2.117063 0.7057,-1.108939 0.1008,-0.604878 -1.2098,-0.907288 -0.4032,-0.705694 -0.605,-1.411369 -0.6048,-0.604878 0.6048,-0.80651 0.1008,-1.512185 0.7059,0.604878 0.9071,-0.604878 c 0,0 0.3025,-0.504062 0.7059,-0.806491 0.4031,-0.302449 1.109,-1.209756 1.109,-1.209756 0,0 -0.605,0.504062 -0.9075,-0.80651 -0.3024,-1.310553 -0.504,-2.721922 -0.504,-2.721922 0,0 0.7056,0.806491 1.1088,1.209756 0.4033,0.403226 1.6131,1.713798 1.6131,1.713798 0,0 -0.8066,1.209756 -0.2016,1.209756 0.6048,0 1.613,0.201613 1.613,0.201613 0,0 -0.4675,-0.87778 -0.5681,-1.482657 -0.1009,-0.604878 -1.0853,-2.621106 -1.0853,-2.621106 1.6636,-1.008142 3.468,-2.045793 3.468,-2.045793 l 1.109,-2.520309 1.5122,-0.100835 1.9154,-0.201632 c 0,0 -1.4113,-2.016228 -1.109,-2.419493 0.3024,-0.403245 0.7057,-1.310552 0.8065,-2.016246 0.1009,-0.705694 -0.1008,-1.209756 0.3025,-1.613002 0.4032,-0.403245 1.2097,-1.310552 1.2097,-1.310552 0,0 1.2098,-0.806511 1.6132,-1.10894 0.4031,-0.302429 0.5037,-0.504062 0.9071,-0.705694 0.4031,-0.201632 1.8146,0.504062 1.8146,0.504062 l 0.1009,0.907307 0.8065,-0.705675 c 0,0 0.4031,-0.806491 0.4031,-1.209756 0,-0.403245 0.3025,-1.411369 0.3025,-1.411369 0,0 2.117,0.100836 2.6212,0.201633 0.504,0.100835 3.3268,-0.403265 3.3268,-0.403265 l 1.0081,-0.806491 2.2178,-2.016247 c 0,0 0.2015,-0.201632 0.8065,-0.604878 0.6048,-0.403245 0.8065,-0.705674 1.109,-1.108939 0.3023,-0.403246 1.2099,-1.10894 1.2099,-1.10894 0,0 1.5119,0.100836 1.9152,-0.302429 0.4034,-0.403246 0.504,-0.907307 1.008,-0.705694 0.5042,0.201632 1.6132,0.504062 1.6132,0.907326 0,0.403227 -0.7057,2.016228 -1.0082,2.52029 -0.3025,0.50408 -1.8146,1.008142 -1.8146,1.008142 l -2.8226,0.604859 -0.3026,1.613001 -1.3106,1.10894 -1.512,1.209755 c 0,0 -0.6052,1.411369 -0.8067,2.016247 -0.2016,0.604878 -0.9073,2.016247 -0.9073,2.016247 l -0.6048,1.209756 c 0,0 -0.7057,1.411369 -0.8065,1.91543 -0.1008,0.504062 -0.9073,1.613001 -0.9073,1.613001 l 2.1171,0.100836 c 0,0 1.008,-0.100836 1.008,0.50408 0,0.604878 0.5042,1.008124 0.605,1.814615 0.1009,0.80651 -0.1008,1.814633 0.3025,2.217879 0.4032,0.403245 1.1088,1.008123 1.1088,1.008123 0,0 0.1009,0.806491 -0.2016,1.209756 -0.3025,0.403245 -0.8065,0.80651 -0.7057,1.613001 0.1008,0.806491 0.4032,1.613001 1.5122,1.915431 1.1089,0.302429 1.3106,0 1.3106,0.504061 0,0.504062 -0.2017,0.806511 0.504,1.10894 0.7059,0.302429 2.0161,0.806491 3.6291,0.504062 1.6132,-0.30243 2.5205,-0.504062 3.1253,-0.604878 0.6049,-0.100835 2.722,-0.302449 2.722,-0.302449 0,0 1.109,0.705694 1.4113,1.108959 0.3023,0.403246 0.605,2.016247 1.2097,2.21786 0.605,0.201632 2.218,0.907307 2.218,0.907307 0,0 2.3186,-0.201613 2.9236,-0.302429 0.6048,-0.100835 2.117,-0.30243 3.3266,-0.201632 1.2099,0.100835 3.1253,-0.100836 3.1253,-0.100836 l 0.3277,-0.137364 0.214,0.712848 c 0,0 -0.2852,0.997983 -0.3565,1.14056 -0.07,0.142501 -0.4633,0.891059 -0.4633,0.891059 0,0 0.1788,0.320789 -0.2139,0.784155 -0.3921,0.463328 -0.7842,1.033618 -0.7842,1.033618 0,0 0,1.033636 -0.036,1.211848 -0.036,0.178269 -0.1066,1.069291 -0.1427,1.496984 -0.036,0.427712 0.1065,0.677213 0.1427,0.926713 0.036,0.249501 0.1427,0.748502 0.07,1.14056 -0.07,0.392078 -0.07,1.532638 0,1.71085 0.07,0.178269 0.2852,0.855424 0.2852,0.855424 l 0.7484,1.069272 c 0,0 0.285,0.499001 0.5702,0.677212 0.2852,0.178269 0.4635,0.570347 0.4635,0.891117 0,0.32077 0.6415,0.748463 0.6415,0.748463 0,0 -1.4258,1.176157 -1.5325,1.318658 -0.1065,0.142691 -0.9981,1.354426 -0.9981,1.354426 l 0.07,0.499039 c 0,0 0.285,0.178839 0.4989,0.32077 0.2138,0.142691 1.0336,0.605962 1.0336,0.605962 0,0 1.4971,1.176156 1.5325,1.318848 0.036,0.142691 0.2496,0.677117 0.2496,0.819809 0,0.142691 0.036,0.855386 0.1789,1.033465 0.1427,0.17884 0.499,0.356538 0.499,0.605962 0,0.249615 -0.2138,0.891155 0.1066,1.176157 0.3207,0.285192 0.6415,0.32096 0.5702,0.748654 -0.07,0.427693 0.1826,1.810847 0.2186,2.060462"
       id="path4152-7"
       inkscape:connector-curvature="0"
       sodipodi:nodetypes="cssccssccsscccccccccscccccccccccccscscscscscccccssscsscccscscccsscsssscccccsccsccssscssssssscsscsscccscscsssssccsscsccscssssssc" />
    <path
       style="fill:none;stroke:#656464;stroke-width:1.42563057;stroke-linecap:butt;stroke-linejoin:miter;stroke-miterlimit:4;stroke-opacity:1;stroke-dasharray:none;display:inline"
       d="m 1089.8623,11.234595 c 0.1788,0.427694 0.1788,1.176195 0.1788,1.176195 l 0.5347,1.211848 0.6415,0.962348 c 0,0 -0.1427,0.57029 0.036,0.855425 0.1788,0.285135 0.82,1.496984 0.82,1.496984 l -0.7845,0.534635 c 0,0 -0.7484,0.178269 -0.8552,0.641559 -0.1065,0.463367 -0.3565,0.81979 -0.5346,1.069291 -0.1788,0.2495 -0.8554,1.033636 -0.8554,1.176195 0,0.142501 -0.2496,1.104925 -0.2496,1.104925 l 0.5346,1.069271 c 0,0 0.8554,0.213866 0.9981,0.320789 0.1427,0.106923 0.4633,0.641578 0.3919,1.069271 -0.07,0.427732 -0.2138,0.748502 -0.036,0.81979 0.1788,0.07135 0.7486,0.178269 0.7486,0.178269 0,0 0.7127,-0.03558 0.9624,-0.142501 0.2494,-0.106923 1.1761,-1.033617 1.1761,-1.033617 l 0.8198,-0.891079 c 0,0 -0.2496,-0.784136 -0.072,-0.997983 0.1789,-0.213865 0.3564,-0.855424 0.3564,-0.998001 0,-0.142501 -0.6416,-1.033637 -0.7127,-1.211849 -0.07,-0.178269 -1.0693,-1.318772 -1.1048,-1.46133 -0.036,-0.142501 -0.4991,-0.748501 -0.4991,-0.926732 0,-0.178269 -0.072,-1.176195 -0.072,-1.176195 l 0.1789,-0.641559 0.07,-0.605924 0.7128,-0.534636 1.8535,-0.641578 c 0,0 2.2452,-0.926713 2.3879,-0.962348 0.1427,-0.03558 1.5327,-0.57027 1.7465,-0.677212 0.2139,-0.106924 0.3564,-0.463348 0.8197,-0.463348 0.4634,0 1.3902,0 1.3902,0 0,0 0.1065,-0.534635 0.1065,-0.784136 0,-0.2495 -0.1427,-0.81979 -0.1427,-0.81979 l -1.996,0.677213 -0.6415,-1.211848 c 0,0 0,-0.427694 0.1427,-0.641559 0.1427,-0.213866 0.3563,-0.605925 0.5702,-0.712867 0.2138,-0.106923 0.7485,-0.356405 0.891,-0.427693 0.1426,-0.07135 0.5703,-0.07135 0.5703,-0.07135 0,0 0.3922,0.534655 0.5347,0.926713 0.1426,0.392059 0.5346,1.176195 0.3921,1.354407 -0.1427,0.178269 -0.1789,1.104925 -0.1789,1.104925 l 1.2831,0.320789 0.6773,-0.285135 c 0,0 0.1789,0.677194 0.4277,0.03558 0.2494,-0.641559 0.4277,0.106923 0.606,0.106923 0.1788,0 1.1048,0.106923 1.1048,0.106923 l 0.8911,0.142501 1.4256,0.356424 c 0,0 0.606,0.926694 0.7485,1.033637 0.1427,0.106923 0.3921,0.748482 0.3921,0.748482 l 0.2852,0.677213 c 0,0 -0.2496,0.106923 -0.2139,0.320789 0.036,0.213846 0.5347,1.104925 0.5347,1.104925 0,0 0.784,0.356405 0.9623,0.392058 0.1788,0.03558 2.3167,-0.178268 2.7802,-0.142501 0.4632,0.03558 7.9125,-0.926713 7.9483,-0.712847 0.036,0.213866 0,0.712847 0,0.712847 l 1.2117,0.962348 1.3544,0.641559 c 0,0 2.2456,0.677232 2.4594,0.712867 0.2139,0.03558 1.2831,-0.463366 1.4972,-0.463366 0.2136,0 0.8553,0.07135 0.9978,-0.106923 0.1427,-0.178269 0.2852,-0.641559 0.4277,-0.712829 0.1427,-0.07135 0.8198,-0.427731 0.9623,-0.534655 0.1427,-0.106923 0.2852,-0.605905 0.606,-0.677212 0.3208,-0.07135 1.0692,-0.32077 1.2831,-0.285136 0.2138,0.03558 2.2454,-0.285135 2.0671,-0.356423 -0.1788,-0.07135 -3.1363,-0.392059 -3.1363,-0.392059 l 2.1742,-0.605924 0.7483,0.249481 0.6775,0.07135 9.4807,-1.069272 c 0,0 -0.3207,0.427713 -0.6415,0.605925 -0.3208,0.178269 -2.1742,0.748482 -2.3167,0.784136 -0.1427,0.03558 -2.5308,0.213847 -2.5308,0.213847 0,0 0.3565,0.81977 0.7485,1.033636 0.3923,0.213866 1.2832,0.748501 1.2832,0.748501 l 0.4277,1.283118 c 0,0 -0.1427,0.57029 0.072,0.81979 0.2139,0.249501 0.891,0.570271 0.891,0.570271 l 0.1065,-1.889042 c 0,0 0.9268,0.285135 1.4258,0.677212 0.499,0.392059 0.3921,0.427713 0.8198,0.712829 0.4277,0.285154 0.891,-0.106923 1.0337,-0.213828 0.1427,-0.106923 -0.036,-0.81979 0.1427,-0.677232 0.1788,0.142501 0.7127,0.249501 0.9623,0.499001 0.2494,0.249501 0.3921,0.677213 0.5346,0.748502 0.1427,0.07135 1.1761,0.392058 1.1761,0.392058 0,0 0.9268,0.356424 1.1406,0.534655 0.2141,0.178269 0.606,0.605905 0.606,0.605905 0,0 -0.891,0.534655 -1.0335,0.891079 -0.1427,0.356423 -0.4279,0.962348 -0.4636,1.176213 -0.036,0.213847 -0.5345,1.283118 -0.6414,1.496984 -0.1065,0.213847 -0.2138,0.392078 -0.2138,0.392078 l -2.0318,0.356404 c 0,0 1.0337,0.605925 1.2475,0.605925 0.2139,0 2.8516,-0.89106 2.8516,-0.89106 l 1.2473,0.03558 c 0,0 0.2852,0.106923 0.5704,0 0.285,-0.106923 0.3921,-0.499001 0.7484,-0.463366 0.3564,0.03558 1.5325,0.499001 1.7108,0.57027 0.1789,0.07135 1.1048,0.855425 1.1048,0.855425 l 0.1066,0.2495 -0.4989,0.855425 c 0,0 -0.4279,0.499001 -0.4992,0.712867 -0.07,0.213827 -0.7485,0.463328 -0.891,0.57027 -0.1427,0.106923 -1.1763,0.748482 -1.1763,0.748482 0,0 -0.4989,-0.07135 -0.7483,0.213866 -0.2496,0.285135 -0.9267,0.962348 -0.9267,1.283137 0,0.320789 -0.1427,0.427712 -0.036,0.641559 0.1066,0.213866 0.57,0.534636 0.57,0.534636 0,0 -0.4988,0.605924 -0.3563,0.712866 0.1427,0.106924 0.6417,0.320789 0.8198,0.320789 0.1788,0 0.8911,-0.285154 0.8911,-0.285154 l 0.2139,0.784136 c 0,0 -0.3921,0.784136 -0.5704,0.855425 -0.1788,0.07135 -0.9623,0.427712 -1.105,0.498982 -0.1427,0.07135 -1.1404,0.2495 -1.2831,0.285154 -0.1427,0.03558 -0.7127,0.03558 -0.9623,0.178269 -0.2494,0.142501 -0.7842,0.392059 -0.8196,0.57029 -0.036,0.178269 0.036,0.712847 0.036,0.855405 0,0.142501 0.1789,0.81979 0.1427,1.069291 -0.036,0.2495 -0.3207,0.891059 -0.3207,0.891059 0,0 -0.8912,0.356424 -1.105,0.463366 -0.2137,0.106924 0,0.534636 0.1788,0.819771 0.1788,0.285135 0.1788,0.249501 0.8556,0.997983 0.6771,0.748501 0.8909,1.211867 1.069,1.39006 0.1789,0.178269 0.2854,0.320789 0.6418,0.463366 0.3565,0.142501 1.1761,0.605925 1.1761,0.605925 l 0,0"
       id="path4168-9"
       inkscape:connector-curvature="0" />
    <path
       style="fill:none;stroke:#656464;stroke-width:1.42563057;stroke-linecap:butt;stroke-linejoin:miter;stroke-miterlimit:4;stroke-opacity:1;stroke-dasharray:none;display:inline"
       d="m 1155.5517,25.95497 0.9267,0.2495 c 0,0 2.0673,0.784136 2.2454,0.997983 0.1788,0.213866 3.3504,2.494986 3.3504,2.494986 0,0 0,0.534635 0.2138,0.81979 0.2139,0.285135 0.6416,0.962328 0.6416,0.962328 l -0.285,1.318791 c 0,0 -0.036,0.356424 -0.1427,0.534636 -0.1066,0.178269 -0.3208,0.748501 -0.2852,0.962348 0.036,0.213847 -0.3564,2.031638 -0.3564,2.031638 0,0 0.3564,-0.07135 0.4633,-0.2495 0.1065,-0.178269 0.7487,-2.423697 0.9267,-2.459351 0.1789,-0.03558 0.8198,-0.178269 0.8198,-0.178269 0,0 2.0672,0.962367 2.1741,1.104925 0.1065,0.142501 0.3565,0.534636 0.9269,1.033637 0.5702,0.499001 0.9623,1.176195 0.9623,1.176195 0,0 0.7483,-0.106924 0.9266,-0.03558 0.1788,0.07135 1.0694,0.463366 1.0694,0.463366 0,0 0.1788,0.748482 0.1788,1.033618 0,0.285135 -0.2494,1.425714 -0.2494,1.568272 0,0.142501 -0.036,0.891059 -0.036,0.891059 0,0 -0.7485,0.57029 -0.6774,0.748502 0.07,0.178269 0.1066,0.605924 0.2497,0.81979 0.1427,0.213846 0.2494,0.356423 0.1427,0.677193 -0.1066,0.320789 -0.4277,0.748502 -0.4277,0.748502 0,0 -0.9981,0.07135 -1.1406,0.07135 -0.1427,0 -1.1764,0.106924 -1.1764,0.106924 0,0 -0.6415,0.392058 -0.7484,0.534635 -0.1066,0.142501 -0.3921,0.463348 -0.3921,0.463348 0,0 0.6059,0.285135 0.6059,0.463347 0,0.178269 -1.3188,3.136544 -1.3188,3.136544 0,0 0.1065,1.318791 0.3207,1.390061 0.2139,0.07135 0.9268,0 0.9625,0.427731 0.036,0.427693 -0.036,0.641559 0.1427,0.784136 0.1789,0.142501 0.606,0.03558 0.6771,0.32077 0.07,0.285154 0.07,0.784155 0.1066,0.962348 0.036,0.178269 -0.036,0.142501 0.3208,0.213866 0.3565,0.07135 1.6753,-0.178269 1.6753,-0.178269 l 0.5702,2.281139 c 0,0 -0.1427,0.605962 0.1066,0.926732 0.2494,0.32077 0.2138,0.499039 0.5702,0.819809 0.3565,0.32077 1.7823,2.922698 1.9248,2.922698 0.1427,0 0.9267,0.106543 0.9267,0.106543 l 0.3919,0.605772"
       id="path4188-2"
       inkscape:connector-curvature="0" />
    <path
       style="fill:none;stroke:#656464;stroke-width:1.42563057;stroke-linecap:butt;stroke-linejoin:miter;stroke-miterlimit:4;stroke-opacity:1;stroke-dasharray:none;display:inline"
       d="m 1170.1652,40.604075 0.6771,-2.174197 c 0,0 0.3921,-0.320789 0.9623,-0.320789 0.5704,0 3.2792,0.07135 3.2792,0.213866 0,0.142501 0.5702,0.641559 0.9268,0.677194 0.3563,0.03558 1.1761,0.178269 1.1761,0.178269 0,0 -0.4277,-0.641559 -0.1788,-0.677213 0.2496,-0.03558 0.3207,-0.392059 0.8554,-0.32077 0.5346,0.07135 1.6753,0.142501 1.6753,0.142501 l 2.3879,0.392059 c 0,0 -0.784,-0.499001 -0.499,-0.499001 0.2852,0 2.7802,-0.142501 3.0296,0 0.2494,0.142501 2.4237,0.712866 2.4237,0.712866 l 0.5704,0.03558 0,0.57027 c 0,0 -0.036,0.748502 -0.1789,1.069291 -0.1427,0.32077 -0.2496,0.677194 -0.499,0.891059 -0.2494,0.213866 -0.4989,0.285135 -0.7129,0.570271 -0.2139,0.285154 -0.7129,0.998001 -0.8554,1.176213 -0.1427,0.178269 -0.2496,0.463347 -0.2852,0.677194 -0.036,0.213866 0.1789,0.784155 0.1427,0.998002 -0.036,0.213866 0.2137,1.39006 0.2494,1.568291 0.036,0.178269 -0.1065,0.89106 0,1.033618 0.1066,0.142501 0.2852,0.178269 0.2852,0.356443 0,0.178269 -0.2852,0.32077 -0.1427,0.641559 0.1427,0.32077 0.4635,0.605924 0.5348,0.819771 0.072,0.213865 0.2137,0.285154 0.4633,0.677212 0.2494,0.392078 1.0337,0.962348 1.0337,0.962348 l -0.6416,1.354426 c 0,0 -0.5346,0.463347 -0.5346,0.819771 0,0.3565 -0.072,0.819771 -0.072,0.819771 l 0.2494,0.712885 c 0,0 -0.7484,1.354426 -0.8196,1.568273 -0.07,0.213846 -0.5704,1.033655 -0.5704,1.033655 l -0.4988,0.356348"
       id="path4190-0"
       inkscape:connector-curvature="0" />
    <path
       style="fill:none;stroke:#656464;stroke-width:1.42563057;stroke-linecap:butt;stroke-linejoin:miter;stroke-miterlimit:4;stroke-opacity:1;stroke-dasharray:none;display:inline"
       d="m 1187.8081,39.677362 c 0,0 0.7844,-0.427713 0.9623,-0.320789 0.1788,0.106923 0.4279,0.463366 0.8911,0.534635 0.4635,0.07135 2.4593,0.320789 2.8516,0.499001 0.3919,0.178269 0.3563,-0.07135 0.8554,0.285135 0.4988,0.356424 0.4988,0.427732 1.0336,0.926714 0.5346,0.499001 0.8554,0.748501 1.3545,1.176213 0.4988,0.427713 0.6415,0.712848 0.6415,0.712848 l -0.036,0.819771 c 0,0 0.1066,0.320789 0.2497,0.320789 0.1426,0 0.6771,-0.81979 0.6771,-0.81979 l 0.6059,0.534655 0.5702,0.605924 c 0,0 0.1066,0.249481 0.1066,0.712847 0,0.463367 -0.036,1.033637 -0.036,1.033637 0,0 0.4279,-1.746484 0.8198,-1.603907 0.3921,0.142501 0.7129,0.285135 0.7129,0.285135 0,0 -0.1427,0.534636 -0.1065,0.819771 0.036,0.285154 0.499,1.176214 0.499,1.176214 0,0 -0.036,0.2495 -0.1065,0.534635"
       id="path4192-2"
       inkscape:connector-curvature="0"
       sodipodi:nodetypes="ccsccccccscccscccccc" />
  </g>
</svg>
